0
SECTION
2
HEADER
9
$INSUNITS
70
4
9
$ACADVER
1
AC1014
9
$HANDSEED
5
FFFF
0
ENDSEC
0
SECTION
2
TABLES
0
TABLE
2
VPORT
5
8
100
AcDbSymbolTable
0
ENDTAB
0
TABLE
2
LTYPE
5
5
100
AcDbSymbolTable
0
LTYPE
5
14
100
AcDbSymbolTableRecord
100
AcDbLinetypeTableRecord
2
BYBLOCK
70
0
0
LTYPE
5
15
100
AcDbSymbolTableRecord
100
AcDbLinetypeTableRecord
2
BYLAYER
70
0
0
ENDTAB
0
TABLE
2
LAYER
5
2
100
AcDbSymbolTable
70
2
0
LAYER
5
50
100
AcDbSymbolTableRecord
100
AcDbLayerTableRecord
2
0
70
0
6
CONTINUOUS
0
ENDTAB
0
TABLE
2
STYLE
5
3
100
AcDbSymbolTable
70
1
0
STYLE
5
11
100
AcDbSymbolTableRecord
100
AcDbTextStyleTableRecord
2
STANDARD
70
0
0
ENDTAB
0
TABLE
2
VIEW
5
6
100
AcDbSymbolTable
70
0
0
ENDTAB
0
TABLE
2
UCS
5
7
100
AcDbSymbolTable
70
0
0
ENDTAB
0
TABLE
2
APPID
5
9
100
AcDbSymbolTable
70
2
0
APPID
5
12
100
AcDbSymbolTableRecord
100
AcDbRegAppTableRecord
2
ACAD
70
0
0
ENDTAB
0
TABLE
2
DIMSTYLE
5
A
100
AcDbSymbolTable
70
1
0
ENDTAB
0
TABLE
2
BLOCK_RECORD
5
1
100
AcDbSymbolTable
70
1
0
BLOCK_RECORD
5
1F
100
AcDbSymbolTableRecord
100
AcDbBlockTableRecord
2
*MODEL_SPACE
0
BLOCK_RECORD
5
1B
100
AcDbSymbolTableRecord
100
AcDbBlockTableRecord
2
*PAPER_SPACE
0
ENDTAB
0
ENDSEC
0
SECTION
2
BLOCKS
0
BLOCK
5
20
100
AcDbEntity
100
AcDbBlockBegin
2
*MODEL_SPACE
0
ENDBLK
5
21
100
AcDbEntity
100
AcDbBlockEnd
0
BLOCK
5
1C
100
AcDbEntity
100
AcDbBlockBegin
2
*PAPER_SPACE
0
ENDBLK
5
1D
100
AcDbEntity
100
AcDbBlockEnd
0
ENDSEC
0
SECTION
2
ENTITIES
0
LWPOLYLINE
5
100
100
AcDbEntity
8
0
100
AcDbPolyline
90
4
70
1
43
0.0
10
25.275000000000016
20
64.250000000004349
10
-25.524999999999984
20
64.250000000004349
10
-25.524999999999984
20
-64.24999999999568
10
25.275000000000016
20
-64.24999999999568
0
LWPOLYLINE
5
101
100
AcDbEntity
8
0
100
AcDbPolyline
90
4
70
1
43
0.0
10
25.02500000000002
20
64.250000000004349
10
-25.275000000000041
20
64.250000000004363
10
-25.275000000000041
20
-64.249999999995623
10
25.02500000000002
20
-64.24999999999568
0
LWPOLYLINE
5
102
100
AcDbEntity
8
0
100
AcDbPolyline
90
4
70
1
43
0.0
10
24.774999999999977
20
53.250000000002196
10
-25.025000000000027
20
53.250000000002196
10
-25.025000000000031
20
-53.249999999995623
10
24.774999999999974
20
-53.249999999995623
0
CIRCLE
5
103
100
AcDbEntity
8
0
100
AcDbCircle
10
-18.025000000000027
20
61.25000000000437
30
0
40
1.5000000000000009
0
CIRCLE
5
104
100
AcDbEntity
8
0
100
AcDbCircle
10
17.535000000000004
20
61.250000000011184
30
0
40
1.5000000000000002
0
LINE
5
105
100
AcDbEntity
8
0
100
AcDbLine
10
25.02500000000002
20
4.3618716964412869e-12
30
0
11
-25.025000000000027
21
3.2947402767177087e-12
31
0
0
CIRCLE
5
106
100
AcDbEntity
8
0
100
AcDbCircle
10
-18.025000000000023
20
-61.249999999995659
30
0
40
1.5000000000000013
0
CIRCLE
5
107
100
AcDbEntity
8
0
100
AcDbCircle
10
17.534999999999982
20
-61.249999999995659
30
0
40
1.4999999999999989
0
LINE
5
108
100
AcDbEntity
8
0
100
AcDbLine
10
-19.524999999999935
20
61.2500000022698
30
0
11
-16.525000000000034
21
61.249999997738939
31
0
0
CIRCLE
5
109
100
AcDbEntity
8
0
100
AcDbCircle
10
-19.524999999999935
20
61.2500000022698
30
0
40
1.4999999999999989
0
CIRCLE
5
110
100
AcDbEntity
8
0
100
AcDbCircle
10
-16.525000000000034
20
61.249999997738939
30
0
40
1.4999999999999978
0
LINE
5
111
100
AcDbEntity
8
0
100
AcDbLine
10
-19.524999997729079
20
62.750000002271591
30
0
11
-16.524999997729179
21
62.749999997740424
31
0
0
LINE
5
112
100
AcDbEntity
8
0
100
AcDbLine
10
16.035000000000007
20
62.749999999999474
30
0
11
19.035000000000007
21
62.74999999999946
31
0
0
LINE
5
113
100
AcDbEntity
8
0
100
AcDbLine
10
-16.525000002233384
20
59.749999997803187
30
0
11
-19.525000002233249
21
59.750000002269807
31
0
0
CIRCLE
5
114
100
AcDbEntity
8
0
100
AcDbCircle
10
16.035000000000011
20
61.249999999999474
30
0
40
1.4999999999999989
0
LINE
5
115
100
AcDbEntity
8
0
100
AcDbLine
10
16.035000000000011
20
61.249999999999474
30
0
11
19.035000000000007
21
61.249999999999467
31
0
0
CIRCLE
5
116
100
AcDbEntity
8
0
100
AcDbCircle
10
19.035000000000007
20
61.249999999999467
30
0
40
1.4999999999999978
0
LINE
5
117
100
AcDbEntity
8
0
100
AcDbLine
10
19.034999809865628
20
59.749999619734275
30
0
11
16.034999809858089
21
59.749999999998067
31
0
0
LINE
5
118
100
AcDbEntity
8
0
100
AcDbLine
10
-19.524999999999999
20
-61.250000000004391
30
0
11
-16.524999999999995
21
-61.250000000000526
31
0
0
CIRCLE
5
119
100
AcDbEntity
8
0
100
AcDbCircle
10
-19.524999999999999
20
-61.250000000004391
30
0
40
1.4999999999999989
0
CIRCLE
5
120
100
AcDbEntity
8
0
100
AcDbCircle
10
-16.524999999999995
20
-61.250000000000526
30
0
40
1.4999999999999978
0
LINE
5
121
100
AcDbEntity
8
0
100
AcDbLine
10
-19.525000000000027
20
-59.75000000000054
30
0
11
-16.525000000000016
21
-59.750000000000526
31
0
0
LINE
5
122
100
AcDbEntity
8
0
100
AcDbLine
10
16.034999999999986
20
-59.749999999995651
30
0
11
19.034999999999979
21
-59.749999999995673
31
0
0
LINE
5
123
100
AcDbEntity
8
0
100
AcDbLine
10
-16.52499999999424
20
-62.749999999993719
30
0
11
-19.524999999998379
21
-62.750000000004384
31
0
0
CIRCLE
5
124
100
AcDbEntity
8
0
100
AcDbCircle
10
16.034999999999986
20
-61.249999999995651
30
0
40
1.4999999999999989
0
LINE
5
125
100
AcDbEntity
8
0
100
AcDbLine
10
16.034999999999986
20
-61.249999999995651
30
0
11
19.034999999999979
21
-61.249999999995666
31
0
0
CIRCLE
5
126
100
AcDbEntity
8
0
100
AcDbCircle
10
19.034999999999979
20
-61.249999999995666
30
0
40
1.4999999999999978
0
LINE
5
127
100
AcDbEntity
8
0
100
AcDbLine
10
19.034999963277951
20
-62.750000073447467
30
0
11
16.03499996327789
21
-62.749999999995623
31
0
0
CIRCLE
5
128
100
AcDbEntity
8
0
100
AcDbCircle
10
-11.978333333325049
20
6.2399999999985951
30
0
40
2.75
0
LWPOLYLINE
5
129
100
AcDbEntity
8
0
100
AcDbPolyline
90
4
70
1
43
0.0
10
13.874999999997533
20
50.460000000003866
10
-14.125000000002469
20
50.460000000003866
10
-14.124999999997527
20
11.240000000004361
10
13.875000000002476
20
11.240000000004361
0
LINE
5
130
100
AcDbEntity
8
0
100
AcDbLine
10
24.774999999999974
20
-45.719999999995636
30
0
11
-25.025000000000027
21
-45.719999999995636
31
0
0
CIRCLE
5
131
100
AcDbEntity
8
0
100
AcDbCircle
10
-17.904999999999983
20
-45.719999999995636
30
0
40
3.1000000000000005
0
CIRCLE
5
132
100
AcDbEntity
8
0
100
AcDbCircle
10
-0.12499999999713685
20
-7.0399999999970806
30
0
40
3.6000000000000014
0
LINE
5
133
100
AcDbEntity
8
0
100
AcDbLine
10
-0.1250000000024685
20
50.460000000003866
30
0
11
-0.12499999999292835
21
11.240000000004361
31
0
0
LINE
5
134
100
AcDbEntity
8
0
100
AcDbLine
10
-14.124999999999998
20
30.850000000004112
30
0
11
13.875000000000004
21
30.850000000004112
31
0
0
CIRCLE
5
135
100
AcDbEntity
8
0
100
AcDbCircle
10
-6.0516666666666508
20
-45.719999999995636
30
0
40
3.1000000000000005
0
CIRCLE
5
136
100
AcDbEntity
8
0
100
AcDbCircle
10
5.8016666666666827
20
-45.719999999995636
30
0
40
3.1000000000000005
0
CIRCLE
5
137
100
AcDbEntity
8
0
100
AcDbCircle
10
17.655000000000015
20
-45.719999999995636
30
0
40
3.1000000000000005
0
CIRCLE
5
138
100
AcDbEntity
8
0
100
AcDbCircle
10
-17.904999999999983
20
-33.01999999999564
30
0
40
3.1000000000000005
0
CIRCLE
5
139
100
AcDbEntity
8
0
100
AcDbCircle
10
-6.0516666666666508
20
-33.01999999999564
30
0
40
3.1000000000000005
0
CIRCLE
5
140
100
AcDbEntity
8
0
100
AcDbCircle
10
5.8016666666666827
20
-33.01999999999564
30
0
40
3.1000000000000005
0
CIRCLE
5
141
100
AcDbEntity
8
0
100
AcDbCircle
10
17.655000000000015
20
-33.01999999999564
30
0
40
3.1000000000000005
0
CIRCLE
5
142
100
AcDbEntity
8
0
100
AcDbCircle
10
-17.904999999999983
20
-20.319999999995638
30
0
40
3.1000000000000005
0
CIRCLE
5
143
100
AcDbEntity
8
0
100
AcDbCircle
10
-6.0516666666666508
20
-20.319999999995638
30
0
40
3.1000000000000005
0
CIRCLE
5
144
100
AcDbEntity
8
0
100
AcDbCircle
10
5.8016666666666827
20
-20.319999999995638
30
0
40
3.1000000000000005
0
CIRCLE
5
145
100
AcDbEntity
8
0
100
AcDbCircle
10
17.655000000000015
20
-20.319999999995638
30
0
40
3.1000000000000005
0
LINE
5
146
100
AcDbEntity
8
0
100
AcDbLine
10
-25.025000000000009
20
6.2400000000043621
30
0
11
24.775000000000006
21
6.2400000000043621
31
0
0
CIRCLE
5
147
100
AcDbEntity
8
0
100
AcDbCircle
10
11.728333333341618
20
6.2400000000043621
30
0
40
2.75
0
LINE
5
148
100
AcDbEntity
8
0
100
AcDbLine
10
-0.12499999999998401
20
-64.24999999999568
30
0
11
-0.12499999999998401
21
64.250000000004349
31
0
0
LINE
5
149
100
AcDbEntity
8
0
100
AcDbLine
10
-17.904999999999983
20
-20.319999999995638
30
0
11
-6.0516666666666508
21
-20.319999999995638
31
0
0
LINE
5
150
100
AcDbEntity
8
0
100
AcDbLine
10
5.8016666666666827
20
-20.319999999995638
30
0
11
17.655000000000015
21
-20.319999999995638
31
0
0
LINE
5
151
100
AcDbEntity
8
0
100
AcDbLine
10
-11.978333333333318
20
-20.319999999995638
30
0
11
11.728333333341618
21
6.2400000000043621
31
0
0
LINE
5
152
100
AcDbEntity
8
0
100
AcDbLine
10
11.728333333333349
20
-20.319999999995638
30
0
11
-11.978333333325049
21
6.2399999999985951
31
0
0
LINE
5
153
100
AcDbEntity
8
0
100
AcDbLine
10
17.655000000000015
20
-20.319999999995638
30
0
11
17.654999999999582
21
4.204734433896351e-12
31
0
0
LINE
5
154
100
AcDbEntity
8
0
100
AcDbLine
10
-0.12499999999713685
20
-7.0399999999970806
30
0
11
24.774999999999974
21
-7.0399999999970806
31
0
0
CIRCLE
5
155
100
AcDbEntity
8
0
100
AcDbCircle
10
17.654999999999735
20
-7.0399999999970806
30
0
40
1.5000000000000004
0
ENDSEC
0
SECTION
2
OBJECTS
0
DICTIONARY
5
C
100
AcDbDictionary
3
ACAD_GROUP
350
D
3
ACAD_MLINESTYLE
350
17
0
DICTIONARY
5
D
100
AcDbDictionary
0
DICTIONARY
5
1A
330
C
100
AcDbDictionary
0
DICTIONARY
5
17
100
AcDbDictionary
0
ENDSEC
0
EOF
