0
SECTION
2
HEADER
9
$INSUNITS
70
4
9
$ACADVER
1
AC1014
9
$HANDSEED
5
FFFF
0
ENDSEC
0
SECTION
2
TABLES
0
TABLE
2
VPORT
5
8
100
AcDbSymbolTable
0
ENDTAB
0
TABLE
2
LTYPE
5
5
100
AcDbSymbolTable
0
LTYPE
5
14
100
AcDbSymbolTableRecord
100
AcDbLinetypeTableRecord
2
BYBLOCK
70
0
0
LTYPE
5
15
100
AcDbSymbolTableRecord
100
AcDbLinetypeTableRecord
2
BYLAYER
70
0
0
ENDTAB
0
TABLE
2
LAYER
5
2
100
AcDbSymbolTable
70
2
0
LAYER
5
50
100
AcDbSymbolTableRecord
100
AcDbLayerTableRecord
2
0
70
0
6
CONTINUOUS
0
ENDTAB
0
TABLE
2
STYLE
5
3
100
AcDbSymbolTable
70
1
0
STYLE
5
11
100
AcDbSymbolTableRecord
100
AcDbTextStyleTableRecord
2
STANDARD
70
0
0
ENDTAB
0
TABLE
2
VIEW
5
6
100
AcDbSymbolTable
70
0
0
ENDTAB
0
TABLE
2
UCS
5
7
100
AcDbSymbolTable
70
0
0
ENDTAB
0
TABLE
2
APPID
5
9
100
AcDbSymbolTable
70
2
0
APPID
5
12
100
AcDbSymbolTableRecord
100
AcDbRegAppTableRecord
2
ACAD
70
0
0
ENDTAB
0
TABLE
2
DIMSTYLE
5
A
100
AcDbSymbolTable
70
1
0
ENDTAB
0
TABLE
2
BLOCK_RECORD
5
1
100
AcDbSymbolTable
70
1
0
BLOCK_RECORD
5
1F
100
AcDbSymbolTableRecord
100
AcDbBlockTableRecord
2
*MODEL_SPACE
0
BLOCK_RECORD
5
1B
100
AcDbSymbolTableRecord
100
AcDbBlockTableRecord
2
*PAPER_SPACE
0
ENDTAB
0
ENDSEC
0
SECTION
2
BLOCKS
0
BLOCK
5
20
100
AcDbEntity
100
AcDbBlockBegin
2
*MODEL_SPACE
0
ENDBLK
5
21
100
AcDbEntity
100
AcDbBlockEnd
0
BLOCK
5
1C
100
AcDbEntity
100
AcDbBlockBegin
2
*PAPER_SPACE
0
ENDBLK
5
1D
100
AcDbEntity
100
AcDbBlockEnd
0
ENDSEC
0
SECTION
2
ENTITIES
0
LWPOLYLINE
5
100
100
AcDbEntity
8
0
100
AcDbPolyline
90
4
70
1
43
0.0
10
25.274999999975304
20
64.24999999999406
10
-25.525000000024697
20
64.24999999999406
10
-25.525000000024697
20
-64.250000000005954
10
25.274999999975304
20
-64.250000000005954
0
LWPOLYLINE
5
101
100
AcDbEntity
8
0
100
AcDbPolyline
90
4
70
1
43
0.0
10
25.025000000022743
20
64.249999999996263
10
-25.275000000024761
20
64.24999999999406
10
-25.275000000024754
20
-64.250000000006025
10
25.024999999975329
20
-64.250000000005954
0
LWPOLYLINE
5
102
100
AcDbEntity
8
0
100
AcDbPolyline
90
4
70
1
43
0.0
10
24.774999999975304
20
53.250000000002196
10
-25.025000000024672
20
53.249999999999531
10
-25.025000000024558
20
-53.250000000005997
10
24.774999999980508
20
-53.250000000006224
0
CIRCLE
5
103
100
AcDbEntity
8
0
100
AcDbCircle
10
-18.025000000024697
20
61.249999999993996
30
0
40
1.5000000000000009
210
0
220
0
230
1
0
CIRCLE
5
104
100
AcDbEntity
8
0
100
AcDbCircle
10
17.534999999990944
20
61.249999999989086
30
0
40
1.5000000000000002
210
0
220
0
230
1
0
LINE
5
105
100
AcDbEntity
8
0
100
AcDbLine
10
25.025000000005178
20
-6.1011270852979768e-12
30
0
11
-25.025000000024235
21
-3.2247463215529981e-12
31
0
0
CIRCLE
5
106
100
AcDbEntity
8
0
100
AcDbCircle
10
-18.025000000024697
20
-61.250000000005954
30
0
40
1.5000000000000013
210
0
220
0
230
1
0
CIRCLE
5
107
100
AcDbEntity
8
0
100
AcDbCircle
10
17.534999999975334
20
-61.250000000005983
30
0
40
1.4999999999999989
210
0
220
0
230
1
0
LINE
5
108
100
AcDbEntity
8
0
100
AcDbLine
10
-19.525000000009005
20
61.250000002261174
30
0
11
-16.525000000009005
21
61.249999997730313
31
0
0
CIRCLE
5
109
100
AcDbEntity
8
0
100
AcDbCircle
10
-19.525000000009005
20
61.250000002261174
30
0
40
1.4999999999999989
210
0
220
0
230
1
0
CIRCLE
5
110
100
AcDbEntity
8
0
100
AcDbCircle
10
-16.525000000009005
20
61.249999997730313
30
0
40
1.4999999999999978
210
0
220
0
230
1
0
LINE
5
111
100
AcDbEntity
8
0
100
AcDbLine
10
-19.524999997729079
20
62.750000002271591
30
0
11
-16.524999997743571
21
62.749999997730306
31
0
0
LINE
5
112
100
AcDbEntity
8
0
100
AcDbLine
10
16.034999999987512
20
62.749999999990834
30
0
11
19.034999999987512
21
62.749999999990827
31
0
0
LINE
5
113
100
AcDbEntity
8
0
100
AcDbLine
10
-16.525000002233384
20
59.749999997803187
30
0
11
-19.525000002242319
21
59.750000002261181
31
0
0
CIRCLE
5
114
100
AcDbEntity
8
0
100
AcDbCircle
10
16.034999999987512
20
61.249999999990841
30
0
40
1.4999999999999989
210
0
220
0
230
1
0
LINE
5
115
100
AcDbEntity
8
0
100
AcDbLine
10
16.034999999987512
20
61.249999999990841
30
0
11
19.034999999987512
21
61.249999999990834
31
0
0
CIRCLE
5
116
100
AcDbEntity
8
0
100
AcDbCircle
10
19.034999999987512
20
61.249999999990834
30
0
40
1.4999999999999978
210
0
220
0
230
1
0
LINE
5
117
100
AcDbEntity
8
0
100
AcDbLine
10
19.034999809865628
20
59.749999619734275
30
0
11
16.034999809868115
21
59.749999999998067
31
0
0
LINE
5
118
100
AcDbEntity
8
0
100
AcDbLine
10
-19.524999999999999
20
-61.250000000004391
30
0
11
-16.524999999999995
21
-61.250000000000526
31
0
0
CIRCLE
5
119
100
AcDbEntity
8
0
100
AcDbCircle
10
-19.524999999999999
20
-61.250000000004391
30
0
40
1.4999999999999989
210
0
220
0
230
1
0
CIRCLE
5
120
100
AcDbEntity
8
0
100
AcDbCircle
10
-16.524999999999995
20
-61.250000000000526
30
0
40
1.4999999999999978
210
0
220
0
230
1
0
LINE
5
121
100
AcDbEntity
8
0
100
AcDbLine
10
-19.525000000000027
20
-59.75000000000054
30
0
11
-16.525000000000016
21
-59.750000000000526
31
0
0
LINE
5
122
100
AcDbEntity
8
0
100
AcDbLine
10
16.034999999991097
20
-59.750000000002458
30
0
11
19.034999999991097
21
-59.750000000003354
31
0
0
LINE
5
123
100
AcDbEntity
8
0
100
AcDbLine
10
-16.52499999999424
20
-62.749999999993719
30
0
11
-19.524999999998379
21
-62.750000000004384
31
0
0
CIRCLE
5
124
100
AcDbEntity
8
0
100
AcDbCircle
10
16.034999999991097
20
-61.250000000002451
30
0
40
1.4999999999999989
210
0
220
0
230
1
0
LINE
5
125
100
AcDbEntity
8
0
100
AcDbLine
10
16.034999999991097
20
-61.250000000002451
30
0
11
19.034999999991097
21
-61.250000000003347
31
0
0
CIRCLE
5
126
100
AcDbEntity
8
0
100
AcDbCircle
10
19.034999999991097
20
-61.250000000003347
30
0
40
1.4999999999999978
210
0
220
0
230
1
0
LINE
5
127
100
AcDbEntity
8
0
100
AcDbLine
10
19.034999963266234
20
-62.750000073456647
30
0
11
16.034999963273087
21
-62.75000000000658
31
0
0
CIRCLE
5
128
100
AcDbEntity
8
0
100
AcDbCircle
10
-17.905000000000008
20
5.0800000000005339
30
0
40
2.75
210
0
220
0
230
1
0
LWPOLYLINE
5
129
100
AcDbEntity
8
0
100
AcDbPolyline
90
4
70
1
43
0.0
10
13.874999999991935
20
51.250000000001918
10
-14.125000000008068
20
51.250000000001918
10
-14.125000000003125
20
12.030000000011398
10
13.874999999996874
20
12.030000000002818
0
LINE
5
130
100
AcDbEntity
8
0
100
AcDbLine
10
24.774999999980139
20
-45.719999999999466
30
0
11
-25.02500000002356
21
-45.719999999999466
31
0
0
CIRCLE
5
131
100
AcDbEntity
8
0
100
AcDbCircle
10
-17.905000000011817
20
-45.720000000004717
30
0
40
3.1000000000000005
210
0
220
0
230
1
0
CIRCLE
5
132
100
AcDbEntity
8
0
100
AcDbCircle
10
-0.12500000000789099
20
-1.2699999999994638
30
0
40
3.6000000000000014
210
0
220
0
230
1
0
LINE
5
133
100
AcDbEntity
8
0
100
AcDbLine
10
-0.12500000000806644
20
51.250000000001926
30
0
11
-0.12500000000793543
21
12.030000000003923
31
0
0
LINE
5
134
100
AcDbEntity
8
0
100
AcDbLine
10
-14.125000000005596
20
31.640000000006658
30
0
11
13.874999999994404
21
31.640000000006658
31
0
0
CIRCLE
5
135
100
AcDbEntity
8
0
100
AcDbCircle
10
-6.0516666666784866
20
-45.720000000004717
30
0
40
3.1000000000000005
210
0
220
0
230
1
0
CIRCLE
5
136
100
AcDbEntity
8
0
100
AcDbCircle
10
5.8016666666548469
20
-45.720000000004717
30
0
40
3.1000000000000005
210
0
220
0
230
1
0
CIRCLE
5
137
100
AcDbEntity
8
0
100
AcDbCircle
10
17.654999999988181
20
-45.720000000004717
30
0
40
3.1000000000000005
210
0
220
0
230
1
0
CIRCLE
5
138
100
AcDbEntity
8
0
100
AcDbCircle
10
-17.905000000011817
20
-33.020000000004714
30
0
40
3.1000000000000005
210
0
220
0
230
1
0
CIRCLE
5
139
100
AcDbEntity
8
0
100
AcDbCircle
10
-6.0516666666784866
20
-33.020000000004714
30
0
40
3.1000000000000005
210
0
220
0
230
1
0
CIRCLE
5
140
100
AcDbEntity
8
0
100
AcDbCircle
10
5.8016666666548469
20
-33.020000000004714
30
0
40
3.1000000000000005
210
0
220
0
230
1
0
CIRCLE
5
141
100
AcDbEntity
8
0
100
AcDbCircle
10
17.654999999988181
20
-33.020000000004714
30
0
40
3.1000000000000005
210
0
220
0
230
1
0
CIRCLE
5
142
100
AcDbEntity
8
0
100
AcDbCircle
10
-17.905000000011817
20
-20.320000000004718
30
0
40
3.1000000000000005
210
0
220
0
230
1
0
CIRCLE
5
143
100
AcDbEntity
8
0
100
AcDbCircle
10
-6.0516666666784866
20
-20.320000000004718
30
0
40
3.1000000000000005
210
0
220
0
230
1
0
CIRCLE
5
144
100
AcDbEntity
8
0
100
AcDbCircle
10
5.8016666666548469
20
-20.320000000004718
30
0
40
3.1000000000000005
210
0
220
0
230
1
0
CIRCLE
5
145
100
AcDbEntity
8
0
100
AcDbCircle
10
17.654999999988181
20
-20.320000000004718
30
0
40
3.1000000000000005
210
0
220
0
230
1
0
LINE
5
146
100
AcDbEntity
8
0
100
AcDbLine
10
-25.025000000022363
20
5.0800000000005339
30
0
11
24.774999999977659
21
5.0800000000005339
31
0
0
CIRCLE
5
147
100
AcDbEntity
8
0
100
AcDbCircle
10
17.654999999988313
20
5.0799999999985621
30
0
40
2.75
210
0
220
0
230
1
0
LINE
5
148
100
AcDbEntity
8
0
100
AcDbLine
10
-0.12500000002469758
20
-64.250000000005954
30
0
11
-0.12500000002469758
21
64.249999999994046
31
0
0
CIRCLE
5
149
100
AcDbEntity
8
0
100
AcDbCircle
10
17.654999999988313
20
-7.6200000000014336
30
0
40
2.75
210
0
220
0
230
1
0
CIRCLE
5
150
100
AcDbEntity
8
0
100
AcDbCircle
10
-17.905000000000008
20
-7.6199999999994619
30
0
40
2.75
210
0
220
0
230
1
0
LINE
5
151
100
AcDbEntity
8
0
100
AcDbLine
10
-25.025000000020484
20
-7.6199999999994619
30
0
11
24.774999999978281
21
-7.6199999999994619
31
0
0
LINE
5
152
100
AcDbEntity
8
0
100
AcDbLine
10
17.654999999988181
20
-45.720000000004717
30
0
11
17.654999999988178
21
5.0800000000005339
31
0
0
LINE
5
153
100
AcDbEntity
8
0
100
AcDbLine
10
-17.905000000008911
20
-45.720000000004717
30
0
11
-17.905000000000008
21
5.0800000000005339
31
0
0
LINE
5
154
100
AcDbEntity
8
0
100
AcDbLine
10
-25.025000000024598
20
-15.570000000004715
30
0
11
24.774999999978668
21
-15.570000000007161
31
0
0
LINE
5
155
100
AcDbEntity
8
0
100
AcDbLine
10
17.654999999988181
20
-20.319999999993232
30
0
11
-17.905000000002236
21
-20.31999999999946
31
0
0
LINE
5
156
100
AcDbEntity
8
0
100
AcDbLine
10
-17.904999999998893
20
-1.2699999999994638
30
0
11
17.654999999988178
21
-1.2699999999994638
31
0
0
LINE
5
157
100
AcDbEntity
8
0
100
AcDbLine
10
-17.905000000000008
20
5.0800000000005339
30
0
11
-17.905000000002591
21
53.249999999999901
31
0
0
CIRCLE
5
158
100
AcDbEntity
8
0
100
AcDbCircle
10
-17.905000000000687
20
17.780000000000534
30
0
40
1.5000000000000013
210
0
220
0
230
1
0
ENDSEC
0
SECTION
2
OBJECTS
0
DICTIONARY
5
C
100
AcDbDictionary
3
ACAD_GROUP
350
D
3
ACAD_MLINESTYLE
350
17
0
DICTIONARY
5
D
100
AcDbDictionary
0
DICTIONARY
5
1A
330
C
100
AcDbDictionary
0
DICTIONARY
5
17
100
AcDbDictionary
0
ENDSEC
0
EOF
