G04 #@! TF.GenerationSoftware,KiCad,Pcbnew,(5.1.8)-1*
G04 #@! TF.CreationDate,2020-12-03T10:56:57+08:00*
G04 #@! TF.ProjectId,Waves,57617665-732e-46b6-9963-61645f706362,rev?*
G04 #@! TF.SameCoordinates,Original*
G04 #@! TF.FileFunction,Paste,Bot*
G04 #@! TF.FilePolarity,Positive*
%FSLAX46Y46*%
G04 Gerber Fmt 4.6, Leading zero omitted, Abs format (unit mm)*
G04 Created by KiCad (PCBNEW (5.1.8)-1) date 2020-12-03 10:56:57*
%MOMM*%
%LPD*%
G01*
G04 APERTURE LIST*
%ADD10C,0.100000*%
%ADD11R,2.200000X1.840000*%
%ADD12R,1.000000X1.500000*%
%ADD13R,1.000000X1.800000*%
%ADD14R,0.900000X0.800000*%
%ADD15R,1.300000X1.600000*%
%ADD16R,0.450000X1.450000*%
%ADD17R,1.450000X0.450000*%
%ADD18R,0.800000X0.900000*%
%ADD19R,1.500000X1.050000*%
%ADD20R,1.500000X2.400000*%
G04 APERTURE END LIST*
G36*
G01*
X129457000Y-94064500D02*
X129457000Y-93514500D01*
G75*
G02*
X129657000Y-93314500I200000J0D01*
G01*
X130057000Y-93314500D01*
G75*
G02*
X130257000Y-93514500I0J-200000D01*
G01*
X130257000Y-94064500D01*
G75*
G02*
X130057000Y-94264500I-200000J0D01*
G01*
X129657000Y-94264500D01*
G75*
G02*
X129457000Y-94064500I0J200000D01*
G01*
G37*
G36*
G01*
X127807000Y-94064500D02*
X127807000Y-93514500D01*
G75*
G02*
X128007000Y-93314500I200000J0D01*
G01*
X128407000Y-93314500D01*
G75*
G02*
X128607000Y-93514500I0J-200000D01*
G01*
X128607000Y-94064500D01*
G75*
G02*
X128407000Y-94264500I-200000J0D01*
G01*
X128007000Y-94264500D01*
G75*
G02*
X127807000Y-94064500I0J200000D01*
G01*
G37*
G36*
G01*
X125202500Y-112797000D02*
X125202500Y-112247000D01*
G75*
G02*
X125402500Y-112047000I200000J0D01*
G01*
X125802500Y-112047000D01*
G75*
G02*
X126002500Y-112247000I0J-200000D01*
G01*
X126002500Y-112797000D01*
G75*
G02*
X125802500Y-112997000I-200000J0D01*
G01*
X125402500Y-112997000D01*
G75*
G02*
X125202500Y-112797000I0J200000D01*
G01*
G37*
G36*
G01*
X123552500Y-112797000D02*
X123552500Y-112247000D01*
G75*
G02*
X123752500Y-112047000I200000J0D01*
G01*
X124152500Y-112047000D01*
G75*
G02*
X124352500Y-112247000I0J-200000D01*
G01*
X124352500Y-112797000D01*
G75*
G02*
X124152500Y-112997000I-200000J0D01*
G01*
X123752500Y-112997000D01*
G75*
G02*
X123552500Y-112797000I0J200000D01*
G01*
G37*
G36*
G01*
X129711000Y-107780500D02*
X129711000Y-107230500D01*
G75*
G02*
X129911000Y-107030500I200000J0D01*
G01*
X130311000Y-107030500D01*
G75*
G02*
X130511000Y-107230500I0J-200000D01*
G01*
X130511000Y-107780500D01*
G75*
G02*
X130311000Y-107980500I-200000J0D01*
G01*
X129911000Y-107980500D01*
G75*
G02*
X129711000Y-107780500I0J200000D01*
G01*
G37*
G36*
G01*
X128061000Y-107780500D02*
X128061000Y-107230500D01*
G75*
G02*
X128261000Y-107030500I200000J0D01*
G01*
X128661000Y-107030500D01*
G75*
G02*
X128861000Y-107230500I0J-200000D01*
G01*
X128861000Y-107780500D01*
G75*
G02*
X128661000Y-107980500I-200000J0D01*
G01*
X128261000Y-107980500D01*
G75*
G02*
X128061000Y-107780500I0J200000D01*
G01*
G37*
D10*
G36*
X147085000Y-78290800D02*
G01*
X147785000Y-79290800D01*
X145585000Y-79290800D01*
X146285000Y-78290800D01*
X147085000Y-78290800D01*
G37*
D11*
X146685000Y-80200500D03*
D12*
X148185000Y-77387000D03*
D13*
X146685000Y-77533500D03*
D12*
X145185000Y-77387000D03*
D10*
G36*
X146185000Y-81959000D02*
G01*
X145585000Y-81109000D01*
X147785000Y-81109000D01*
X147185000Y-81959000D01*
X146185000Y-81959000D01*
G37*
G36*
G01*
X141602750Y-103195000D02*
X142115250Y-103195000D01*
G75*
G02*
X142334000Y-103413750I0J-218750D01*
G01*
X142334000Y-103851250D01*
G75*
G02*
X142115250Y-104070000I-218750J0D01*
G01*
X141602750Y-104070000D01*
G75*
G02*
X141384000Y-103851250I0J218750D01*
G01*
X141384000Y-103413750D01*
G75*
G02*
X141602750Y-103195000I218750J0D01*
G01*
G37*
G36*
G01*
X141602750Y-101620000D02*
X142115250Y-101620000D01*
G75*
G02*
X142334000Y-101838750I0J-218750D01*
G01*
X142334000Y-102276250D01*
G75*
G02*
X142115250Y-102495000I-218750J0D01*
G01*
X141602750Y-102495000D01*
G75*
G02*
X141384000Y-102276250I0J218750D01*
G01*
X141384000Y-101838750D01*
G75*
G02*
X141602750Y-101620000I218750J0D01*
G01*
G37*
G36*
G01*
X148153000Y-90934250D02*
X148153000Y-90421750D01*
G75*
G02*
X148371750Y-90203000I218750J0D01*
G01*
X148809250Y-90203000D01*
G75*
G02*
X149028000Y-90421750I0J-218750D01*
G01*
X149028000Y-90934250D01*
G75*
G02*
X148809250Y-91153000I-218750J0D01*
G01*
X148371750Y-91153000D01*
G75*
G02*
X148153000Y-90934250I0J218750D01*
G01*
G37*
G36*
G01*
X146578000Y-90934250D02*
X146578000Y-90421750D01*
G75*
G02*
X146796750Y-90203000I218750J0D01*
G01*
X147234250Y-90203000D01*
G75*
G02*
X147453000Y-90421750I0J-218750D01*
G01*
X147453000Y-90934250D01*
G75*
G02*
X147234250Y-91153000I-218750J0D01*
G01*
X146796750Y-91153000D01*
G75*
G02*
X146578000Y-90934250I0J218750D01*
G01*
G37*
G36*
G01*
X144909250Y-102495000D02*
X144396750Y-102495000D01*
G75*
G02*
X144178000Y-102276250I0J218750D01*
G01*
X144178000Y-101838750D01*
G75*
G02*
X144396750Y-101620000I218750J0D01*
G01*
X144909250Y-101620000D01*
G75*
G02*
X145128000Y-101838750I0J-218750D01*
G01*
X145128000Y-102276250D01*
G75*
G02*
X144909250Y-102495000I-218750J0D01*
G01*
G37*
G36*
G01*
X144909250Y-104070000D02*
X144396750Y-104070000D01*
G75*
G02*
X144178000Y-103851250I0J218750D01*
G01*
X144178000Y-103413750D01*
G75*
G02*
X144396750Y-103195000I218750J0D01*
G01*
X144909250Y-103195000D01*
G75*
G02*
X145128000Y-103413750I0J-218750D01*
G01*
X145128000Y-103851250D01*
G75*
G02*
X144909250Y-104070000I-218750J0D01*
G01*
G37*
G36*
G01*
X106042750Y-103195000D02*
X106555250Y-103195000D01*
G75*
G02*
X106774000Y-103413750I0J-218750D01*
G01*
X106774000Y-103851250D01*
G75*
G02*
X106555250Y-104070000I-218750J0D01*
G01*
X106042750Y-104070000D01*
G75*
G02*
X105824000Y-103851250I0J218750D01*
G01*
X105824000Y-103413750D01*
G75*
G02*
X106042750Y-103195000I218750J0D01*
G01*
G37*
G36*
G01*
X106042750Y-101620000D02*
X106555250Y-101620000D01*
G75*
G02*
X106774000Y-101838750I0J-218750D01*
G01*
X106774000Y-102276250D01*
G75*
G02*
X106555250Y-102495000I-218750J0D01*
G01*
X106042750Y-102495000D01*
G75*
G02*
X105824000Y-102276250I0J218750D01*
G01*
X105824000Y-101838750D01*
G75*
G02*
X106042750Y-101620000I218750J0D01*
G01*
G37*
G36*
G01*
X106268000Y-90934250D02*
X106268000Y-90421750D01*
G75*
G02*
X106486750Y-90203000I218750J0D01*
G01*
X106924250Y-90203000D01*
G75*
G02*
X107143000Y-90421750I0J-218750D01*
G01*
X107143000Y-90934250D01*
G75*
G02*
X106924250Y-91153000I-218750J0D01*
G01*
X106486750Y-91153000D01*
G75*
G02*
X106268000Y-90934250I0J218750D01*
G01*
G37*
G36*
G01*
X104693000Y-90934250D02*
X104693000Y-90421750D01*
G75*
G02*
X104911750Y-90203000I218750J0D01*
G01*
X105349250Y-90203000D01*
G75*
G02*
X105568000Y-90421750I0J-218750D01*
G01*
X105568000Y-90934250D01*
G75*
G02*
X105349250Y-91153000I-218750J0D01*
G01*
X104911750Y-91153000D01*
G75*
G02*
X104693000Y-90934250I0J218750D01*
G01*
G37*
D14*
X145780000Y-109093000D03*
X143780000Y-108143000D03*
X143780000Y-110043000D03*
G36*
G01*
X147190750Y-103195000D02*
X147703250Y-103195000D01*
G75*
G02*
X147922000Y-103413750I0J-218750D01*
G01*
X147922000Y-103851250D01*
G75*
G02*
X147703250Y-104070000I-218750J0D01*
G01*
X147190750Y-104070000D01*
G75*
G02*
X146972000Y-103851250I0J218750D01*
G01*
X146972000Y-103413750D01*
G75*
G02*
X147190750Y-103195000I218750J0D01*
G01*
G37*
G36*
G01*
X147190750Y-101620000D02*
X147703250Y-101620000D01*
G75*
G02*
X147922000Y-101838750I0J-218750D01*
G01*
X147922000Y-102276250D01*
G75*
G02*
X147703250Y-102495000I-218750J0D01*
G01*
X147190750Y-102495000D01*
G75*
G02*
X146972000Y-102276250I0J218750D01*
G01*
X146972000Y-101838750D01*
G75*
G02*
X147190750Y-101620000I218750J0D01*
G01*
G37*
G36*
G01*
X109349250Y-102495000D02*
X108836750Y-102495000D01*
G75*
G02*
X108618000Y-102276250I0J218750D01*
G01*
X108618000Y-101838750D01*
G75*
G02*
X108836750Y-101620000I218750J0D01*
G01*
X109349250Y-101620000D01*
G75*
G02*
X109568000Y-101838750I0J-218750D01*
G01*
X109568000Y-102276250D01*
G75*
G02*
X109349250Y-102495000I-218750J0D01*
G01*
G37*
G36*
G01*
X109349250Y-104070000D02*
X108836750Y-104070000D01*
G75*
G02*
X108618000Y-103851250I0J218750D01*
G01*
X108618000Y-103413750D01*
G75*
G02*
X108836750Y-103195000I218750J0D01*
G01*
X109349250Y-103195000D01*
G75*
G02*
X109568000Y-103413750I0J-218750D01*
G01*
X109568000Y-103851250D01*
G75*
G02*
X109349250Y-104070000I-218750J0D01*
G01*
G37*
G36*
G01*
X109443000Y-82933250D02*
X109443000Y-82420750D01*
G75*
G02*
X109661750Y-82202000I218750J0D01*
G01*
X110099250Y-82202000D01*
G75*
G02*
X110318000Y-82420750I0J-218750D01*
G01*
X110318000Y-82933250D01*
G75*
G02*
X110099250Y-83152000I-218750J0D01*
G01*
X109661750Y-83152000D01*
G75*
G02*
X109443000Y-82933250I0J218750D01*
G01*
G37*
G36*
G01*
X107868000Y-82933250D02*
X107868000Y-82420750D01*
G75*
G02*
X108086750Y-82202000I218750J0D01*
G01*
X108524250Y-82202000D01*
G75*
G02*
X108743000Y-82420750I0J-218750D01*
G01*
X108743000Y-82933250D01*
G75*
G02*
X108524250Y-83152000I-218750J0D01*
G01*
X108086750Y-83152000D01*
G75*
G02*
X107868000Y-82933250I0J218750D01*
G01*
G37*
D15*
X117034000Y-89561400D03*
X117034000Y-92861400D03*
X119034000Y-92861400D03*
X119034000Y-89561400D03*
D16*
X136734000Y-137570000D03*
X137384000Y-137570000D03*
X138034000Y-137570000D03*
X138684000Y-137570000D03*
X139334000Y-137570000D03*
X139984000Y-137570000D03*
X140634000Y-137570000D03*
X140634000Y-131670000D03*
X139984000Y-131670000D03*
X139334000Y-131670000D03*
X138684000Y-131670000D03*
X138034000Y-131670000D03*
X137384000Y-131670000D03*
X136734000Y-131670000D03*
X113112000Y-137570000D03*
X113762000Y-137570000D03*
X114412000Y-137570000D03*
X115062000Y-137570000D03*
X115712000Y-137570000D03*
X116362000Y-137570000D03*
X117012000Y-137570000D03*
X117012000Y-131670000D03*
X116362000Y-131670000D03*
X115712000Y-131670000D03*
X115062000Y-131670000D03*
X114412000Y-131670000D03*
X113762000Y-131670000D03*
X113112000Y-131670000D03*
D17*
X129823000Y-149311000D03*
X129823000Y-148661000D03*
X129823000Y-148011000D03*
X129823000Y-147361000D03*
X123923000Y-147361000D03*
X123923000Y-148011000D03*
X123923000Y-148661000D03*
X123923000Y-149311000D03*
D16*
X129798000Y-117954000D03*
X129148000Y-117954000D03*
X128498000Y-117954000D03*
X127848000Y-117954000D03*
X127198000Y-117954000D03*
X126548000Y-117954000D03*
X125898000Y-117954000D03*
X125248000Y-117954000D03*
X124598000Y-117954000D03*
X123948000Y-117954000D03*
X123948000Y-123854000D03*
X124598000Y-123854000D03*
X125248000Y-123854000D03*
X125898000Y-123854000D03*
X126548000Y-123854000D03*
X127198000Y-123854000D03*
X127848000Y-123854000D03*
X128498000Y-123854000D03*
X129148000Y-123854000D03*
X129798000Y-123854000D03*
X125923000Y-62640000D03*
X126573000Y-62640000D03*
X127223000Y-62640000D03*
X127873000Y-62640000D03*
X127873000Y-56740000D03*
X127223000Y-56740000D03*
X126573000Y-56740000D03*
X125923000Y-56740000D03*
G36*
G01*
X128234180Y-86234400D02*
X127297264Y-85297484D01*
G75*
G02*
X127297264Y-85191418I53033J53033D01*
G01*
X127403330Y-85085352D01*
G75*
G02*
X127509396Y-85085352I53033J-53033D01*
G01*
X128446312Y-86022268D01*
G75*
G02*
X128446312Y-86128334I-53033J-53033D01*
G01*
X128340246Y-86234400D01*
G75*
G02*
X128234180Y-86234400I-53033J53033D01*
G01*
G37*
G36*
G01*
X128587734Y-85880846D02*
X127650818Y-84943930D01*
G75*
G02*
X127650818Y-84837864I53033J53033D01*
G01*
X127756884Y-84731798D01*
G75*
G02*
X127862950Y-84731798I53033J-53033D01*
G01*
X128799866Y-85668714D01*
G75*
G02*
X128799866Y-85774780I-53033J-53033D01*
G01*
X128693800Y-85880846D01*
G75*
G02*
X128587734Y-85880846I-53033J53033D01*
G01*
G37*
G36*
G01*
X128941287Y-85527293D02*
X128004371Y-84590377D01*
G75*
G02*
X128004371Y-84484311I53033J53033D01*
G01*
X128110437Y-84378245D01*
G75*
G02*
X128216503Y-84378245I53033J-53033D01*
G01*
X129153419Y-85315161D01*
G75*
G02*
X129153419Y-85421227I-53033J-53033D01*
G01*
X129047353Y-85527293D01*
G75*
G02*
X128941287Y-85527293I-53033J53033D01*
G01*
G37*
G36*
G01*
X129294841Y-85173739D02*
X128357925Y-84236823D01*
G75*
G02*
X128357925Y-84130757I53033J53033D01*
G01*
X128463991Y-84024691D01*
G75*
G02*
X128570057Y-84024691I53033J-53033D01*
G01*
X129506973Y-84961607D01*
G75*
G02*
X129506973Y-85067673I-53033J-53033D01*
G01*
X129400907Y-85173739D01*
G75*
G02*
X129294841Y-85173739I-53033J53033D01*
G01*
G37*
G36*
G01*
X129648394Y-84820186D02*
X128711478Y-83883270D01*
G75*
G02*
X128711478Y-83777204I53033J53033D01*
G01*
X128817544Y-83671138D01*
G75*
G02*
X128923610Y-83671138I53033J-53033D01*
G01*
X129860526Y-84608054D01*
G75*
G02*
X129860526Y-84714120I-53033J-53033D01*
G01*
X129754460Y-84820186D01*
G75*
G02*
X129648394Y-84820186I-53033J53033D01*
G01*
G37*
G36*
G01*
X130001947Y-84466633D02*
X129065031Y-83529717D01*
G75*
G02*
X129065031Y-83423651I53033J53033D01*
G01*
X129171097Y-83317585D01*
G75*
G02*
X129277163Y-83317585I53033J-53033D01*
G01*
X130214079Y-84254501D01*
G75*
G02*
X130214079Y-84360567I-53033J-53033D01*
G01*
X130108013Y-84466633D01*
G75*
G02*
X130001947Y-84466633I-53033J53033D01*
G01*
G37*
G36*
G01*
X130355501Y-84113079D02*
X129418585Y-83176163D01*
G75*
G02*
X129418585Y-83070097I53033J53033D01*
G01*
X129524651Y-82964031D01*
G75*
G02*
X129630717Y-82964031I53033J-53033D01*
G01*
X130567633Y-83900947D01*
G75*
G02*
X130567633Y-84007013I-53033J-53033D01*
G01*
X130461567Y-84113079D01*
G75*
G02*
X130355501Y-84113079I-53033J53033D01*
G01*
G37*
G36*
G01*
X130709054Y-83759526D02*
X129772138Y-82822610D01*
G75*
G02*
X129772138Y-82716544I53033J53033D01*
G01*
X129878204Y-82610478D01*
G75*
G02*
X129984270Y-82610478I53033J-53033D01*
G01*
X130921186Y-83547394D01*
G75*
G02*
X130921186Y-83653460I-53033J-53033D01*
G01*
X130815120Y-83759526D01*
G75*
G02*
X130709054Y-83759526I-53033J53033D01*
G01*
G37*
G36*
G01*
X131062607Y-83405973D02*
X130125691Y-82469057D01*
G75*
G02*
X130125691Y-82362991I53033J53033D01*
G01*
X130231757Y-82256925D01*
G75*
G02*
X130337823Y-82256925I53033J-53033D01*
G01*
X131274739Y-83193841D01*
G75*
G02*
X131274739Y-83299907I-53033J-53033D01*
G01*
X131168673Y-83405973D01*
G75*
G02*
X131062607Y-83405973I-53033J53033D01*
G01*
G37*
G36*
G01*
X131416161Y-83052419D02*
X130479245Y-82115503D01*
G75*
G02*
X130479245Y-82009437I53033J53033D01*
G01*
X130585311Y-81903371D01*
G75*
G02*
X130691377Y-81903371I53033J-53033D01*
G01*
X131628293Y-82840287D01*
G75*
G02*
X131628293Y-82946353I-53033J-53033D01*
G01*
X131522227Y-83052419D01*
G75*
G02*
X131416161Y-83052419I-53033J53033D01*
G01*
G37*
G36*
G01*
X131769714Y-82698866D02*
X130832798Y-81761950D01*
G75*
G02*
X130832798Y-81655884I53033J53033D01*
G01*
X130938864Y-81549818D01*
G75*
G02*
X131044930Y-81549818I53033J-53033D01*
G01*
X131981846Y-82486734D01*
G75*
G02*
X131981846Y-82592800I-53033J-53033D01*
G01*
X131875780Y-82698866D01*
G75*
G02*
X131769714Y-82698866I-53033J53033D01*
G01*
G37*
G36*
G01*
X132123268Y-82345312D02*
X131186352Y-81408396D01*
G75*
G02*
X131186352Y-81302330I53033J53033D01*
G01*
X131292418Y-81196264D01*
G75*
G02*
X131398484Y-81196264I53033J-53033D01*
G01*
X132335400Y-82133180D01*
G75*
G02*
X132335400Y-82239246I-53033J-53033D01*
G01*
X132229334Y-82345312D01*
G75*
G02*
X132123268Y-82345312I-53033J53033D01*
G01*
G37*
G36*
G01*
X131292418Y-80347736D02*
X131186352Y-80241670D01*
G75*
G02*
X131186352Y-80135604I53033J53033D01*
G01*
X132123268Y-79198688D01*
G75*
G02*
X132229334Y-79198688I53033J-53033D01*
G01*
X132335400Y-79304754D01*
G75*
G02*
X132335400Y-79410820I-53033J-53033D01*
G01*
X131398484Y-80347736D01*
G75*
G02*
X131292418Y-80347736I-53033J53033D01*
G01*
G37*
G36*
G01*
X130938864Y-79994182D02*
X130832798Y-79888116D01*
G75*
G02*
X130832798Y-79782050I53033J53033D01*
G01*
X131769714Y-78845134D01*
G75*
G02*
X131875780Y-78845134I53033J-53033D01*
G01*
X131981846Y-78951200D01*
G75*
G02*
X131981846Y-79057266I-53033J-53033D01*
G01*
X131044930Y-79994182D01*
G75*
G02*
X130938864Y-79994182I-53033J53033D01*
G01*
G37*
G36*
G01*
X130585311Y-79640629D02*
X130479245Y-79534563D01*
G75*
G02*
X130479245Y-79428497I53033J53033D01*
G01*
X131416161Y-78491581D01*
G75*
G02*
X131522227Y-78491581I53033J-53033D01*
G01*
X131628293Y-78597647D01*
G75*
G02*
X131628293Y-78703713I-53033J-53033D01*
G01*
X130691377Y-79640629D01*
G75*
G02*
X130585311Y-79640629I-53033J53033D01*
G01*
G37*
G36*
G01*
X130231757Y-79287075D02*
X130125691Y-79181009D01*
G75*
G02*
X130125691Y-79074943I53033J53033D01*
G01*
X131062607Y-78138027D01*
G75*
G02*
X131168673Y-78138027I53033J-53033D01*
G01*
X131274739Y-78244093D01*
G75*
G02*
X131274739Y-78350159I-53033J-53033D01*
G01*
X130337823Y-79287075D01*
G75*
G02*
X130231757Y-79287075I-53033J53033D01*
G01*
G37*
G36*
G01*
X129878204Y-78933522D02*
X129772138Y-78827456D01*
G75*
G02*
X129772138Y-78721390I53033J53033D01*
G01*
X130709054Y-77784474D01*
G75*
G02*
X130815120Y-77784474I53033J-53033D01*
G01*
X130921186Y-77890540D01*
G75*
G02*
X130921186Y-77996606I-53033J-53033D01*
G01*
X129984270Y-78933522D01*
G75*
G02*
X129878204Y-78933522I-53033J53033D01*
G01*
G37*
G36*
G01*
X129524651Y-78579969D02*
X129418585Y-78473903D01*
G75*
G02*
X129418585Y-78367837I53033J53033D01*
G01*
X130355501Y-77430921D01*
G75*
G02*
X130461567Y-77430921I53033J-53033D01*
G01*
X130567633Y-77536987D01*
G75*
G02*
X130567633Y-77643053I-53033J-53033D01*
G01*
X129630717Y-78579969D01*
G75*
G02*
X129524651Y-78579969I-53033J53033D01*
G01*
G37*
G36*
G01*
X129171097Y-78226415D02*
X129065031Y-78120349D01*
G75*
G02*
X129065031Y-78014283I53033J53033D01*
G01*
X130001947Y-77077367D01*
G75*
G02*
X130108013Y-77077367I53033J-53033D01*
G01*
X130214079Y-77183433D01*
G75*
G02*
X130214079Y-77289499I-53033J-53033D01*
G01*
X129277163Y-78226415D01*
G75*
G02*
X129171097Y-78226415I-53033J53033D01*
G01*
G37*
G36*
G01*
X128817544Y-77872862D02*
X128711478Y-77766796D01*
G75*
G02*
X128711478Y-77660730I53033J53033D01*
G01*
X129648394Y-76723814D01*
G75*
G02*
X129754460Y-76723814I53033J-53033D01*
G01*
X129860526Y-76829880D01*
G75*
G02*
X129860526Y-76935946I-53033J-53033D01*
G01*
X128923610Y-77872862D01*
G75*
G02*
X128817544Y-77872862I-53033J53033D01*
G01*
G37*
G36*
G01*
X128463991Y-77519309D02*
X128357925Y-77413243D01*
G75*
G02*
X128357925Y-77307177I53033J53033D01*
G01*
X129294841Y-76370261D01*
G75*
G02*
X129400907Y-76370261I53033J-53033D01*
G01*
X129506973Y-76476327D01*
G75*
G02*
X129506973Y-76582393I-53033J-53033D01*
G01*
X128570057Y-77519309D01*
G75*
G02*
X128463991Y-77519309I-53033J53033D01*
G01*
G37*
G36*
G01*
X128110437Y-77165755D02*
X128004371Y-77059689D01*
G75*
G02*
X128004371Y-76953623I53033J53033D01*
G01*
X128941287Y-76016707D01*
G75*
G02*
X129047353Y-76016707I53033J-53033D01*
G01*
X129153419Y-76122773D01*
G75*
G02*
X129153419Y-76228839I-53033J-53033D01*
G01*
X128216503Y-77165755D01*
G75*
G02*
X128110437Y-77165755I-53033J53033D01*
G01*
G37*
G36*
G01*
X127756884Y-76812202D02*
X127650818Y-76706136D01*
G75*
G02*
X127650818Y-76600070I53033J53033D01*
G01*
X128587734Y-75663154D01*
G75*
G02*
X128693800Y-75663154I53033J-53033D01*
G01*
X128799866Y-75769220D01*
G75*
G02*
X128799866Y-75875286I-53033J-53033D01*
G01*
X127862950Y-76812202D01*
G75*
G02*
X127756884Y-76812202I-53033J53033D01*
G01*
G37*
G36*
G01*
X127403330Y-76458648D02*
X127297264Y-76352582D01*
G75*
G02*
X127297264Y-76246516I53033J53033D01*
G01*
X128234180Y-75309600D01*
G75*
G02*
X128340246Y-75309600I53033J-53033D01*
G01*
X128446312Y-75415666D01*
G75*
G02*
X128446312Y-75521732I-53033J-53033D01*
G01*
X127509396Y-76458648D01*
G75*
G02*
X127403330Y-76458648I-53033J53033D01*
G01*
G37*
G36*
G01*
X126236604Y-76458648D02*
X125299688Y-75521732D01*
G75*
G02*
X125299688Y-75415666I53033J53033D01*
G01*
X125405754Y-75309600D01*
G75*
G02*
X125511820Y-75309600I53033J-53033D01*
G01*
X126448736Y-76246516D01*
G75*
G02*
X126448736Y-76352582I-53033J-53033D01*
G01*
X126342670Y-76458648D01*
G75*
G02*
X126236604Y-76458648I-53033J53033D01*
G01*
G37*
G36*
G01*
X125883050Y-76812202D02*
X124946134Y-75875286D01*
G75*
G02*
X124946134Y-75769220I53033J53033D01*
G01*
X125052200Y-75663154D01*
G75*
G02*
X125158266Y-75663154I53033J-53033D01*
G01*
X126095182Y-76600070D01*
G75*
G02*
X126095182Y-76706136I-53033J-53033D01*
G01*
X125989116Y-76812202D01*
G75*
G02*
X125883050Y-76812202I-53033J53033D01*
G01*
G37*
G36*
G01*
X125529497Y-77165755D02*
X124592581Y-76228839D01*
G75*
G02*
X124592581Y-76122773I53033J53033D01*
G01*
X124698647Y-76016707D01*
G75*
G02*
X124804713Y-76016707I53033J-53033D01*
G01*
X125741629Y-76953623D01*
G75*
G02*
X125741629Y-77059689I-53033J-53033D01*
G01*
X125635563Y-77165755D01*
G75*
G02*
X125529497Y-77165755I-53033J53033D01*
G01*
G37*
G36*
G01*
X125175943Y-77519309D02*
X124239027Y-76582393D01*
G75*
G02*
X124239027Y-76476327I53033J53033D01*
G01*
X124345093Y-76370261D01*
G75*
G02*
X124451159Y-76370261I53033J-53033D01*
G01*
X125388075Y-77307177D01*
G75*
G02*
X125388075Y-77413243I-53033J-53033D01*
G01*
X125282009Y-77519309D01*
G75*
G02*
X125175943Y-77519309I-53033J53033D01*
G01*
G37*
G36*
G01*
X124822390Y-77872862D02*
X123885474Y-76935946D01*
G75*
G02*
X123885474Y-76829880I53033J53033D01*
G01*
X123991540Y-76723814D01*
G75*
G02*
X124097606Y-76723814I53033J-53033D01*
G01*
X125034522Y-77660730D01*
G75*
G02*
X125034522Y-77766796I-53033J-53033D01*
G01*
X124928456Y-77872862D01*
G75*
G02*
X124822390Y-77872862I-53033J53033D01*
G01*
G37*
G36*
G01*
X124468837Y-78226415D02*
X123531921Y-77289499D01*
G75*
G02*
X123531921Y-77183433I53033J53033D01*
G01*
X123637987Y-77077367D01*
G75*
G02*
X123744053Y-77077367I53033J-53033D01*
G01*
X124680969Y-78014283D01*
G75*
G02*
X124680969Y-78120349I-53033J-53033D01*
G01*
X124574903Y-78226415D01*
G75*
G02*
X124468837Y-78226415I-53033J53033D01*
G01*
G37*
G36*
G01*
X124115283Y-78579969D02*
X123178367Y-77643053D01*
G75*
G02*
X123178367Y-77536987I53033J53033D01*
G01*
X123284433Y-77430921D01*
G75*
G02*
X123390499Y-77430921I53033J-53033D01*
G01*
X124327415Y-78367837D01*
G75*
G02*
X124327415Y-78473903I-53033J-53033D01*
G01*
X124221349Y-78579969D01*
G75*
G02*
X124115283Y-78579969I-53033J53033D01*
G01*
G37*
G36*
G01*
X123761730Y-78933522D02*
X122824814Y-77996606D01*
G75*
G02*
X122824814Y-77890540I53033J53033D01*
G01*
X122930880Y-77784474D01*
G75*
G02*
X123036946Y-77784474I53033J-53033D01*
G01*
X123973862Y-78721390D01*
G75*
G02*
X123973862Y-78827456I-53033J-53033D01*
G01*
X123867796Y-78933522D01*
G75*
G02*
X123761730Y-78933522I-53033J53033D01*
G01*
G37*
G36*
G01*
X123408177Y-79287075D02*
X122471261Y-78350159D01*
G75*
G02*
X122471261Y-78244093I53033J53033D01*
G01*
X122577327Y-78138027D01*
G75*
G02*
X122683393Y-78138027I53033J-53033D01*
G01*
X123620309Y-79074943D01*
G75*
G02*
X123620309Y-79181009I-53033J-53033D01*
G01*
X123514243Y-79287075D01*
G75*
G02*
X123408177Y-79287075I-53033J53033D01*
G01*
G37*
G36*
G01*
X123054623Y-79640629D02*
X122117707Y-78703713D01*
G75*
G02*
X122117707Y-78597647I53033J53033D01*
G01*
X122223773Y-78491581D01*
G75*
G02*
X122329839Y-78491581I53033J-53033D01*
G01*
X123266755Y-79428497D01*
G75*
G02*
X123266755Y-79534563I-53033J-53033D01*
G01*
X123160689Y-79640629D01*
G75*
G02*
X123054623Y-79640629I-53033J53033D01*
G01*
G37*
G36*
G01*
X122701070Y-79994182D02*
X121764154Y-79057266D01*
G75*
G02*
X121764154Y-78951200I53033J53033D01*
G01*
X121870220Y-78845134D01*
G75*
G02*
X121976286Y-78845134I53033J-53033D01*
G01*
X122913202Y-79782050D01*
G75*
G02*
X122913202Y-79888116I-53033J-53033D01*
G01*
X122807136Y-79994182D01*
G75*
G02*
X122701070Y-79994182I-53033J53033D01*
G01*
G37*
G36*
G01*
X122347516Y-80347736D02*
X121410600Y-79410820D01*
G75*
G02*
X121410600Y-79304754I53033J53033D01*
G01*
X121516666Y-79198688D01*
G75*
G02*
X121622732Y-79198688I53033J-53033D01*
G01*
X122559648Y-80135604D01*
G75*
G02*
X122559648Y-80241670I-53033J-53033D01*
G01*
X122453582Y-80347736D01*
G75*
G02*
X122347516Y-80347736I-53033J53033D01*
G01*
G37*
G36*
G01*
X121516666Y-82345312D02*
X121410600Y-82239246D01*
G75*
G02*
X121410600Y-82133180I53033J53033D01*
G01*
X122347516Y-81196264D01*
G75*
G02*
X122453582Y-81196264I53033J-53033D01*
G01*
X122559648Y-81302330D01*
G75*
G02*
X122559648Y-81408396I-53033J-53033D01*
G01*
X121622732Y-82345312D01*
G75*
G02*
X121516666Y-82345312I-53033J53033D01*
G01*
G37*
G36*
G01*
X121870220Y-82698866D02*
X121764154Y-82592800D01*
G75*
G02*
X121764154Y-82486734I53033J53033D01*
G01*
X122701070Y-81549818D01*
G75*
G02*
X122807136Y-81549818I53033J-53033D01*
G01*
X122913202Y-81655884D01*
G75*
G02*
X122913202Y-81761950I-53033J-53033D01*
G01*
X121976286Y-82698866D01*
G75*
G02*
X121870220Y-82698866I-53033J53033D01*
G01*
G37*
G36*
G01*
X122223773Y-83052419D02*
X122117707Y-82946353D01*
G75*
G02*
X122117707Y-82840287I53033J53033D01*
G01*
X123054623Y-81903371D01*
G75*
G02*
X123160689Y-81903371I53033J-53033D01*
G01*
X123266755Y-82009437D01*
G75*
G02*
X123266755Y-82115503I-53033J-53033D01*
G01*
X122329839Y-83052419D01*
G75*
G02*
X122223773Y-83052419I-53033J53033D01*
G01*
G37*
G36*
G01*
X122577327Y-83405973D02*
X122471261Y-83299907D01*
G75*
G02*
X122471261Y-83193841I53033J53033D01*
G01*
X123408177Y-82256925D01*
G75*
G02*
X123514243Y-82256925I53033J-53033D01*
G01*
X123620309Y-82362991D01*
G75*
G02*
X123620309Y-82469057I-53033J-53033D01*
G01*
X122683393Y-83405973D01*
G75*
G02*
X122577327Y-83405973I-53033J53033D01*
G01*
G37*
G36*
G01*
X122930880Y-83759526D02*
X122824814Y-83653460D01*
G75*
G02*
X122824814Y-83547394I53033J53033D01*
G01*
X123761730Y-82610478D01*
G75*
G02*
X123867796Y-82610478I53033J-53033D01*
G01*
X123973862Y-82716544D01*
G75*
G02*
X123973862Y-82822610I-53033J-53033D01*
G01*
X123036946Y-83759526D01*
G75*
G02*
X122930880Y-83759526I-53033J53033D01*
G01*
G37*
G36*
G01*
X123284433Y-84113079D02*
X123178367Y-84007013D01*
G75*
G02*
X123178367Y-83900947I53033J53033D01*
G01*
X124115283Y-82964031D01*
G75*
G02*
X124221349Y-82964031I53033J-53033D01*
G01*
X124327415Y-83070097D01*
G75*
G02*
X124327415Y-83176163I-53033J-53033D01*
G01*
X123390499Y-84113079D01*
G75*
G02*
X123284433Y-84113079I-53033J53033D01*
G01*
G37*
G36*
G01*
X123637987Y-84466633D02*
X123531921Y-84360567D01*
G75*
G02*
X123531921Y-84254501I53033J53033D01*
G01*
X124468837Y-83317585D01*
G75*
G02*
X124574903Y-83317585I53033J-53033D01*
G01*
X124680969Y-83423651D01*
G75*
G02*
X124680969Y-83529717I-53033J-53033D01*
G01*
X123744053Y-84466633D01*
G75*
G02*
X123637987Y-84466633I-53033J53033D01*
G01*
G37*
G36*
G01*
X123991540Y-84820186D02*
X123885474Y-84714120D01*
G75*
G02*
X123885474Y-84608054I53033J53033D01*
G01*
X124822390Y-83671138D01*
G75*
G02*
X124928456Y-83671138I53033J-53033D01*
G01*
X125034522Y-83777204D01*
G75*
G02*
X125034522Y-83883270I-53033J-53033D01*
G01*
X124097606Y-84820186D01*
G75*
G02*
X123991540Y-84820186I-53033J53033D01*
G01*
G37*
G36*
G01*
X124345093Y-85173739D02*
X124239027Y-85067673D01*
G75*
G02*
X124239027Y-84961607I53033J53033D01*
G01*
X125175943Y-84024691D01*
G75*
G02*
X125282009Y-84024691I53033J-53033D01*
G01*
X125388075Y-84130757D01*
G75*
G02*
X125388075Y-84236823I-53033J-53033D01*
G01*
X124451159Y-85173739D01*
G75*
G02*
X124345093Y-85173739I-53033J53033D01*
G01*
G37*
G36*
G01*
X124698647Y-85527293D02*
X124592581Y-85421227D01*
G75*
G02*
X124592581Y-85315161I53033J53033D01*
G01*
X125529497Y-84378245D01*
G75*
G02*
X125635563Y-84378245I53033J-53033D01*
G01*
X125741629Y-84484311D01*
G75*
G02*
X125741629Y-84590377I-53033J-53033D01*
G01*
X124804713Y-85527293D01*
G75*
G02*
X124698647Y-85527293I-53033J53033D01*
G01*
G37*
G36*
G01*
X125052200Y-85880846D02*
X124946134Y-85774780D01*
G75*
G02*
X124946134Y-85668714I53033J53033D01*
G01*
X125883050Y-84731798D01*
G75*
G02*
X125989116Y-84731798I53033J-53033D01*
G01*
X126095182Y-84837864D01*
G75*
G02*
X126095182Y-84943930I-53033J-53033D01*
G01*
X125158266Y-85880846D01*
G75*
G02*
X125052200Y-85880846I-53033J53033D01*
G01*
G37*
G36*
G01*
X125405754Y-86234400D02*
X125299688Y-86128334D01*
G75*
G02*
X125299688Y-86022268I53033J53033D01*
G01*
X126236604Y-85085352D01*
G75*
G02*
X126342670Y-85085352I53033J-53033D01*
G01*
X126448736Y-85191418D01*
G75*
G02*
X126448736Y-85297484I-53033J-53033D01*
G01*
X125511820Y-86234400D01*
G75*
G02*
X125405754Y-86234400I-53033J53033D01*
G01*
G37*
G36*
G01*
X136773000Y-140947250D02*
X136773000Y-140434750D01*
G75*
G02*
X136991750Y-140216000I218750J0D01*
G01*
X137429250Y-140216000D01*
G75*
G02*
X137648000Y-140434750I0J-218750D01*
G01*
X137648000Y-140947250D01*
G75*
G02*
X137429250Y-141166000I-218750J0D01*
G01*
X136991750Y-141166000D01*
G75*
G02*
X136773000Y-140947250I0J218750D01*
G01*
G37*
G36*
G01*
X135198000Y-140947250D02*
X135198000Y-140434750D01*
G75*
G02*
X135416750Y-140216000I218750J0D01*
G01*
X135854250Y-140216000D01*
G75*
G02*
X136073000Y-140434750I0J-218750D01*
G01*
X136073000Y-140947250D01*
G75*
G02*
X135854250Y-141166000I-218750J0D01*
G01*
X135416750Y-141166000D01*
G75*
G02*
X135198000Y-140947250I0J218750D01*
G01*
G37*
G36*
G01*
X140442000Y-140434750D02*
X140442000Y-140947250D01*
G75*
G02*
X140223250Y-141166000I-218750J0D01*
G01*
X139785750Y-141166000D01*
G75*
G02*
X139567000Y-140947250I0J218750D01*
G01*
X139567000Y-140434750D01*
G75*
G02*
X139785750Y-140216000I218750J0D01*
G01*
X140223250Y-140216000D01*
G75*
G02*
X140442000Y-140434750I0J-218750D01*
G01*
G37*
G36*
G01*
X142017000Y-140434750D02*
X142017000Y-140947250D01*
G75*
G02*
X141798250Y-141166000I-218750J0D01*
G01*
X141360750Y-141166000D01*
G75*
G02*
X141142000Y-140947250I0J218750D01*
G01*
X141142000Y-140434750D01*
G75*
G02*
X141360750Y-140216000I218750J0D01*
G01*
X141798250Y-140216000D01*
G75*
G02*
X142017000Y-140434750I0J-218750D01*
G01*
G37*
G36*
G01*
X136073000Y-148841750D02*
X136073000Y-149354250D01*
G75*
G02*
X135854250Y-149573000I-218750J0D01*
G01*
X135416750Y-149573000D01*
G75*
G02*
X135198000Y-149354250I0J218750D01*
G01*
X135198000Y-148841750D01*
G75*
G02*
X135416750Y-148623000I218750J0D01*
G01*
X135854250Y-148623000D01*
G75*
G02*
X136073000Y-148841750I0J-218750D01*
G01*
G37*
G36*
G01*
X137648000Y-148841750D02*
X137648000Y-149354250D01*
G75*
G02*
X137429250Y-149573000I-218750J0D01*
G01*
X136991750Y-149573000D01*
G75*
G02*
X136773000Y-149354250I0J218750D01*
G01*
X136773000Y-148841750D01*
G75*
G02*
X136991750Y-148623000I218750J0D01*
G01*
X137429250Y-148623000D01*
G75*
G02*
X137648000Y-148841750I0J-218750D01*
G01*
G37*
G36*
G01*
X136073000Y-146047750D02*
X136073000Y-146560250D01*
G75*
G02*
X135854250Y-146779000I-218750J0D01*
G01*
X135416750Y-146779000D01*
G75*
G02*
X135198000Y-146560250I0J218750D01*
G01*
X135198000Y-146047750D01*
G75*
G02*
X135416750Y-145829000I218750J0D01*
G01*
X135854250Y-145829000D01*
G75*
G02*
X136073000Y-146047750I0J-218750D01*
G01*
G37*
G36*
G01*
X137648000Y-146047750D02*
X137648000Y-146560250D01*
G75*
G02*
X137429250Y-146779000I-218750J0D01*
G01*
X136991750Y-146779000D01*
G75*
G02*
X136773000Y-146560250I0J218750D01*
G01*
X136773000Y-146047750D01*
G75*
G02*
X136991750Y-145829000I218750J0D01*
G01*
X137429250Y-145829000D01*
G75*
G02*
X137648000Y-146047750I0J-218750D01*
G01*
G37*
G36*
G01*
X141142000Y-149354250D02*
X141142000Y-148841750D01*
G75*
G02*
X141360750Y-148623000I218750J0D01*
G01*
X141798250Y-148623000D01*
G75*
G02*
X142017000Y-148841750I0J-218750D01*
G01*
X142017000Y-149354250D01*
G75*
G02*
X141798250Y-149573000I-218750J0D01*
G01*
X141360750Y-149573000D01*
G75*
G02*
X141142000Y-149354250I0J218750D01*
G01*
G37*
G36*
G01*
X139567000Y-149354250D02*
X139567000Y-148841750D01*
G75*
G02*
X139785750Y-148623000I218750J0D01*
G01*
X140223250Y-148623000D01*
G75*
G02*
X140442000Y-148841750I0J-218750D01*
G01*
X140442000Y-149354250D01*
G75*
G02*
X140223250Y-149573000I-218750J0D01*
G01*
X139785750Y-149573000D01*
G75*
G02*
X139567000Y-149354250I0J218750D01*
G01*
G37*
G36*
G01*
X141142000Y-146560250D02*
X141142000Y-146047750D01*
G75*
G02*
X141360750Y-145829000I218750J0D01*
G01*
X141798250Y-145829000D01*
G75*
G02*
X142017000Y-146047750I0J-218750D01*
G01*
X142017000Y-146560250D01*
G75*
G02*
X141798250Y-146779000I-218750J0D01*
G01*
X141360750Y-146779000D01*
G75*
G02*
X141142000Y-146560250I0J218750D01*
G01*
G37*
G36*
G01*
X139567000Y-146560250D02*
X139567000Y-146047750D01*
G75*
G02*
X139785750Y-145829000I218750J0D01*
G01*
X140223250Y-145829000D01*
G75*
G02*
X140442000Y-146047750I0J-218750D01*
G01*
X140442000Y-146560250D01*
G75*
G02*
X140223250Y-146779000I-218750J0D01*
G01*
X139785750Y-146779000D01*
G75*
G02*
X139567000Y-146560250I0J218750D01*
G01*
G37*
G36*
G01*
X140442000Y-128394750D02*
X140442000Y-128907250D01*
G75*
G02*
X140223250Y-129126000I-218750J0D01*
G01*
X139785750Y-129126000D01*
G75*
G02*
X139567000Y-128907250I0J218750D01*
G01*
X139567000Y-128394750D01*
G75*
G02*
X139785750Y-128176000I218750J0D01*
G01*
X140223250Y-128176000D01*
G75*
G02*
X140442000Y-128394750I0J-218750D01*
G01*
G37*
G36*
G01*
X142017000Y-128394750D02*
X142017000Y-128907250D01*
G75*
G02*
X141798250Y-129126000I-218750J0D01*
G01*
X141360750Y-129126000D01*
G75*
G02*
X141142000Y-128907250I0J218750D01*
G01*
X141142000Y-128394750D01*
G75*
G02*
X141360750Y-128176000I218750J0D01*
G01*
X141798250Y-128176000D01*
G75*
G02*
X142017000Y-128394750I0J-218750D01*
G01*
G37*
G36*
G01*
X136773000Y-128907250D02*
X136773000Y-128394750D01*
G75*
G02*
X136991750Y-128176000I218750J0D01*
G01*
X137429250Y-128176000D01*
G75*
G02*
X137648000Y-128394750I0J-218750D01*
G01*
X137648000Y-128907250D01*
G75*
G02*
X137429250Y-129126000I-218750J0D01*
G01*
X136991750Y-129126000D01*
G75*
G02*
X136773000Y-128907250I0J218750D01*
G01*
G37*
G36*
G01*
X135198000Y-128907250D02*
X135198000Y-128394750D01*
G75*
G02*
X135416750Y-128176000I218750J0D01*
G01*
X135854250Y-128176000D01*
G75*
G02*
X136073000Y-128394750I0J-218750D01*
G01*
X136073000Y-128907250D01*
G75*
G02*
X135854250Y-129126000I-218750J0D01*
G01*
X135416750Y-129126000D01*
G75*
G02*
X135198000Y-128907250I0J218750D01*
G01*
G37*
G36*
G01*
X141142000Y-120652250D02*
X141142000Y-120139750D01*
G75*
G02*
X141360750Y-119921000I218750J0D01*
G01*
X141798250Y-119921000D01*
G75*
G02*
X142017000Y-120139750I0J-218750D01*
G01*
X142017000Y-120652250D01*
G75*
G02*
X141798250Y-120871000I-218750J0D01*
G01*
X141360750Y-120871000D01*
G75*
G02*
X141142000Y-120652250I0J218750D01*
G01*
G37*
G36*
G01*
X139567000Y-120652250D02*
X139567000Y-120139750D01*
G75*
G02*
X139785750Y-119921000I218750J0D01*
G01*
X140223250Y-119921000D01*
G75*
G02*
X140442000Y-120139750I0J-218750D01*
G01*
X140442000Y-120652250D01*
G75*
G02*
X140223250Y-120871000I-218750J0D01*
G01*
X139785750Y-120871000D01*
G75*
G02*
X139567000Y-120652250I0J218750D01*
G01*
G37*
G36*
G01*
X141142000Y-123446250D02*
X141142000Y-122933750D01*
G75*
G02*
X141360750Y-122715000I218750J0D01*
G01*
X141798250Y-122715000D01*
G75*
G02*
X142017000Y-122933750I0J-218750D01*
G01*
X142017000Y-123446250D01*
G75*
G02*
X141798250Y-123665000I-218750J0D01*
G01*
X141360750Y-123665000D01*
G75*
G02*
X141142000Y-123446250I0J218750D01*
G01*
G37*
G36*
G01*
X139567000Y-123446250D02*
X139567000Y-122933750D01*
G75*
G02*
X139785750Y-122715000I218750J0D01*
G01*
X140223250Y-122715000D01*
G75*
G02*
X140442000Y-122933750I0J-218750D01*
G01*
X140442000Y-123446250D01*
G75*
G02*
X140223250Y-123665000I-218750J0D01*
G01*
X139785750Y-123665000D01*
G75*
G02*
X139567000Y-123446250I0J218750D01*
G01*
G37*
G36*
G01*
X136073000Y-120139750D02*
X136073000Y-120652250D01*
G75*
G02*
X135854250Y-120871000I-218750J0D01*
G01*
X135416750Y-120871000D01*
G75*
G02*
X135198000Y-120652250I0J218750D01*
G01*
X135198000Y-120139750D01*
G75*
G02*
X135416750Y-119921000I218750J0D01*
G01*
X135854250Y-119921000D01*
G75*
G02*
X136073000Y-120139750I0J-218750D01*
G01*
G37*
G36*
G01*
X137648000Y-120139750D02*
X137648000Y-120652250D01*
G75*
G02*
X137429250Y-120871000I-218750J0D01*
G01*
X136991750Y-120871000D01*
G75*
G02*
X136773000Y-120652250I0J218750D01*
G01*
X136773000Y-120139750D01*
G75*
G02*
X136991750Y-119921000I218750J0D01*
G01*
X137429250Y-119921000D01*
G75*
G02*
X137648000Y-120139750I0J-218750D01*
G01*
G37*
G36*
G01*
X136073000Y-122933750D02*
X136073000Y-123446250D01*
G75*
G02*
X135854250Y-123665000I-218750J0D01*
G01*
X135416750Y-123665000D01*
G75*
G02*
X135198000Y-123446250I0J218750D01*
G01*
X135198000Y-122933750D01*
G75*
G02*
X135416750Y-122715000I218750J0D01*
G01*
X135854250Y-122715000D01*
G75*
G02*
X136073000Y-122933750I0J-218750D01*
G01*
G37*
G36*
G01*
X137648000Y-122933750D02*
X137648000Y-123446250D01*
G75*
G02*
X137429250Y-123665000I-218750J0D01*
G01*
X136991750Y-123665000D01*
G75*
G02*
X136773000Y-123446250I0J218750D01*
G01*
X136773000Y-122933750D01*
G75*
G02*
X136991750Y-122715000I218750J0D01*
G01*
X137429250Y-122715000D01*
G75*
G02*
X137648000Y-122933750I0J-218750D01*
G01*
G37*
G36*
G01*
X113304000Y-140947250D02*
X113304000Y-140434750D01*
G75*
G02*
X113522750Y-140216000I218750J0D01*
G01*
X113960250Y-140216000D01*
G75*
G02*
X114179000Y-140434750I0J-218750D01*
G01*
X114179000Y-140947250D01*
G75*
G02*
X113960250Y-141166000I-218750J0D01*
G01*
X113522750Y-141166000D01*
G75*
G02*
X113304000Y-140947250I0J218750D01*
G01*
G37*
G36*
G01*
X111729000Y-140947250D02*
X111729000Y-140434750D01*
G75*
G02*
X111947750Y-140216000I218750J0D01*
G01*
X112385250Y-140216000D01*
G75*
G02*
X112604000Y-140434750I0J-218750D01*
G01*
X112604000Y-140947250D01*
G75*
G02*
X112385250Y-141166000I-218750J0D01*
G01*
X111947750Y-141166000D01*
G75*
G02*
X111729000Y-140947250I0J218750D01*
G01*
G37*
G36*
G01*
X116922000Y-140434750D02*
X116922000Y-140947250D01*
G75*
G02*
X116703250Y-141166000I-218750J0D01*
G01*
X116265750Y-141166000D01*
G75*
G02*
X116047000Y-140947250I0J218750D01*
G01*
X116047000Y-140434750D01*
G75*
G02*
X116265750Y-140216000I218750J0D01*
G01*
X116703250Y-140216000D01*
G75*
G02*
X116922000Y-140434750I0J-218750D01*
G01*
G37*
G36*
G01*
X118497000Y-140434750D02*
X118497000Y-140947250D01*
G75*
G02*
X118278250Y-141166000I-218750J0D01*
G01*
X117840750Y-141166000D01*
G75*
G02*
X117622000Y-140947250I0J218750D01*
G01*
X117622000Y-140434750D01*
G75*
G02*
X117840750Y-140216000I218750J0D01*
G01*
X118278250Y-140216000D01*
G75*
G02*
X118497000Y-140434750I0J-218750D01*
G01*
G37*
G36*
G01*
X112604000Y-148841750D02*
X112604000Y-149354250D01*
G75*
G02*
X112385250Y-149573000I-218750J0D01*
G01*
X111947750Y-149573000D01*
G75*
G02*
X111729000Y-149354250I0J218750D01*
G01*
X111729000Y-148841750D01*
G75*
G02*
X111947750Y-148623000I218750J0D01*
G01*
X112385250Y-148623000D01*
G75*
G02*
X112604000Y-148841750I0J-218750D01*
G01*
G37*
G36*
G01*
X114179000Y-148841750D02*
X114179000Y-149354250D01*
G75*
G02*
X113960250Y-149573000I-218750J0D01*
G01*
X113522750Y-149573000D01*
G75*
G02*
X113304000Y-149354250I0J218750D01*
G01*
X113304000Y-148841750D01*
G75*
G02*
X113522750Y-148623000I218750J0D01*
G01*
X113960250Y-148623000D01*
G75*
G02*
X114179000Y-148841750I0J-218750D01*
G01*
G37*
G36*
G01*
X113304000Y-146560250D02*
X113304000Y-146047750D01*
G75*
G02*
X113522750Y-145829000I218750J0D01*
G01*
X113960250Y-145829000D01*
G75*
G02*
X114179000Y-146047750I0J-218750D01*
G01*
X114179000Y-146560250D01*
G75*
G02*
X113960250Y-146779000I-218750J0D01*
G01*
X113522750Y-146779000D01*
G75*
G02*
X113304000Y-146560250I0J218750D01*
G01*
G37*
G36*
G01*
X111729000Y-146560250D02*
X111729000Y-146047750D01*
G75*
G02*
X111947750Y-145829000I218750J0D01*
G01*
X112385250Y-145829000D01*
G75*
G02*
X112604000Y-146047750I0J-218750D01*
G01*
X112604000Y-146560250D01*
G75*
G02*
X112385250Y-146779000I-218750J0D01*
G01*
X111947750Y-146779000D01*
G75*
G02*
X111729000Y-146560250I0J218750D01*
G01*
G37*
G36*
G01*
X117622000Y-149379250D02*
X117622000Y-148866750D01*
G75*
G02*
X117840750Y-148648000I218750J0D01*
G01*
X118278250Y-148648000D01*
G75*
G02*
X118497000Y-148866750I0J-218750D01*
G01*
X118497000Y-149379250D01*
G75*
G02*
X118278250Y-149598000I-218750J0D01*
G01*
X117840750Y-149598000D01*
G75*
G02*
X117622000Y-149379250I0J218750D01*
G01*
G37*
G36*
G01*
X116047000Y-149379250D02*
X116047000Y-148866750D01*
G75*
G02*
X116265750Y-148648000I218750J0D01*
G01*
X116703250Y-148648000D01*
G75*
G02*
X116922000Y-148866750I0J-218750D01*
G01*
X116922000Y-149379250D01*
G75*
G02*
X116703250Y-149598000I-218750J0D01*
G01*
X116265750Y-149598000D01*
G75*
G02*
X116047000Y-149379250I0J218750D01*
G01*
G37*
G36*
G01*
X116922000Y-146047750D02*
X116922000Y-146560250D01*
G75*
G02*
X116703250Y-146779000I-218750J0D01*
G01*
X116265750Y-146779000D01*
G75*
G02*
X116047000Y-146560250I0J218750D01*
G01*
X116047000Y-146047750D01*
G75*
G02*
X116265750Y-145829000I218750J0D01*
G01*
X116703250Y-145829000D01*
G75*
G02*
X116922000Y-146047750I0J-218750D01*
G01*
G37*
G36*
G01*
X118497000Y-146047750D02*
X118497000Y-146560250D01*
G75*
G02*
X118278250Y-146779000I-218750J0D01*
G01*
X117840750Y-146779000D01*
G75*
G02*
X117622000Y-146560250I0J218750D01*
G01*
X117622000Y-146047750D01*
G75*
G02*
X117840750Y-145829000I218750J0D01*
G01*
X118278250Y-145829000D01*
G75*
G02*
X118497000Y-146047750I0J-218750D01*
G01*
G37*
G36*
G01*
X116922000Y-128470750D02*
X116922000Y-128983250D01*
G75*
G02*
X116703250Y-129202000I-218750J0D01*
G01*
X116265750Y-129202000D01*
G75*
G02*
X116047000Y-128983250I0J218750D01*
G01*
X116047000Y-128470750D01*
G75*
G02*
X116265750Y-128252000I218750J0D01*
G01*
X116703250Y-128252000D01*
G75*
G02*
X116922000Y-128470750I0J-218750D01*
G01*
G37*
G36*
G01*
X118497000Y-128470750D02*
X118497000Y-128983250D01*
G75*
G02*
X118278250Y-129202000I-218750J0D01*
G01*
X117840750Y-129202000D01*
G75*
G02*
X117622000Y-128983250I0J218750D01*
G01*
X117622000Y-128470750D01*
G75*
G02*
X117840750Y-128252000I218750J0D01*
G01*
X118278250Y-128252000D01*
G75*
G02*
X118497000Y-128470750I0J-218750D01*
G01*
G37*
G36*
G01*
X113304000Y-128907250D02*
X113304000Y-128394750D01*
G75*
G02*
X113522750Y-128176000I218750J0D01*
G01*
X113960250Y-128176000D01*
G75*
G02*
X114179000Y-128394750I0J-218750D01*
G01*
X114179000Y-128907250D01*
G75*
G02*
X113960250Y-129126000I-218750J0D01*
G01*
X113522750Y-129126000D01*
G75*
G02*
X113304000Y-128907250I0J218750D01*
G01*
G37*
G36*
G01*
X111729000Y-128907250D02*
X111729000Y-128394750D01*
G75*
G02*
X111947750Y-128176000I218750J0D01*
G01*
X112385250Y-128176000D01*
G75*
G02*
X112604000Y-128394750I0J-218750D01*
G01*
X112604000Y-128907250D01*
G75*
G02*
X112385250Y-129126000I-218750J0D01*
G01*
X111947750Y-129126000D01*
G75*
G02*
X111729000Y-128907250I0J218750D01*
G01*
G37*
G36*
G01*
X117622000Y-120652250D02*
X117622000Y-120139750D01*
G75*
G02*
X117840750Y-119921000I218750J0D01*
G01*
X118278250Y-119921000D01*
G75*
G02*
X118497000Y-120139750I0J-218750D01*
G01*
X118497000Y-120652250D01*
G75*
G02*
X118278250Y-120871000I-218750J0D01*
G01*
X117840750Y-120871000D01*
G75*
G02*
X117622000Y-120652250I0J218750D01*
G01*
G37*
G36*
G01*
X116047000Y-120652250D02*
X116047000Y-120139750D01*
G75*
G02*
X116265750Y-119921000I218750J0D01*
G01*
X116703250Y-119921000D01*
G75*
G02*
X116922000Y-120139750I0J-218750D01*
G01*
X116922000Y-120652250D01*
G75*
G02*
X116703250Y-120871000I-218750J0D01*
G01*
X116265750Y-120871000D01*
G75*
G02*
X116047000Y-120652250I0J218750D01*
G01*
G37*
G36*
G01*
X117622000Y-123446250D02*
X117622000Y-122933750D01*
G75*
G02*
X117840750Y-122715000I218750J0D01*
G01*
X118278250Y-122715000D01*
G75*
G02*
X118497000Y-122933750I0J-218750D01*
G01*
X118497000Y-123446250D01*
G75*
G02*
X118278250Y-123665000I-218750J0D01*
G01*
X117840750Y-123665000D01*
G75*
G02*
X117622000Y-123446250I0J218750D01*
G01*
G37*
G36*
G01*
X116047000Y-123446250D02*
X116047000Y-122933750D01*
G75*
G02*
X116265750Y-122715000I218750J0D01*
G01*
X116703250Y-122715000D01*
G75*
G02*
X116922000Y-122933750I0J-218750D01*
G01*
X116922000Y-123446250D01*
G75*
G02*
X116703250Y-123665000I-218750J0D01*
G01*
X116265750Y-123665000D01*
G75*
G02*
X116047000Y-123446250I0J218750D01*
G01*
G37*
G36*
G01*
X112604000Y-120139750D02*
X112604000Y-120652250D01*
G75*
G02*
X112385250Y-120871000I-218750J0D01*
G01*
X111947750Y-120871000D01*
G75*
G02*
X111729000Y-120652250I0J218750D01*
G01*
X111729000Y-120139750D01*
G75*
G02*
X111947750Y-119921000I218750J0D01*
G01*
X112385250Y-119921000D01*
G75*
G02*
X112604000Y-120139750I0J-218750D01*
G01*
G37*
G36*
G01*
X114179000Y-120139750D02*
X114179000Y-120652250D01*
G75*
G02*
X113960250Y-120871000I-218750J0D01*
G01*
X113522750Y-120871000D01*
G75*
G02*
X113304000Y-120652250I0J218750D01*
G01*
X113304000Y-120139750D01*
G75*
G02*
X113522750Y-119921000I218750J0D01*
G01*
X113960250Y-119921000D01*
G75*
G02*
X114179000Y-120139750I0J-218750D01*
G01*
G37*
G36*
G01*
X112604000Y-122933750D02*
X112604000Y-123446250D01*
G75*
G02*
X112385250Y-123665000I-218750J0D01*
G01*
X111947750Y-123665000D01*
G75*
G02*
X111729000Y-123446250I0J218750D01*
G01*
X111729000Y-122933750D01*
G75*
G02*
X111947750Y-122715000I218750J0D01*
G01*
X112385250Y-122715000D01*
G75*
G02*
X112604000Y-122933750I0J-218750D01*
G01*
G37*
G36*
G01*
X114179000Y-122933750D02*
X114179000Y-123446250D01*
G75*
G02*
X113960250Y-123665000I-218750J0D01*
G01*
X113522750Y-123665000D01*
G75*
G02*
X113304000Y-123446250I0J218750D01*
G01*
X113304000Y-122933750D01*
G75*
G02*
X113522750Y-122715000I218750J0D01*
G01*
X113960250Y-122715000D01*
G75*
G02*
X114179000Y-122933750I0J-218750D01*
G01*
G37*
G36*
G01*
X143312000Y-90421750D02*
X143312000Y-90934250D01*
G75*
G02*
X143093250Y-91153000I-218750J0D01*
G01*
X142655750Y-91153000D01*
G75*
G02*
X142437000Y-90934250I0J218750D01*
G01*
X142437000Y-90421750D01*
G75*
G02*
X142655750Y-90203000I218750J0D01*
G01*
X143093250Y-90203000D01*
G75*
G02*
X143312000Y-90421750I0J-218750D01*
G01*
G37*
G36*
G01*
X144887000Y-90421750D02*
X144887000Y-90934250D01*
G75*
G02*
X144668250Y-91153000I-218750J0D01*
G01*
X144230750Y-91153000D01*
G75*
G02*
X144012000Y-90934250I0J218750D01*
G01*
X144012000Y-90421750D01*
G75*
G02*
X144230750Y-90203000I218750J0D01*
G01*
X144668250Y-90203000D01*
G75*
G02*
X144887000Y-90421750I0J-218750D01*
G01*
G37*
G36*
G01*
X111757750Y-103220000D02*
X112270250Y-103220000D01*
G75*
G02*
X112489000Y-103438750I0J-218750D01*
G01*
X112489000Y-103876250D01*
G75*
G02*
X112270250Y-104095000I-218750J0D01*
G01*
X111757750Y-104095000D01*
G75*
G02*
X111539000Y-103876250I0J218750D01*
G01*
X111539000Y-103438750D01*
G75*
G02*
X111757750Y-103220000I218750J0D01*
G01*
G37*
G36*
G01*
X111757750Y-101645000D02*
X112270250Y-101645000D01*
G75*
G02*
X112489000Y-101863750I0J-218750D01*
G01*
X112489000Y-102301250D01*
G75*
G02*
X112270250Y-102520000I-218750J0D01*
G01*
X111757750Y-102520000D01*
G75*
G02*
X111539000Y-102301250I0J218750D01*
G01*
X111539000Y-101863750D01*
G75*
G02*
X111757750Y-101645000I218750J0D01*
G01*
G37*
G36*
G01*
X114551750Y-103220000D02*
X115064250Y-103220000D01*
G75*
G02*
X115283000Y-103438750I0J-218750D01*
G01*
X115283000Y-103876250D01*
G75*
G02*
X115064250Y-104095000I-218750J0D01*
G01*
X114551750Y-104095000D01*
G75*
G02*
X114333000Y-103876250I0J218750D01*
G01*
X114333000Y-103438750D01*
G75*
G02*
X114551750Y-103220000I218750J0D01*
G01*
G37*
G36*
G01*
X114551750Y-101645000D02*
X115064250Y-101645000D01*
G75*
G02*
X115283000Y-101863750I0J-218750D01*
G01*
X115283000Y-102301250D01*
G75*
G02*
X115064250Y-102520000I-218750J0D01*
G01*
X114551750Y-102520000D01*
G75*
G02*
X114333000Y-102301250I0J218750D01*
G01*
X114333000Y-101863750D01*
G75*
G02*
X114551750Y-101645000I218750J0D01*
G01*
G37*
G36*
G01*
X108235000Y-146047750D02*
X108235000Y-146560250D01*
G75*
G02*
X108016250Y-146779000I-218750J0D01*
G01*
X107578750Y-146779000D01*
G75*
G02*
X107360000Y-146560250I0J218750D01*
G01*
X107360000Y-146047750D01*
G75*
G02*
X107578750Y-145829000I218750J0D01*
G01*
X108016250Y-145829000D01*
G75*
G02*
X108235000Y-146047750I0J-218750D01*
G01*
G37*
G36*
G01*
X109810000Y-146047750D02*
X109810000Y-146560250D01*
G75*
G02*
X109591250Y-146779000I-218750J0D01*
G01*
X109153750Y-146779000D01*
G75*
G02*
X108935000Y-146560250I0J218750D01*
G01*
X108935000Y-146047750D01*
G75*
G02*
X109153750Y-145829000I218750J0D01*
G01*
X109591250Y-145829000D01*
G75*
G02*
X109810000Y-146047750I0J-218750D01*
G01*
G37*
G36*
G01*
X110459000Y-90934250D02*
X110459000Y-90421750D01*
G75*
G02*
X110677750Y-90203000I218750J0D01*
G01*
X111115250Y-90203000D01*
G75*
G02*
X111334000Y-90421750I0J-218750D01*
G01*
X111334000Y-90934250D01*
G75*
G02*
X111115250Y-91153000I-218750J0D01*
G01*
X110677750Y-91153000D01*
G75*
G02*
X110459000Y-90934250I0J218750D01*
G01*
G37*
G36*
G01*
X108884000Y-90934250D02*
X108884000Y-90421750D01*
G75*
G02*
X109102750Y-90203000I218750J0D01*
G01*
X109540250Y-90203000D01*
G75*
G02*
X109759000Y-90421750I0J-218750D01*
G01*
X109759000Y-90934250D01*
G75*
G02*
X109540250Y-91153000I-218750J0D01*
G01*
X109102750Y-91153000D01*
G75*
G02*
X108884000Y-90934250I0J218750D01*
G01*
G37*
G36*
G01*
X139321250Y-102520000D02*
X138808750Y-102520000D01*
G75*
G02*
X138590000Y-102301250I0J218750D01*
G01*
X138590000Y-101863750D01*
G75*
G02*
X138808750Y-101645000I218750J0D01*
G01*
X139321250Y-101645000D01*
G75*
G02*
X139540000Y-101863750I0J-218750D01*
G01*
X139540000Y-102301250D01*
G75*
G02*
X139321250Y-102520000I-218750J0D01*
G01*
G37*
G36*
G01*
X139321250Y-104095000D02*
X138808750Y-104095000D01*
G75*
G02*
X138590000Y-103876250I0J218750D01*
G01*
X138590000Y-103438750D01*
G75*
G02*
X138808750Y-103220000I218750J0D01*
G01*
X139321250Y-103220000D01*
G75*
G02*
X139540000Y-103438750I0J-218750D01*
G01*
X139540000Y-103876250D01*
G75*
G02*
X139321250Y-104095000I-218750J0D01*
G01*
G37*
G36*
G01*
X145384000Y-146560250D02*
X145384000Y-146047750D01*
G75*
G02*
X145602750Y-145829000I218750J0D01*
G01*
X146040250Y-145829000D01*
G75*
G02*
X146259000Y-146047750I0J-218750D01*
G01*
X146259000Y-146560250D01*
G75*
G02*
X146040250Y-146779000I-218750J0D01*
G01*
X145602750Y-146779000D01*
G75*
G02*
X145384000Y-146560250I0J218750D01*
G01*
G37*
G36*
G01*
X143809000Y-146560250D02*
X143809000Y-146047750D01*
G75*
G02*
X144027750Y-145829000I218750J0D01*
G01*
X144465250Y-145829000D01*
G75*
G02*
X144684000Y-146047750I0J-218750D01*
G01*
X144684000Y-146560250D01*
G75*
G02*
X144465250Y-146779000I-218750J0D01*
G01*
X144027750Y-146779000D01*
G75*
G02*
X143809000Y-146560250I0J218750D01*
G01*
G37*
G36*
G01*
X135540000Y-93977750D02*
X135540000Y-94490250D01*
G75*
G02*
X135321250Y-94709000I-218750J0D01*
G01*
X134883750Y-94709000D01*
G75*
G02*
X134665000Y-94490250I0J218750D01*
G01*
X134665000Y-93977750D01*
G75*
G02*
X134883750Y-93759000I218750J0D01*
G01*
X135321250Y-93759000D01*
G75*
G02*
X135540000Y-93977750I0J-218750D01*
G01*
G37*
G36*
G01*
X137115000Y-93977750D02*
X137115000Y-94490250D01*
G75*
G02*
X136896250Y-94709000I-218750J0D01*
G01*
X136458750Y-94709000D01*
G75*
G02*
X136240000Y-94490250I0J218750D01*
G01*
X136240000Y-93977750D01*
G75*
G02*
X136458750Y-93759000I218750J0D01*
G01*
X136896250Y-93759000D01*
G75*
G02*
X137115000Y-93977750I0J-218750D01*
G01*
G37*
G36*
G01*
X148841750Y-51912000D02*
X149354250Y-51912000D01*
G75*
G02*
X149573000Y-52130750I0J-218750D01*
G01*
X149573000Y-52568250D01*
G75*
G02*
X149354250Y-52787000I-218750J0D01*
G01*
X148841750Y-52787000D01*
G75*
G02*
X148623000Y-52568250I0J218750D01*
G01*
X148623000Y-52130750D01*
G75*
G02*
X148841750Y-51912000I218750J0D01*
G01*
G37*
G36*
G01*
X148841750Y-50337000D02*
X149354250Y-50337000D01*
G75*
G02*
X149573000Y-50555750I0J-218750D01*
G01*
X149573000Y-50993250D01*
G75*
G02*
X149354250Y-51212000I-218750J0D01*
G01*
X148841750Y-51212000D01*
G75*
G02*
X148623000Y-50993250I0J218750D01*
G01*
X148623000Y-50555750D01*
G75*
G02*
X148841750Y-50337000I218750J0D01*
G01*
G37*
G36*
G01*
X132365000Y-145285750D02*
X132365000Y-145798250D01*
G75*
G02*
X132146250Y-146017000I-218750J0D01*
G01*
X131708750Y-146017000D01*
G75*
G02*
X131490000Y-145798250I0J218750D01*
G01*
X131490000Y-145285750D01*
G75*
G02*
X131708750Y-145067000I218750J0D01*
G01*
X132146250Y-145067000D01*
G75*
G02*
X132365000Y-145285750I0J-218750D01*
G01*
G37*
G36*
G01*
X133940000Y-145285750D02*
X133940000Y-145798250D01*
G75*
G02*
X133721250Y-146017000I-218750J0D01*
G01*
X133283750Y-146017000D01*
G75*
G02*
X133065000Y-145798250I0J218750D01*
G01*
X133065000Y-145285750D01*
G75*
G02*
X133283750Y-145067000I218750J0D01*
G01*
X133721250Y-145067000D01*
G75*
G02*
X133940000Y-145285750I0J-218750D01*
G01*
G37*
G36*
G01*
X121254000Y-145544250D02*
X121254000Y-145031750D01*
G75*
G02*
X121472750Y-144813000I218750J0D01*
G01*
X121910250Y-144813000D01*
G75*
G02*
X122129000Y-145031750I0J-218750D01*
G01*
X122129000Y-145544250D01*
G75*
G02*
X121910250Y-145763000I-218750J0D01*
G01*
X121472750Y-145763000D01*
G75*
G02*
X121254000Y-145544250I0J218750D01*
G01*
G37*
G36*
G01*
X119679000Y-145544250D02*
X119679000Y-145031750D01*
G75*
G02*
X119897750Y-144813000I218750J0D01*
G01*
X120335250Y-144813000D01*
G75*
G02*
X120554000Y-145031750I0J-218750D01*
G01*
X120554000Y-145544250D01*
G75*
G02*
X120335250Y-145763000I-218750J0D01*
G01*
X119897750Y-145763000D01*
G75*
G02*
X119679000Y-145544250I0J218750D01*
G01*
G37*
G36*
G01*
X128580000Y-144015750D02*
X128580000Y-144528250D01*
G75*
G02*
X128361250Y-144747000I-218750J0D01*
G01*
X127923750Y-144747000D01*
G75*
G02*
X127705000Y-144528250I0J218750D01*
G01*
X127705000Y-144015750D01*
G75*
G02*
X127923750Y-143797000I218750J0D01*
G01*
X128361250Y-143797000D01*
G75*
G02*
X128580000Y-144015750I0J-218750D01*
G01*
G37*
G36*
G01*
X130155000Y-144015750D02*
X130155000Y-144528250D01*
G75*
G02*
X129936250Y-144747000I-218750J0D01*
G01*
X129498750Y-144747000D01*
G75*
G02*
X129280000Y-144528250I0J218750D01*
G01*
X129280000Y-144015750D01*
G75*
G02*
X129498750Y-143797000I218750J0D01*
G01*
X129936250Y-143797000D01*
G75*
G02*
X130155000Y-144015750I0J-218750D01*
G01*
G37*
G36*
G01*
X125115000Y-144528250D02*
X125115000Y-144015750D01*
G75*
G02*
X125333750Y-143797000I218750J0D01*
G01*
X125771250Y-143797000D01*
G75*
G02*
X125990000Y-144015750I0J-218750D01*
G01*
X125990000Y-144528250D01*
G75*
G02*
X125771250Y-144747000I-218750J0D01*
G01*
X125333750Y-144747000D01*
G75*
G02*
X125115000Y-144528250I0J218750D01*
G01*
G37*
G36*
G01*
X123540000Y-144528250D02*
X123540000Y-144015750D01*
G75*
G02*
X123758750Y-143797000I218750J0D01*
G01*
X124196250Y-143797000D01*
G75*
G02*
X124415000Y-144015750I0J-218750D01*
G01*
X124415000Y-144528250D01*
G75*
G02*
X124196250Y-144747000I-218750J0D01*
G01*
X123758750Y-144747000D01*
G75*
G02*
X123540000Y-144528250I0J218750D01*
G01*
G37*
G36*
G01*
X129306000Y-138940250D02*
X129306000Y-138427750D01*
G75*
G02*
X129524750Y-138209000I218750J0D01*
G01*
X129962250Y-138209000D01*
G75*
G02*
X130181000Y-138427750I0J-218750D01*
G01*
X130181000Y-138940250D01*
G75*
G02*
X129962250Y-139159000I-218750J0D01*
G01*
X129524750Y-139159000D01*
G75*
G02*
X129306000Y-138940250I0J218750D01*
G01*
G37*
G36*
G01*
X127731000Y-138940250D02*
X127731000Y-138427750D01*
G75*
G02*
X127949750Y-138209000I218750J0D01*
G01*
X128387250Y-138209000D01*
G75*
G02*
X128606000Y-138427750I0J-218750D01*
G01*
X128606000Y-138940250D01*
G75*
G02*
X128387250Y-139159000I-218750J0D01*
G01*
X127949750Y-139159000D01*
G75*
G02*
X127731000Y-138940250I0J218750D01*
G01*
G37*
G36*
G01*
X124415000Y-138427750D02*
X124415000Y-138940250D01*
G75*
G02*
X124196250Y-139159000I-218750J0D01*
G01*
X123758750Y-139159000D01*
G75*
G02*
X123540000Y-138940250I0J218750D01*
G01*
X123540000Y-138427750D01*
G75*
G02*
X123758750Y-138209000I218750J0D01*
G01*
X124196250Y-138209000D01*
G75*
G02*
X124415000Y-138427750I0J-218750D01*
G01*
G37*
G36*
G01*
X125990000Y-138427750D02*
X125990000Y-138940250D01*
G75*
G02*
X125771250Y-139159000I-218750J0D01*
G01*
X125333750Y-139159000D01*
G75*
G02*
X125115000Y-138940250I0J218750D01*
G01*
X125115000Y-138427750D01*
G75*
G02*
X125333750Y-138209000I218750J0D01*
G01*
X125771250Y-138209000D01*
G75*
G02*
X125990000Y-138427750I0J-218750D01*
G01*
G37*
G36*
G01*
X128606000Y-132839750D02*
X128606000Y-133352250D01*
G75*
G02*
X128387250Y-133571000I-218750J0D01*
G01*
X127949750Y-133571000D01*
G75*
G02*
X127731000Y-133352250I0J218750D01*
G01*
X127731000Y-132839750D01*
G75*
G02*
X127949750Y-132621000I218750J0D01*
G01*
X128387250Y-132621000D01*
G75*
G02*
X128606000Y-132839750I0J-218750D01*
G01*
G37*
G36*
G01*
X130181000Y-132839750D02*
X130181000Y-133352250D01*
G75*
G02*
X129962250Y-133571000I-218750J0D01*
G01*
X129524750Y-133571000D01*
G75*
G02*
X129306000Y-133352250I0J218750D01*
G01*
X129306000Y-132839750D01*
G75*
G02*
X129524750Y-132621000I218750J0D01*
G01*
X129962250Y-132621000D01*
G75*
G02*
X130181000Y-132839750I0J-218750D01*
G01*
G37*
G36*
G01*
X125115000Y-133352250D02*
X125115000Y-132839750D01*
G75*
G02*
X125333750Y-132621000I218750J0D01*
G01*
X125771250Y-132621000D01*
G75*
G02*
X125990000Y-132839750I0J-218750D01*
G01*
X125990000Y-133352250D01*
G75*
G02*
X125771250Y-133571000I-218750J0D01*
G01*
X125333750Y-133571000D01*
G75*
G02*
X125115000Y-133352250I0J218750D01*
G01*
G37*
G36*
G01*
X123540000Y-133352250D02*
X123540000Y-132839750D01*
G75*
G02*
X123758750Y-132621000I218750J0D01*
G01*
X124196250Y-132621000D01*
G75*
G02*
X124415000Y-132839750I0J-218750D01*
G01*
X124415000Y-133352250D01*
G75*
G02*
X124196250Y-133571000I-218750J0D01*
G01*
X123758750Y-133571000D01*
G75*
G02*
X123540000Y-133352250I0J218750D01*
G01*
G37*
G36*
G01*
X115694750Y-71089000D02*
X116207250Y-71089000D01*
G75*
G02*
X116426000Y-71307750I0J-218750D01*
G01*
X116426000Y-71745250D01*
G75*
G02*
X116207250Y-71964000I-218750J0D01*
G01*
X115694750Y-71964000D01*
G75*
G02*
X115476000Y-71745250I0J218750D01*
G01*
X115476000Y-71307750D01*
G75*
G02*
X115694750Y-71089000I218750J0D01*
G01*
G37*
G36*
G01*
X115694750Y-69514000D02*
X116207250Y-69514000D01*
G75*
G02*
X116426000Y-69732750I0J-218750D01*
G01*
X116426000Y-70170250D01*
G75*
G02*
X116207250Y-70389000I-218750J0D01*
G01*
X115694750Y-70389000D01*
G75*
G02*
X115476000Y-70170250I0J218750D01*
G01*
X115476000Y-69732750D01*
G75*
G02*
X115694750Y-69514000I218750J0D01*
G01*
G37*
G36*
G01*
X117633000Y-83436750D02*
X117633000Y-83949250D01*
G75*
G02*
X117414250Y-84168000I-218750J0D01*
G01*
X116976750Y-84168000D01*
G75*
G02*
X116758000Y-83949250I0J218750D01*
G01*
X116758000Y-83436750D01*
G75*
G02*
X116976750Y-83218000I218750J0D01*
G01*
X117414250Y-83218000D01*
G75*
G02*
X117633000Y-83436750I0J-218750D01*
G01*
G37*
G36*
G01*
X119208000Y-83436750D02*
X119208000Y-83949250D01*
G75*
G02*
X118989250Y-84168000I-218750J0D01*
G01*
X118551750Y-84168000D01*
G75*
G02*
X118333000Y-83949250I0J218750D01*
G01*
X118333000Y-83436750D01*
G75*
G02*
X118551750Y-83218000I218750J0D01*
G01*
X118989250Y-83218000D01*
G75*
G02*
X119208000Y-83436750I0J-218750D01*
G01*
G37*
G36*
G01*
X125572000Y-69725250D02*
X125572000Y-69212750D01*
G75*
G02*
X125790750Y-68994000I218750J0D01*
G01*
X126228250Y-68994000D01*
G75*
G02*
X126447000Y-69212750I0J-218750D01*
G01*
X126447000Y-69725250D01*
G75*
G02*
X126228250Y-69944000I-218750J0D01*
G01*
X125790750Y-69944000D01*
G75*
G02*
X125572000Y-69725250I0J218750D01*
G01*
G37*
G36*
G01*
X123997000Y-69725250D02*
X123997000Y-69212750D01*
G75*
G02*
X124215750Y-68994000I218750J0D01*
G01*
X124653250Y-68994000D01*
G75*
G02*
X124872000Y-69212750I0J-218750D01*
G01*
X124872000Y-69725250D01*
G75*
G02*
X124653250Y-69944000I-218750J0D01*
G01*
X124215750Y-69944000D01*
G75*
G02*
X123997000Y-69725250I0J218750D01*
G01*
G37*
G36*
G01*
X125572000Y-72519250D02*
X125572000Y-72006750D01*
G75*
G02*
X125790750Y-71788000I218750J0D01*
G01*
X126228250Y-71788000D01*
G75*
G02*
X126447000Y-72006750I0J-218750D01*
G01*
X126447000Y-72519250D01*
G75*
G02*
X126228250Y-72738000I-218750J0D01*
G01*
X125790750Y-72738000D01*
G75*
G02*
X125572000Y-72519250I0J218750D01*
G01*
G37*
G36*
G01*
X123997000Y-72519250D02*
X123997000Y-72006750D01*
G75*
G02*
X124215750Y-71788000I218750J0D01*
G01*
X124653250Y-71788000D01*
G75*
G02*
X124872000Y-72006750I0J-218750D01*
G01*
X124872000Y-72519250D01*
G75*
G02*
X124653250Y-72738000I-218750J0D01*
G01*
X124215750Y-72738000D01*
G75*
G02*
X123997000Y-72519250I0J218750D01*
G01*
G37*
D14*
X145653000Y-96520000D03*
X143653000Y-95570000D03*
X143653000Y-97470000D03*
X108093000Y-109220000D03*
X110093000Y-110170000D03*
X110093000Y-108270000D03*
D18*
X116713000Y-105553000D03*
X115763000Y-107553000D03*
X117663000Y-107553000D03*
D14*
X108093000Y-96520000D03*
X110093000Y-97470000D03*
X110093000Y-95570000D03*
D18*
X137033000Y-105553000D03*
X136083000Y-107553000D03*
X137983000Y-107553000D03*
G36*
G01*
X109017750Y-51631000D02*
X109930250Y-51631000D01*
G75*
G02*
X110174000Y-51874750I0J-243750D01*
G01*
X110174000Y-52362250D01*
G75*
G02*
X109930250Y-52606000I-243750J0D01*
G01*
X109017750Y-52606000D01*
G75*
G02*
X108774000Y-52362250I0J243750D01*
G01*
X108774000Y-51874750D01*
G75*
G02*
X109017750Y-51631000I243750J0D01*
G01*
G37*
G36*
G01*
X109017750Y-49756000D02*
X109930250Y-49756000D01*
G75*
G02*
X110174000Y-49999750I0J-243750D01*
G01*
X110174000Y-50487250D01*
G75*
G02*
X109930250Y-50731000I-243750J0D01*
G01*
X109017750Y-50731000D01*
G75*
G02*
X108774000Y-50487250I0J243750D01*
G01*
X108774000Y-49999750D01*
G75*
G02*
X109017750Y-49756000I243750J0D01*
G01*
G37*
G36*
G01*
X149608250Y-73310000D02*
X149095750Y-73310000D01*
G75*
G02*
X148877000Y-73091250I0J218750D01*
G01*
X148877000Y-72653750D01*
G75*
G02*
X149095750Y-72435000I218750J0D01*
G01*
X149608250Y-72435000D01*
G75*
G02*
X149827000Y-72653750I0J-218750D01*
G01*
X149827000Y-73091250D01*
G75*
G02*
X149608250Y-73310000I-218750J0D01*
G01*
G37*
G36*
G01*
X149608250Y-74885000D02*
X149095750Y-74885000D01*
G75*
G02*
X148877000Y-74666250I0J218750D01*
G01*
X148877000Y-74228750D01*
G75*
G02*
X149095750Y-74010000I218750J0D01*
G01*
X149608250Y-74010000D01*
G75*
G02*
X149827000Y-74228750I0J-218750D01*
G01*
X149827000Y-74666250D01*
G75*
G02*
X149608250Y-74885000I-218750J0D01*
G01*
G37*
G36*
G01*
X141983750Y-61437000D02*
X142496250Y-61437000D01*
G75*
G02*
X142715000Y-61655750I0J-218750D01*
G01*
X142715000Y-62093250D01*
G75*
G02*
X142496250Y-62312000I-218750J0D01*
G01*
X141983750Y-62312000D01*
G75*
G02*
X141765000Y-62093250I0J218750D01*
G01*
X141765000Y-61655750D01*
G75*
G02*
X141983750Y-61437000I218750J0D01*
G01*
G37*
G36*
G01*
X141983750Y-59862000D02*
X142496250Y-59862000D01*
G75*
G02*
X142715000Y-60080750I0J-218750D01*
G01*
X142715000Y-60518250D01*
G75*
G02*
X142496250Y-60737000I-218750J0D01*
G01*
X141983750Y-60737000D01*
G75*
G02*
X141765000Y-60518250I0J218750D01*
G01*
X141765000Y-60080750D01*
G75*
G02*
X141983750Y-59862000I218750J0D01*
G01*
G37*
G36*
G01*
X142496250Y-56546000D02*
X141983750Y-56546000D01*
G75*
G02*
X141765000Y-56327250I0J218750D01*
G01*
X141765000Y-55889750D01*
G75*
G02*
X141983750Y-55671000I218750J0D01*
G01*
X142496250Y-55671000D01*
G75*
G02*
X142715000Y-55889750I0J-218750D01*
G01*
X142715000Y-56327250D01*
G75*
G02*
X142496250Y-56546000I-218750J0D01*
G01*
G37*
G36*
G01*
X142496250Y-58121000D02*
X141983750Y-58121000D01*
G75*
G02*
X141765000Y-57902250I0J218750D01*
G01*
X141765000Y-57464750D01*
G75*
G02*
X141983750Y-57246000I218750J0D01*
G01*
X142496250Y-57246000D01*
G75*
G02*
X142715000Y-57464750I0J-218750D01*
G01*
X142715000Y-57902250D01*
G75*
G02*
X142496250Y-58121000I-218750J0D01*
G01*
G37*
X135890000Y-86630000D03*
X134940000Y-88630000D03*
X136840000Y-88630000D03*
G36*
G01*
X146770500Y-51362000D02*
X146345500Y-51362000D01*
G75*
G02*
X146133000Y-51149500I0J212500D01*
G01*
X146133000Y-50349500D01*
G75*
G02*
X146345500Y-50137000I212500J0D01*
G01*
X146770500Y-50137000D01*
G75*
G02*
X146983000Y-50349500I0J-212500D01*
G01*
X146983000Y-51149500D01*
G75*
G02*
X146770500Y-51362000I-212500J0D01*
G01*
G37*
G36*
G01*
X146770500Y-52987000D02*
X146345500Y-52987000D01*
G75*
G02*
X146133000Y-52774500I0J212500D01*
G01*
X146133000Y-51974500D01*
G75*
G02*
X146345500Y-51762000I212500J0D01*
G01*
X146770500Y-51762000D01*
G75*
G02*
X146983000Y-51974500I0J-212500D01*
G01*
X146983000Y-52774500D01*
G75*
G02*
X146770500Y-52987000I-212500J0D01*
G01*
G37*
D19*
X142240000Y-64007000D03*
D20*
X142240000Y-66382000D03*
D19*
X142240000Y-50799000D03*
D20*
X142240000Y-53174000D03*
G36*
G01*
X136773000Y-143791250D02*
X136773000Y-143278750D01*
G75*
G02*
X136991750Y-143060000I218750J0D01*
G01*
X137429250Y-143060000D01*
G75*
G02*
X137648000Y-143278750I0J-218750D01*
G01*
X137648000Y-143791250D01*
G75*
G02*
X137429250Y-144010000I-218750J0D01*
G01*
X136991750Y-144010000D01*
G75*
G02*
X136773000Y-143791250I0J218750D01*
G01*
G37*
G36*
G01*
X135198000Y-143791250D02*
X135198000Y-143278750D01*
G75*
G02*
X135416750Y-143060000I218750J0D01*
G01*
X135854250Y-143060000D01*
G75*
G02*
X136073000Y-143278750I0J-218750D01*
G01*
X136073000Y-143791250D01*
G75*
G02*
X135854250Y-144010000I-218750J0D01*
G01*
X135416750Y-144010000D01*
G75*
G02*
X135198000Y-143791250I0J218750D01*
G01*
G37*
G36*
G01*
X140442000Y-143278750D02*
X140442000Y-143791250D01*
G75*
G02*
X140223250Y-144010000I-218750J0D01*
G01*
X139785750Y-144010000D01*
G75*
G02*
X139567000Y-143791250I0J218750D01*
G01*
X139567000Y-143278750D01*
G75*
G02*
X139785750Y-143060000I218750J0D01*
G01*
X140223250Y-143060000D01*
G75*
G02*
X140442000Y-143278750I0J-218750D01*
G01*
G37*
G36*
G01*
X142017000Y-143278750D02*
X142017000Y-143791250D01*
G75*
G02*
X141798250Y-144010000I-218750J0D01*
G01*
X141360750Y-144010000D01*
G75*
G02*
X141142000Y-143791250I0J218750D01*
G01*
X141142000Y-143278750D01*
G75*
G02*
X141360750Y-143060000I218750J0D01*
G01*
X141798250Y-143060000D01*
G75*
G02*
X142017000Y-143278750I0J-218750D01*
G01*
G37*
G36*
G01*
X140442000Y-125625750D02*
X140442000Y-126138250D01*
G75*
G02*
X140223250Y-126357000I-218750J0D01*
G01*
X139785750Y-126357000D01*
G75*
G02*
X139567000Y-126138250I0J218750D01*
G01*
X139567000Y-125625750D01*
G75*
G02*
X139785750Y-125407000I218750J0D01*
G01*
X140223250Y-125407000D01*
G75*
G02*
X140442000Y-125625750I0J-218750D01*
G01*
G37*
G36*
G01*
X142017000Y-125625750D02*
X142017000Y-126138250D01*
G75*
G02*
X141798250Y-126357000I-218750J0D01*
G01*
X141360750Y-126357000D01*
G75*
G02*
X141142000Y-126138250I0J218750D01*
G01*
X141142000Y-125625750D01*
G75*
G02*
X141360750Y-125407000I218750J0D01*
G01*
X141798250Y-125407000D01*
G75*
G02*
X142017000Y-125625750I0J-218750D01*
G01*
G37*
G36*
G01*
X136773000Y-126138250D02*
X136773000Y-125625750D01*
G75*
G02*
X136991750Y-125407000I218750J0D01*
G01*
X137429250Y-125407000D01*
G75*
G02*
X137648000Y-125625750I0J-218750D01*
G01*
X137648000Y-126138250D01*
G75*
G02*
X137429250Y-126357000I-218750J0D01*
G01*
X136991750Y-126357000D01*
G75*
G02*
X136773000Y-126138250I0J218750D01*
G01*
G37*
G36*
G01*
X135198000Y-126138250D02*
X135198000Y-125625750D01*
G75*
G02*
X135416750Y-125407000I218750J0D01*
G01*
X135854250Y-125407000D01*
G75*
G02*
X136073000Y-125625750I0J-218750D01*
G01*
X136073000Y-126138250D01*
G75*
G02*
X135854250Y-126357000I-218750J0D01*
G01*
X135416750Y-126357000D01*
G75*
G02*
X135198000Y-126138250I0J218750D01*
G01*
G37*
G36*
G01*
X144876000Y-134876250D02*
X144876000Y-134363750D01*
G75*
G02*
X145094750Y-134145000I218750J0D01*
G01*
X145532250Y-134145000D01*
G75*
G02*
X145751000Y-134363750I0J-218750D01*
G01*
X145751000Y-134876250D01*
G75*
G02*
X145532250Y-135095000I-218750J0D01*
G01*
X145094750Y-135095000D01*
G75*
G02*
X144876000Y-134876250I0J218750D01*
G01*
G37*
G36*
G01*
X143301000Y-134876250D02*
X143301000Y-134363750D01*
G75*
G02*
X143519750Y-134145000I218750J0D01*
G01*
X143957250Y-134145000D01*
G75*
G02*
X144176000Y-134363750I0J-218750D01*
G01*
X144176000Y-134876250D01*
G75*
G02*
X143957250Y-135095000I-218750J0D01*
G01*
X143519750Y-135095000D01*
G75*
G02*
X143301000Y-134876250I0J218750D01*
G01*
G37*
G36*
G01*
X113304000Y-143791250D02*
X113304000Y-143278750D01*
G75*
G02*
X113522750Y-143060000I218750J0D01*
G01*
X113960250Y-143060000D01*
G75*
G02*
X114179000Y-143278750I0J-218750D01*
G01*
X114179000Y-143791250D01*
G75*
G02*
X113960250Y-144010000I-218750J0D01*
G01*
X113522750Y-144010000D01*
G75*
G02*
X113304000Y-143791250I0J218750D01*
G01*
G37*
G36*
G01*
X111729000Y-143791250D02*
X111729000Y-143278750D01*
G75*
G02*
X111947750Y-143060000I218750J0D01*
G01*
X112385250Y-143060000D01*
G75*
G02*
X112604000Y-143278750I0J-218750D01*
G01*
X112604000Y-143791250D01*
G75*
G02*
X112385250Y-144010000I-218750J0D01*
G01*
X111947750Y-144010000D01*
G75*
G02*
X111729000Y-143791250I0J218750D01*
G01*
G37*
G36*
G01*
X116922000Y-143304750D02*
X116922000Y-143817250D01*
G75*
G02*
X116703250Y-144036000I-218750J0D01*
G01*
X116265750Y-144036000D01*
G75*
G02*
X116047000Y-143817250I0J218750D01*
G01*
X116047000Y-143304750D01*
G75*
G02*
X116265750Y-143086000I218750J0D01*
G01*
X116703250Y-143086000D01*
G75*
G02*
X116922000Y-143304750I0J-218750D01*
G01*
G37*
G36*
G01*
X118497000Y-143304750D02*
X118497000Y-143817250D01*
G75*
G02*
X118278250Y-144036000I-218750J0D01*
G01*
X117840750Y-144036000D01*
G75*
G02*
X117622000Y-143817250I0J218750D01*
G01*
X117622000Y-143304750D01*
G75*
G02*
X117840750Y-143086000I218750J0D01*
G01*
X118278250Y-143086000D01*
G75*
G02*
X118497000Y-143304750I0J-218750D01*
G01*
G37*
G36*
G01*
X116922000Y-125727750D02*
X116922000Y-126240250D01*
G75*
G02*
X116703250Y-126459000I-218750J0D01*
G01*
X116265750Y-126459000D01*
G75*
G02*
X116047000Y-126240250I0J218750D01*
G01*
X116047000Y-125727750D01*
G75*
G02*
X116265750Y-125509000I218750J0D01*
G01*
X116703250Y-125509000D01*
G75*
G02*
X116922000Y-125727750I0J-218750D01*
G01*
G37*
G36*
G01*
X118497000Y-125727750D02*
X118497000Y-126240250D01*
G75*
G02*
X118278250Y-126459000I-218750J0D01*
G01*
X117840750Y-126459000D01*
G75*
G02*
X117622000Y-126240250I0J218750D01*
G01*
X117622000Y-125727750D01*
G75*
G02*
X117840750Y-125509000I218750J0D01*
G01*
X118278250Y-125509000D01*
G75*
G02*
X118497000Y-125727750I0J-218750D01*
G01*
G37*
G36*
G01*
X113304000Y-126138250D02*
X113304000Y-125625750D01*
G75*
G02*
X113522750Y-125407000I218750J0D01*
G01*
X113960250Y-125407000D01*
G75*
G02*
X114179000Y-125625750I0J-218750D01*
G01*
X114179000Y-126138250D01*
G75*
G02*
X113960250Y-126357000I-218750J0D01*
G01*
X113522750Y-126357000D01*
G75*
G02*
X113304000Y-126138250I0J218750D01*
G01*
G37*
G36*
G01*
X111729000Y-126138250D02*
X111729000Y-125625750D01*
G75*
G02*
X111947750Y-125407000I218750J0D01*
G01*
X112385250Y-125407000D01*
G75*
G02*
X112604000Y-125625750I0J-218750D01*
G01*
X112604000Y-126138250D01*
G75*
G02*
X112385250Y-126357000I-218750J0D01*
G01*
X111947750Y-126357000D01*
G75*
G02*
X111729000Y-126138250I0J218750D01*
G01*
G37*
G36*
G01*
X108616000Y-134363750D02*
X108616000Y-134876250D01*
G75*
G02*
X108397250Y-135095000I-218750J0D01*
G01*
X107959750Y-135095000D01*
G75*
G02*
X107741000Y-134876250I0J218750D01*
G01*
X107741000Y-134363750D01*
G75*
G02*
X107959750Y-134145000I218750J0D01*
G01*
X108397250Y-134145000D01*
G75*
G02*
X108616000Y-134363750I0J-218750D01*
G01*
G37*
G36*
G01*
X110191000Y-134363750D02*
X110191000Y-134876250D01*
G75*
G02*
X109972250Y-135095000I-218750J0D01*
G01*
X109534750Y-135095000D01*
G75*
G02*
X109316000Y-134876250I0J218750D01*
G01*
X109316000Y-134363750D01*
G75*
G02*
X109534750Y-134145000I218750J0D01*
G01*
X109972250Y-134145000D01*
G75*
G02*
X110191000Y-134363750I0J-218750D01*
G01*
G37*
G36*
G01*
X136240000Y-91696250D02*
X136240000Y-91183750D01*
G75*
G02*
X136458750Y-90965000I218750J0D01*
G01*
X136896250Y-90965000D01*
G75*
G02*
X137115000Y-91183750I0J-218750D01*
G01*
X137115000Y-91696250D01*
G75*
G02*
X136896250Y-91915000I-218750J0D01*
G01*
X136458750Y-91915000D01*
G75*
G02*
X136240000Y-91696250I0J218750D01*
G01*
G37*
G36*
G01*
X134665000Y-91696250D02*
X134665000Y-91183750D01*
G75*
G02*
X134883750Y-90965000I218750J0D01*
G01*
X135321250Y-90965000D01*
G75*
G02*
X135540000Y-91183750I0J-218750D01*
G01*
X135540000Y-91696250D01*
G75*
G02*
X135321250Y-91915000I-218750J0D01*
G01*
X134883750Y-91915000D01*
G75*
G02*
X134665000Y-91696250I0J218750D01*
G01*
G37*
G36*
G01*
X147058000Y-86783000D02*
X147058000Y-85683000D01*
G75*
G02*
X147308000Y-85433000I250000J0D01*
G01*
X149408000Y-85433000D01*
G75*
G02*
X149658000Y-85683000I0J-250000D01*
G01*
X149658000Y-86783000D01*
G75*
G02*
X149408000Y-87033000I-250000J0D01*
G01*
X147308000Y-87033000D01*
G75*
G02*
X147058000Y-86783000I0J250000D01*
G01*
G37*
G36*
G01*
X143458000Y-86783000D02*
X143458000Y-85683000D01*
G75*
G02*
X143708000Y-85433000I250000J0D01*
G01*
X145808000Y-85433000D01*
G75*
G02*
X146058000Y-85683000I0J-250000D01*
G01*
X146058000Y-86783000D01*
G75*
G02*
X145808000Y-87033000I-250000J0D01*
G01*
X143708000Y-87033000D01*
G75*
G02*
X143458000Y-86783000I0J250000D01*
G01*
G37*
G36*
G01*
X107831000Y-69554000D02*
X107831000Y-70654000D01*
G75*
G02*
X107581000Y-70904000I-250000J0D01*
G01*
X105481000Y-70904000D01*
G75*
G02*
X105231000Y-70654000I0J250000D01*
G01*
X105231000Y-69554000D01*
G75*
G02*
X105481000Y-69304000I250000J0D01*
G01*
X107581000Y-69304000D01*
G75*
G02*
X107831000Y-69554000I0J-250000D01*
G01*
G37*
G36*
G01*
X111431000Y-69554000D02*
X111431000Y-70654000D01*
G75*
G02*
X111181000Y-70904000I-250000J0D01*
G01*
X109081000Y-70904000D01*
G75*
G02*
X108831000Y-70654000I0J250000D01*
G01*
X108831000Y-69554000D01*
G75*
G02*
X109081000Y-69304000I250000J0D01*
G01*
X111181000Y-69304000D01*
G75*
G02*
X111431000Y-69554000I0J-250000D01*
G01*
G37*
G36*
G01*
X144274250Y-73310000D02*
X143761750Y-73310000D01*
G75*
G02*
X143543000Y-73091250I0J218750D01*
G01*
X143543000Y-72653750D01*
G75*
G02*
X143761750Y-72435000I218750J0D01*
G01*
X144274250Y-72435000D01*
G75*
G02*
X144493000Y-72653750I0J-218750D01*
G01*
X144493000Y-73091250D01*
G75*
G02*
X144274250Y-73310000I-218750J0D01*
G01*
G37*
G36*
G01*
X144274250Y-74885000D02*
X143761750Y-74885000D01*
G75*
G02*
X143543000Y-74666250I0J218750D01*
G01*
X143543000Y-74228750D01*
G75*
G02*
X143761750Y-74010000I218750J0D01*
G01*
X144274250Y-74010000D01*
G75*
G02*
X144493000Y-74228750I0J-218750D01*
G01*
X144493000Y-74666250D01*
G75*
G02*
X144274250Y-74885000I-218750J0D01*
G01*
G37*
G36*
G01*
X115412000Y-63121250D02*
X115412000Y-62608750D01*
G75*
G02*
X115630750Y-62390000I218750J0D01*
G01*
X116068250Y-62390000D01*
G75*
G02*
X116287000Y-62608750I0J-218750D01*
G01*
X116287000Y-63121250D01*
G75*
G02*
X116068250Y-63340000I-218750J0D01*
G01*
X115630750Y-63340000D01*
G75*
G02*
X115412000Y-63121250I0J218750D01*
G01*
G37*
G36*
G01*
X113837000Y-63121250D02*
X113837000Y-62608750D01*
G75*
G02*
X114055750Y-62390000I218750J0D01*
G01*
X114493250Y-62390000D01*
G75*
G02*
X114712000Y-62608750I0J-218750D01*
G01*
X114712000Y-63121250D01*
G75*
G02*
X114493250Y-63340000I-218750J0D01*
G01*
X114055750Y-63340000D01*
G75*
G02*
X113837000Y-63121250I0J218750D01*
G01*
G37*
G36*
G01*
X146428750Y-74010000D02*
X146941250Y-74010000D01*
G75*
G02*
X147160000Y-74228750I0J-218750D01*
G01*
X147160000Y-74666250D01*
G75*
G02*
X146941250Y-74885000I-218750J0D01*
G01*
X146428750Y-74885000D01*
G75*
G02*
X146210000Y-74666250I0J218750D01*
G01*
X146210000Y-74228750D01*
G75*
G02*
X146428750Y-74010000I218750J0D01*
G01*
G37*
G36*
G01*
X146428750Y-72435000D02*
X146941250Y-72435000D01*
G75*
G02*
X147160000Y-72653750I0J-218750D01*
G01*
X147160000Y-73091250D01*
G75*
G02*
X146941250Y-73310000I-218750J0D01*
G01*
X146428750Y-73310000D01*
G75*
G02*
X146210000Y-73091250I0J218750D01*
G01*
X146210000Y-72653750D01*
G75*
G02*
X146428750Y-72435000I218750J0D01*
G01*
G37*
G36*
G01*
X115412000Y-58041250D02*
X115412000Y-57528750D01*
G75*
G02*
X115630750Y-57310000I218750J0D01*
G01*
X116068250Y-57310000D01*
G75*
G02*
X116287000Y-57528750I0J-218750D01*
G01*
X116287000Y-58041250D01*
G75*
G02*
X116068250Y-58260000I-218750J0D01*
G01*
X115630750Y-58260000D01*
G75*
G02*
X115412000Y-58041250I0J218750D01*
G01*
G37*
G36*
G01*
X113837000Y-58041250D02*
X113837000Y-57528750D01*
G75*
G02*
X114055750Y-57310000I218750J0D01*
G01*
X114493250Y-57310000D01*
G75*
G02*
X114712000Y-57528750I0J-218750D01*
G01*
X114712000Y-58041250D01*
G75*
G02*
X114493250Y-58260000I-218750J0D01*
G01*
X114055750Y-58260000D01*
G75*
G02*
X113837000Y-58041250I0J218750D01*
G01*
G37*
G36*
G01*
X145910000Y-69733000D02*
X145910000Y-70983000D01*
G75*
G02*
X145660000Y-71233000I-250000J0D01*
G01*
X144910000Y-71233000D01*
G75*
G02*
X144660000Y-70983000I0J250000D01*
G01*
X144660000Y-69733000D01*
G75*
G02*
X144910000Y-69483000I250000J0D01*
G01*
X145660000Y-69483000D01*
G75*
G02*
X145910000Y-69733000I0J-250000D01*
G01*
G37*
G36*
G01*
X148710000Y-69733000D02*
X148710000Y-70983000D01*
G75*
G02*
X148460000Y-71233000I-250000J0D01*
G01*
X147710000Y-71233000D01*
G75*
G02*
X147460000Y-70983000I0J250000D01*
G01*
X147460000Y-69733000D01*
G75*
G02*
X147710000Y-69483000I250000J0D01*
G01*
X148460000Y-69483000D01*
G75*
G02*
X148710000Y-69733000I0J-250000D01*
G01*
G37*
G36*
G01*
X104785000Y-52210000D02*
X106035000Y-52210000D01*
G75*
G02*
X106285000Y-52460000I0J-250000D01*
G01*
X106285000Y-53210000D01*
G75*
G02*
X106035000Y-53460000I-250000J0D01*
G01*
X104785000Y-53460000D01*
G75*
G02*
X104535000Y-53210000I0J250000D01*
G01*
X104535000Y-52460000D01*
G75*
G02*
X104785000Y-52210000I250000J0D01*
G01*
G37*
G36*
G01*
X104785000Y-49410000D02*
X106035000Y-49410000D01*
G75*
G02*
X106285000Y-49660000I0J-250000D01*
G01*
X106285000Y-50410000D01*
G75*
G02*
X106035000Y-50660000I-250000J0D01*
G01*
X104785000Y-50660000D01*
G75*
G02*
X104535000Y-50410000I0J250000D01*
G01*
X104535000Y-49660000D01*
G75*
G02*
X104785000Y-49410000I250000J0D01*
G01*
G37*
G36*
G01*
X136336000Y-66209000D02*
X136336000Y-65109000D01*
G75*
G02*
X136586000Y-64859000I250000J0D01*
G01*
X139086000Y-64859000D01*
G75*
G02*
X139336000Y-65109000I0J-250000D01*
G01*
X139336000Y-66209000D01*
G75*
G02*
X139086000Y-66459000I-250000J0D01*
G01*
X136586000Y-66459000D01*
G75*
G02*
X136336000Y-66209000I0J250000D01*
G01*
G37*
G36*
G01*
X131936000Y-66209000D02*
X131936000Y-65109000D01*
G75*
G02*
X132186000Y-64859000I250000J0D01*
G01*
X134686000Y-64859000D01*
G75*
G02*
X134936000Y-65109000I0J-250000D01*
G01*
X134936000Y-66209000D01*
G75*
G02*
X134686000Y-66459000I-250000J0D01*
G01*
X132186000Y-66459000D01*
G75*
G02*
X131936000Y-66209000I0J250000D01*
G01*
G37*
G36*
G01*
X135063000Y-58124000D02*
X135063000Y-59224000D01*
G75*
G02*
X134813000Y-59474000I-250000J0D01*
G01*
X132313000Y-59474000D01*
G75*
G02*
X132063000Y-59224000I0J250000D01*
G01*
X132063000Y-58124000D01*
G75*
G02*
X132313000Y-57874000I250000J0D01*
G01*
X134813000Y-57874000D01*
G75*
G02*
X135063000Y-58124000I0J-250000D01*
G01*
G37*
G36*
G01*
X139463000Y-58124000D02*
X139463000Y-59224000D01*
G75*
G02*
X139213000Y-59474000I-250000J0D01*
G01*
X136713000Y-59474000D01*
G75*
G02*
X136463000Y-59224000I0J250000D01*
G01*
X136463000Y-58124000D01*
G75*
G02*
X136713000Y-57874000I250000J0D01*
G01*
X139213000Y-57874000D01*
G75*
G02*
X139463000Y-58124000I0J-250000D01*
G01*
G37*
G36*
G01*
X112786000Y-52210000D02*
X114036000Y-52210000D01*
G75*
G02*
X114286000Y-52460000I0J-250000D01*
G01*
X114286000Y-53210000D01*
G75*
G02*
X114036000Y-53460000I-250000J0D01*
G01*
X112786000Y-53460000D01*
G75*
G02*
X112536000Y-53210000I0J250000D01*
G01*
X112536000Y-52460000D01*
G75*
G02*
X112786000Y-52210000I250000J0D01*
G01*
G37*
G36*
G01*
X112786000Y-49410000D02*
X114036000Y-49410000D01*
G75*
G02*
X114286000Y-49660000I0J-250000D01*
G01*
X114286000Y-50410000D01*
G75*
G02*
X114036000Y-50660000I-250000J0D01*
G01*
X112786000Y-50660000D01*
G75*
G02*
X112536000Y-50410000I0J250000D01*
G01*
X112536000Y-49660000D01*
G75*
G02*
X112786000Y-49410000I250000J0D01*
G01*
G37*
G36*
G01*
X128606000Y-141221750D02*
X128606000Y-141734250D01*
G75*
G02*
X128387250Y-141953000I-218750J0D01*
G01*
X127949750Y-141953000D01*
G75*
G02*
X127731000Y-141734250I0J218750D01*
G01*
X127731000Y-141221750D01*
G75*
G02*
X127949750Y-141003000I218750J0D01*
G01*
X128387250Y-141003000D01*
G75*
G02*
X128606000Y-141221750I0J-218750D01*
G01*
G37*
G36*
G01*
X130181000Y-141221750D02*
X130181000Y-141734250D01*
G75*
G02*
X129962250Y-141953000I-218750J0D01*
G01*
X129524750Y-141953000D01*
G75*
G02*
X129306000Y-141734250I0J218750D01*
G01*
X129306000Y-141221750D01*
G75*
G02*
X129524750Y-141003000I218750J0D01*
G01*
X129962250Y-141003000D01*
G75*
G02*
X130181000Y-141221750I0J-218750D01*
G01*
G37*
G36*
G01*
X125115000Y-141734250D02*
X125115000Y-141221750D01*
G75*
G02*
X125333750Y-141003000I218750J0D01*
G01*
X125771250Y-141003000D01*
G75*
G02*
X125990000Y-141221750I0J-218750D01*
G01*
X125990000Y-141734250D01*
G75*
G02*
X125771250Y-141953000I-218750J0D01*
G01*
X125333750Y-141953000D01*
G75*
G02*
X125115000Y-141734250I0J218750D01*
G01*
G37*
G36*
G01*
X123540000Y-141734250D02*
X123540000Y-141221750D01*
G75*
G02*
X123758750Y-141003000I218750J0D01*
G01*
X124196250Y-141003000D01*
G75*
G02*
X124415000Y-141221750I0J-218750D01*
G01*
X124415000Y-141734250D01*
G75*
G02*
X124196250Y-141953000I-218750J0D01*
G01*
X123758750Y-141953000D01*
G75*
G02*
X123540000Y-141734250I0J218750D01*
G01*
G37*
G36*
G01*
X125115000Y-152402250D02*
X125115000Y-151889750D01*
G75*
G02*
X125333750Y-151671000I218750J0D01*
G01*
X125771250Y-151671000D01*
G75*
G02*
X125990000Y-151889750I0J-218750D01*
G01*
X125990000Y-152402250D01*
G75*
G02*
X125771250Y-152621000I-218750J0D01*
G01*
X125333750Y-152621000D01*
G75*
G02*
X125115000Y-152402250I0J218750D01*
G01*
G37*
G36*
G01*
X123540000Y-152402250D02*
X123540000Y-151889750D01*
G75*
G02*
X123758750Y-151671000I218750J0D01*
G01*
X124196250Y-151671000D01*
G75*
G02*
X124415000Y-151889750I0J-218750D01*
G01*
X124415000Y-152402250D01*
G75*
G02*
X124196250Y-152621000I-218750J0D01*
G01*
X123758750Y-152621000D01*
G75*
G02*
X123540000Y-152402250I0J218750D01*
G01*
G37*
G36*
G01*
X128606000Y-151889750D02*
X128606000Y-152402250D01*
G75*
G02*
X128387250Y-152621000I-218750J0D01*
G01*
X127949750Y-152621000D01*
G75*
G02*
X127731000Y-152402250I0J218750D01*
G01*
X127731000Y-151889750D01*
G75*
G02*
X127949750Y-151671000I218750J0D01*
G01*
X128387250Y-151671000D01*
G75*
G02*
X128606000Y-151889750I0J-218750D01*
G01*
G37*
G36*
G01*
X130181000Y-151889750D02*
X130181000Y-152402250D01*
G75*
G02*
X129962250Y-152621000I-218750J0D01*
G01*
X129524750Y-152621000D01*
G75*
G02*
X129306000Y-152402250I0J218750D01*
G01*
X129306000Y-151889750D01*
G75*
G02*
X129524750Y-151671000I218750J0D01*
G01*
X129962250Y-151671000D01*
G75*
G02*
X130181000Y-151889750I0J-218750D01*
G01*
G37*
G36*
G01*
X128606000Y-135633750D02*
X128606000Y-136146250D01*
G75*
G02*
X128387250Y-136365000I-218750J0D01*
G01*
X127949750Y-136365000D01*
G75*
G02*
X127731000Y-136146250I0J218750D01*
G01*
X127731000Y-135633750D01*
G75*
G02*
X127949750Y-135415000I218750J0D01*
G01*
X128387250Y-135415000D01*
G75*
G02*
X128606000Y-135633750I0J-218750D01*
G01*
G37*
G36*
G01*
X130181000Y-135633750D02*
X130181000Y-136146250D01*
G75*
G02*
X129962250Y-136365000I-218750J0D01*
G01*
X129524750Y-136365000D01*
G75*
G02*
X129306000Y-136146250I0J218750D01*
G01*
X129306000Y-135633750D01*
G75*
G02*
X129524750Y-135415000I218750J0D01*
G01*
X129962250Y-135415000D01*
G75*
G02*
X130181000Y-135633750I0J-218750D01*
G01*
G37*
G36*
G01*
X125115000Y-136146250D02*
X125115000Y-135633750D01*
G75*
G02*
X125333750Y-135415000I218750J0D01*
G01*
X125771250Y-135415000D01*
G75*
G02*
X125990000Y-135633750I0J-218750D01*
G01*
X125990000Y-136146250D01*
G75*
G02*
X125771250Y-136365000I-218750J0D01*
G01*
X125333750Y-136365000D01*
G75*
G02*
X125115000Y-136146250I0J218750D01*
G01*
G37*
G36*
G01*
X123540000Y-136146250D02*
X123540000Y-135633750D01*
G75*
G02*
X123758750Y-135415000I218750J0D01*
G01*
X124196250Y-135415000D01*
G75*
G02*
X124415000Y-135633750I0J-218750D01*
G01*
X124415000Y-136146250D01*
G75*
G02*
X124196250Y-136365000I-218750J0D01*
G01*
X123758750Y-136365000D01*
G75*
G02*
X123540000Y-136146250I0J218750D01*
G01*
G37*
G36*
G01*
X129306000Y-114556250D02*
X129306000Y-114043750D01*
G75*
G02*
X129524750Y-113825000I218750J0D01*
G01*
X129962250Y-113825000D01*
G75*
G02*
X130181000Y-114043750I0J-218750D01*
G01*
X130181000Y-114556250D01*
G75*
G02*
X129962250Y-114775000I-218750J0D01*
G01*
X129524750Y-114775000D01*
G75*
G02*
X129306000Y-114556250I0J218750D01*
G01*
G37*
G36*
G01*
X127731000Y-114556250D02*
X127731000Y-114043750D01*
G75*
G02*
X127949750Y-113825000I218750J0D01*
G01*
X128387250Y-113825000D01*
G75*
G02*
X128606000Y-114043750I0J-218750D01*
G01*
X128606000Y-114556250D01*
G75*
G02*
X128387250Y-114775000I-218750J0D01*
G01*
X127949750Y-114775000D01*
G75*
G02*
X127731000Y-114556250I0J218750D01*
G01*
G37*
G36*
G01*
X128706000Y-129591750D02*
X128706000Y-130504250D01*
G75*
G02*
X128462250Y-130748000I-243750J0D01*
G01*
X127974750Y-130748000D01*
G75*
G02*
X127731000Y-130504250I0J243750D01*
G01*
X127731000Y-129591750D01*
G75*
G02*
X127974750Y-129348000I243750J0D01*
G01*
X128462250Y-129348000D01*
G75*
G02*
X128706000Y-129591750I0J-243750D01*
G01*
G37*
G36*
G01*
X130581000Y-129591750D02*
X130581000Y-130504250D01*
G75*
G02*
X130337250Y-130748000I-243750J0D01*
G01*
X129849750Y-130748000D01*
G75*
G02*
X129606000Y-130504250I0J243750D01*
G01*
X129606000Y-129591750D01*
G75*
G02*
X129849750Y-129348000I243750J0D01*
G01*
X130337250Y-129348000D01*
G75*
G02*
X130581000Y-129591750I0J-243750D01*
G01*
G37*
G36*
G01*
X117898000Y-112403000D02*
X116798000Y-112403000D01*
G75*
G02*
X116548000Y-112153000I0J250000D01*
G01*
X116548000Y-110053000D01*
G75*
G02*
X116798000Y-109803000I250000J0D01*
G01*
X117898000Y-109803000D01*
G75*
G02*
X118148000Y-110053000I0J-250000D01*
G01*
X118148000Y-112153000D01*
G75*
G02*
X117898000Y-112403000I-250000J0D01*
G01*
G37*
G36*
G01*
X117898000Y-116003000D02*
X116798000Y-116003000D01*
G75*
G02*
X116548000Y-115753000I0J250000D01*
G01*
X116548000Y-113653000D01*
G75*
G02*
X116798000Y-113403000I250000J0D01*
G01*
X117898000Y-113403000D01*
G75*
G02*
X118148000Y-113653000I0J-250000D01*
G01*
X118148000Y-115753000D01*
G75*
G02*
X117898000Y-116003000I-250000J0D01*
G01*
G37*
G36*
G01*
X124115000Y-129591750D02*
X124115000Y-130504250D01*
G75*
G02*
X123871250Y-130748000I-243750J0D01*
G01*
X123383750Y-130748000D01*
G75*
G02*
X123140000Y-130504250I0J243750D01*
G01*
X123140000Y-129591750D01*
G75*
G02*
X123383750Y-129348000I243750J0D01*
G01*
X123871250Y-129348000D01*
G75*
G02*
X124115000Y-129591750I0J-243750D01*
G01*
G37*
G36*
G01*
X125990000Y-129591750D02*
X125990000Y-130504250D01*
G75*
G02*
X125746250Y-130748000I-243750J0D01*
G01*
X125258750Y-130748000D01*
G75*
G02*
X125015000Y-130504250I0J243750D01*
G01*
X125015000Y-129591750D01*
G75*
G02*
X125258750Y-129348000I243750J0D01*
G01*
X125746250Y-129348000D01*
G75*
G02*
X125990000Y-129591750I0J-243750D01*
G01*
G37*
G36*
G01*
X128606000Y-126743750D02*
X128606000Y-127256250D01*
G75*
G02*
X128387250Y-127475000I-218750J0D01*
G01*
X127949750Y-127475000D01*
G75*
G02*
X127731000Y-127256250I0J218750D01*
G01*
X127731000Y-126743750D01*
G75*
G02*
X127949750Y-126525000I218750J0D01*
G01*
X128387250Y-126525000D01*
G75*
G02*
X128606000Y-126743750I0J-218750D01*
G01*
G37*
G36*
G01*
X130181000Y-126743750D02*
X130181000Y-127256250D01*
G75*
G02*
X129962250Y-127475000I-218750J0D01*
G01*
X129524750Y-127475000D01*
G75*
G02*
X129306000Y-127256250I0J218750D01*
G01*
X129306000Y-126743750D01*
G75*
G02*
X129524750Y-126525000I218750J0D01*
G01*
X129962250Y-126525000D01*
G75*
G02*
X130181000Y-126743750I0J-218750D01*
G01*
G37*
G36*
G01*
X124415000Y-126743750D02*
X124415000Y-127256250D01*
G75*
G02*
X124196250Y-127475000I-218750J0D01*
G01*
X123758750Y-127475000D01*
G75*
G02*
X123540000Y-127256250I0J218750D01*
G01*
X123540000Y-126743750D01*
G75*
G02*
X123758750Y-126525000I218750J0D01*
G01*
X124196250Y-126525000D01*
G75*
G02*
X124415000Y-126743750I0J-218750D01*
G01*
G37*
G36*
G01*
X125990000Y-126743750D02*
X125990000Y-127256250D01*
G75*
G02*
X125771250Y-127475000I-218750J0D01*
G01*
X125333750Y-127475000D01*
G75*
G02*
X125115000Y-127256250I0J218750D01*
G01*
X125115000Y-126743750D01*
G75*
G02*
X125333750Y-126525000I218750J0D01*
G01*
X125771250Y-126525000D01*
G75*
G02*
X125990000Y-126743750I0J-218750D01*
G01*
G37*
G36*
G01*
X125115000Y-114556250D02*
X125115000Y-114043750D01*
G75*
G02*
X125333750Y-113825000I218750J0D01*
G01*
X125771250Y-113825000D01*
G75*
G02*
X125990000Y-114043750I0J-218750D01*
G01*
X125990000Y-114556250D01*
G75*
G02*
X125771250Y-114775000I-218750J0D01*
G01*
X125333750Y-114775000D01*
G75*
G02*
X125115000Y-114556250I0J218750D01*
G01*
G37*
G36*
G01*
X123540000Y-114556250D02*
X123540000Y-114043750D01*
G75*
G02*
X123758750Y-113825000I218750J0D01*
G01*
X124196250Y-113825000D01*
G75*
G02*
X124415000Y-114043750I0J-218750D01*
G01*
X124415000Y-114556250D01*
G75*
G02*
X124196250Y-114775000I-218750J0D01*
G01*
X123758750Y-114775000D01*
G75*
G02*
X123540000Y-114556250I0J218750D01*
G01*
G37*
G36*
G01*
X136948000Y-112403000D02*
X135848000Y-112403000D01*
G75*
G02*
X135598000Y-112153000I0J250000D01*
G01*
X135598000Y-110053000D01*
G75*
G02*
X135848000Y-109803000I250000J0D01*
G01*
X136948000Y-109803000D01*
G75*
G02*
X137198000Y-110053000I0J-250000D01*
G01*
X137198000Y-112153000D01*
G75*
G02*
X136948000Y-112403000I-250000J0D01*
G01*
G37*
G36*
G01*
X136948000Y-116003000D02*
X135848000Y-116003000D01*
G75*
G02*
X135598000Y-115753000I0J250000D01*
G01*
X135598000Y-113653000D01*
G75*
G02*
X135848000Y-113403000I250000J0D01*
G01*
X136948000Y-113403000D01*
G75*
G02*
X137198000Y-113653000I0J-250000D01*
G01*
X137198000Y-115753000D01*
G75*
G02*
X136948000Y-116003000I-250000J0D01*
G01*
G37*
G36*
G01*
X120681000Y-69212750D02*
X120681000Y-69725250D01*
G75*
G02*
X120462250Y-69944000I-218750J0D01*
G01*
X120024750Y-69944000D01*
G75*
G02*
X119806000Y-69725250I0J218750D01*
G01*
X119806000Y-69212750D01*
G75*
G02*
X120024750Y-68994000I218750J0D01*
G01*
X120462250Y-68994000D01*
G75*
G02*
X120681000Y-69212750I0J-218750D01*
G01*
G37*
G36*
G01*
X122256000Y-69212750D02*
X122256000Y-69725250D01*
G75*
G02*
X122037250Y-69944000I-218750J0D01*
G01*
X121599750Y-69944000D01*
G75*
G02*
X121381000Y-69725250I0J218750D01*
G01*
X121381000Y-69212750D01*
G75*
G02*
X121599750Y-68994000I218750J0D01*
G01*
X122037250Y-68994000D01*
G75*
G02*
X122256000Y-69212750I0J-218750D01*
G01*
G37*
G36*
G01*
X124872000Y-66037750D02*
X124872000Y-66550250D01*
G75*
G02*
X124653250Y-66769000I-218750J0D01*
G01*
X124215750Y-66769000D01*
G75*
G02*
X123997000Y-66550250I0J218750D01*
G01*
X123997000Y-66037750D01*
G75*
G02*
X124215750Y-65819000I218750J0D01*
G01*
X124653250Y-65819000D01*
G75*
G02*
X124872000Y-66037750I0J-218750D01*
G01*
G37*
G36*
G01*
X126447000Y-66037750D02*
X126447000Y-66550250D01*
G75*
G02*
X126228250Y-66769000I-218750J0D01*
G01*
X125790750Y-66769000D01*
G75*
G02*
X125572000Y-66550250I0J218750D01*
G01*
X125572000Y-66037750D01*
G75*
G02*
X125790750Y-65819000I218750J0D01*
G01*
X126228250Y-65819000D01*
G75*
G02*
X126447000Y-66037750I0J-218750D01*
G01*
G37*
G36*
G01*
X120681000Y-72006750D02*
X120681000Y-72519250D01*
G75*
G02*
X120462250Y-72738000I-218750J0D01*
G01*
X120024750Y-72738000D01*
G75*
G02*
X119806000Y-72519250I0J218750D01*
G01*
X119806000Y-72006750D01*
G75*
G02*
X120024750Y-71788000I218750J0D01*
G01*
X120462250Y-71788000D01*
G75*
G02*
X120681000Y-72006750I0J-218750D01*
G01*
G37*
G36*
G01*
X122256000Y-72006750D02*
X122256000Y-72519250D01*
G75*
G02*
X122037250Y-72738000I-218750J0D01*
G01*
X121599750Y-72738000D01*
G75*
G02*
X121381000Y-72519250I0J218750D01*
G01*
X121381000Y-72006750D01*
G75*
G02*
X121599750Y-71788000I218750J0D01*
G01*
X122037250Y-71788000D01*
G75*
G02*
X122256000Y-72006750I0J-218750D01*
G01*
G37*
G36*
G01*
X123602000Y-88897750D02*
X123602000Y-89410250D01*
G75*
G02*
X123383250Y-89629000I-218750J0D01*
G01*
X122945750Y-89629000D01*
G75*
G02*
X122727000Y-89410250I0J218750D01*
G01*
X122727000Y-88897750D01*
G75*
G02*
X122945750Y-88679000I218750J0D01*
G01*
X123383250Y-88679000D01*
G75*
G02*
X123602000Y-88897750I0J-218750D01*
G01*
G37*
G36*
G01*
X125177000Y-88897750D02*
X125177000Y-89410250D01*
G75*
G02*
X124958250Y-89629000I-218750J0D01*
G01*
X124520750Y-89629000D01*
G75*
G02*
X124302000Y-89410250I0J218750D01*
G01*
X124302000Y-88897750D01*
G75*
G02*
X124520750Y-88679000I218750J0D01*
G01*
X124958250Y-88679000D01*
G75*
G02*
X125177000Y-88897750I0J-218750D01*
G01*
G37*
G36*
G01*
X129382000Y-92204250D02*
X129382000Y-91691750D01*
G75*
G02*
X129600750Y-91473000I218750J0D01*
G01*
X130038250Y-91473000D01*
G75*
G02*
X130257000Y-91691750I0J-218750D01*
G01*
X130257000Y-92204250D01*
G75*
G02*
X130038250Y-92423000I-218750J0D01*
G01*
X129600750Y-92423000D01*
G75*
G02*
X129382000Y-92204250I0J218750D01*
G01*
G37*
G36*
G01*
X127807000Y-92204250D02*
X127807000Y-91691750D01*
G75*
G02*
X128025750Y-91473000I218750J0D01*
G01*
X128463250Y-91473000D01*
G75*
G02*
X128682000Y-91691750I0J-218750D01*
G01*
X128682000Y-92204250D01*
G75*
G02*
X128463250Y-92423000I-218750J0D01*
G01*
X128025750Y-92423000D01*
G75*
G02*
X127807000Y-92204250I0J218750D01*
G01*
G37*
G36*
G01*
X136240000Y-78869250D02*
X136240000Y-78356750D01*
G75*
G02*
X136458750Y-78138000I218750J0D01*
G01*
X136896250Y-78138000D01*
G75*
G02*
X137115000Y-78356750I0J-218750D01*
G01*
X137115000Y-78869250D01*
G75*
G02*
X136896250Y-79088000I-218750J0D01*
G01*
X136458750Y-79088000D01*
G75*
G02*
X136240000Y-78869250I0J218750D01*
G01*
G37*
G36*
G01*
X134665000Y-78869250D02*
X134665000Y-78356750D01*
G75*
G02*
X134883750Y-78138000I218750J0D01*
G01*
X135321250Y-78138000D01*
G75*
G02*
X135540000Y-78356750I0J-218750D01*
G01*
X135540000Y-78869250D01*
G75*
G02*
X135321250Y-79088000I-218750J0D01*
G01*
X134883750Y-79088000D01*
G75*
G02*
X134665000Y-78869250I0J218750D01*
G01*
G37*
G36*
G01*
X129382000Y-89410250D02*
X129382000Y-88897750D01*
G75*
G02*
X129600750Y-88679000I218750J0D01*
G01*
X130038250Y-88679000D01*
G75*
G02*
X130257000Y-88897750I0J-218750D01*
G01*
X130257000Y-89410250D01*
G75*
G02*
X130038250Y-89629000I-218750J0D01*
G01*
X129600750Y-89629000D01*
G75*
G02*
X129382000Y-89410250I0J218750D01*
G01*
G37*
G36*
G01*
X127807000Y-89410250D02*
X127807000Y-88897750D01*
G75*
G02*
X128025750Y-88679000I218750J0D01*
G01*
X128463250Y-88679000D01*
G75*
G02*
X128682000Y-88897750I0J-218750D01*
G01*
X128682000Y-89410250D01*
G75*
G02*
X128463250Y-89629000I-218750J0D01*
G01*
X128025750Y-89629000D01*
G75*
G02*
X127807000Y-89410250I0J218750D01*
G01*
G37*
G36*
G01*
X136240000Y-76075250D02*
X136240000Y-75562750D01*
G75*
G02*
X136458750Y-75344000I218750J0D01*
G01*
X136896250Y-75344000D01*
G75*
G02*
X137115000Y-75562750I0J-218750D01*
G01*
X137115000Y-76075250D01*
G75*
G02*
X136896250Y-76294000I-218750J0D01*
G01*
X136458750Y-76294000D01*
G75*
G02*
X136240000Y-76075250I0J218750D01*
G01*
G37*
G36*
G01*
X134665000Y-76075250D02*
X134665000Y-75562750D01*
G75*
G02*
X134883750Y-75344000I218750J0D01*
G01*
X135321250Y-75344000D01*
G75*
G02*
X135540000Y-75562750I0J-218750D01*
G01*
X135540000Y-76075250D01*
G75*
G02*
X135321250Y-76294000I-218750J0D01*
G01*
X134883750Y-76294000D01*
G75*
G02*
X134665000Y-76075250I0J218750D01*
G01*
G37*
G36*
G01*
X123602000Y-91691750D02*
X123602000Y-92204250D01*
G75*
G02*
X123383250Y-92423000I-218750J0D01*
G01*
X122945750Y-92423000D01*
G75*
G02*
X122727000Y-92204250I0J218750D01*
G01*
X122727000Y-91691750D01*
G75*
G02*
X122945750Y-91473000I218750J0D01*
G01*
X123383250Y-91473000D01*
G75*
G02*
X123602000Y-91691750I0J-218750D01*
G01*
G37*
G36*
G01*
X125177000Y-91691750D02*
X125177000Y-92204250D01*
G75*
G02*
X124958250Y-92423000I-218750J0D01*
G01*
X124520750Y-92423000D01*
G75*
G02*
X124302000Y-92204250I0J218750D01*
G01*
X124302000Y-91691750D01*
G75*
G02*
X124520750Y-91473000I218750J0D01*
G01*
X124958250Y-91473000D01*
G75*
G02*
X125177000Y-91691750I0J-218750D01*
G01*
G37*
G36*
G01*
X117506000Y-78102750D02*
X117506000Y-78615250D01*
G75*
G02*
X117287250Y-78834000I-218750J0D01*
G01*
X116849750Y-78834000D01*
G75*
G02*
X116631000Y-78615250I0J218750D01*
G01*
X116631000Y-78102750D01*
G75*
G02*
X116849750Y-77884000I218750J0D01*
G01*
X117287250Y-77884000D01*
G75*
G02*
X117506000Y-78102750I0J-218750D01*
G01*
G37*
G36*
G01*
X119081000Y-78102750D02*
X119081000Y-78615250D01*
G75*
G02*
X118862250Y-78834000I-218750J0D01*
G01*
X118424750Y-78834000D01*
G75*
G02*
X118206000Y-78615250I0J218750D01*
G01*
X118206000Y-78102750D01*
G75*
G02*
X118424750Y-77884000I218750J0D01*
G01*
X118862250Y-77884000D01*
G75*
G02*
X119081000Y-78102750I0J-218750D01*
G01*
G37*
G36*
G01*
X117506000Y-75308750D02*
X117506000Y-75821250D01*
G75*
G02*
X117287250Y-76040000I-218750J0D01*
G01*
X116849750Y-76040000D01*
G75*
G02*
X116631000Y-75821250I0J218750D01*
G01*
X116631000Y-75308750D01*
G75*
G02*
X116849750Y-75090000I218750J0D01*
G01*
X117287250Y-75090000D01*
G75*
G02*
X117506000Y-75308750I0J-218750D01*
G01*
G37*
G36*
G01*
X119081000Y-75308750D02*
X119081000Y-75821250D01*
G75*
G02*
X118862250Y-76040000I-218750J0D01*
G01*
X118424750Y-76040000D01*
G75*
G02*
X118206000Y-75821250I0J218750D01*
G01*
X118206000Y-75308750D01*
G75*
G02*
X118424750Y-75090000I218750J0D01*
G01*
X118862250Y-75090000D01*
G75*
G02*
X119081000Y-75308750I0J-218750D01*
G01*
G37*
G36*
G01*
X108743000Y-84833750D02*
X108743000Y-85346250D01*
G75*
G02*
X108524250Y-85565000I-218750J0D01*
G01*
X108086750Y-85565000D01*
G75*
G02*
X107868000Y-85346250I0J218750D01*
G01*
X107868000Y-84833750D01*
G75*
G02*
X108086750Y-84615000I218750J0D01*
G01*
X108524250Y-84615000D01*
G75*
G02*
X108743000Y-84833750I0J-218750D01*
G01*
G37*
G36*
G01*
X110318000Y-84833750D02*
X110318000Y-85346250D01*
G75*
G02*
X110099250Y-85565000I-218750J0D01*
G01*
X109661750Y-85565000D01*
G75*
G02*
X109443000Y-85346250I0J218750D01*
G01*
X109443000Y-84833750D01*
G75*
G02*
X109661750Y-84615000I218750J0D01*
G01*
X110099250Y-84615000D01*
G75*
G02*
X110318000Y-84833750I0J-218750D01*
G01*
G37*
G36*
G01*
X118333000Y-96268250D02*
X118333000Y-95755750D01*
G75*
G02*
X118551750Y-95537000I218750J0D01*
G01*
X118989250Y-95537000D01*
G75*
G02*
X119208000Y-95755750I0J-218750D01*
G01*
X119208000Y-96268250D01*
G75*
G02*
X118989250Y-96487000I-218750J0D01*
G01*
X118551750Y-96487000D01*
G75*
G02*
X118333000Y-96268250I0J218750D01*
G01*
G37*
G36*
G01*
X116758000Y-96268250D02*
X116758000Y-95755750D01*
G75*
G02*
X116976750Y-95537000I218750J0D01*
G01*
X117414250Y-95537000D01*
G75*
G02*
X117633000Y-95755750I0J-218750D01*
G01*
X117633000Y-96268250D01*
G75*
G02*
X117414250Y-96487000I-218750J0D01*
G01*
X116976750Y-96487000D01*
G75*
G02*
X116758000Y-96268250I0J218750D01*
G01*
G37*
G36*
G01*
X117684000Y-86103750D02*
X117684000Y-86616250D01*
G75*
G02*
X117465250Y-86835000I-218750J0D01*
G01*
X117027750Y-86835000D01*
G75*
G02*
X116809000Y-86616250I0J218750D01*
G01*
X116809000Y-86103750D01*
G75*
G02*
X117027750Y-85885000I218750J0D01*
G01*
X117465250Y-85885000D01*
G75*
G02*
X117684000Y-86103750I0J-218750D01*
G01*
G37*
G36*
G01*
X119259000Y-86103750D02*
X119259000Y-86616250D01*
G75*
G02*
X119040250Y-86835000I-218750J0D01*
G01*
X118602750Y-86835000D01*
G75*
G02*
X118384000Y-86616250I0J218750D01*
G01*
X118384000Y-86103750D01*
G75*
G02*
X118602750Y-85885000I218750J0D01*
G01*
X119040250Y-85885000D01*
G75*
G02*
X119259000Y-86103750I0J-218750D01*
G01*
G37*
M02*
