M48
; DRILL file {KiCad (5.1.8)-1} date 12/03/20 10:56:51
; FORMAT={-:-/ absolute / inch / decimal}
; #@! TF.CreationDate,2020-12-03T10:56:51+08:00
; #@! TF.GenerationSoftware,Kicad,Pcbnew,(5.1.8)-1
; #@! TF.FileFunction,Plated,1,4,PTH
FMAT,2
INCH
T1C0.0157
T2C0.0197
T3C0.0236
T4C0.0295
T5C0.0300
T6C0.0354
T7C0.0394
T8C0.0433
T9C0.0591
%
G90
G05
T1
X4.065Y-3.795
X4.065Y-4.3
X4.1181Y-2.7837
X4.139Y-3.5263
X4.15Y-2.031
X4.2012Y-5.3044
X4.2215Y-3.2556
X4.223Y-3.3442
X4.2292Y-5.6992
X4.2519Y-4.0276
X4.3384Y-3.7222
X4.365Y-4.14
X4.3867Y-5.2674
X4.4059Y-2.0835
X4.5044Y-5.2361
X4.51Y-4.817
X4.515Y-5.3269
X4.52Y-3.9767
X4.53Y-5.1306
X4.53Y-5.76
X4.5556Y-5.3629
X4.5572Y-3.5332
X4.5576Y-4.2765
X4.561Y-2.318
X4.561Y-2.4325
X4.5647Y-4.4667
X4.609Y-3.03
X4.6456Y-5.3456
X4.6599Y-4.9059
X4.6753Y-4.3188
X4.685Y-2.66
X4.6864Y-3.7121
X4.734Y-2.79
X4.745Y-3.1391
X4.7975Y-4.185
X4.8374Y-3.0228
X4.8385Y-4.9988
X4.8391Y-4.5154
X4.849Y-3.565
X4.854Y-5.769
X4.8594Y-3.201
X4.8665Y-2.5775
X4.8798Y-4.5901
X4.881Y-6.0329
X4.8829Y-2.9209
X4.885Y-2.225
X4.8949Y-3.1598
X4.9027Y-3.1158
X4.9054Y-4.8238
X4.911Y-3.565
X4.9284Y-4.5904
X4.9289Y-4.9304
X4.9381Y-3.1366
X4.94Y-3.19
X4.941Y-2.293
X4.943Y-5.0429
X4.965Y-2.785
X4.965Y-2.895
X4.9654Y-3.0532
X4.985Y-2.29
X4.9945Y-5.35
X5.01Y-3.32
X5.0135Y-2.3225
X5.0334Y-4.5903
X5.0381Y-3.2927
X5.044Y-2.665
X5.046Y-5.9476
X5.0475Y-4.2725
X5.049Y-3.455
X5.05Y-2.57
X5.05Y-3.87
X5.05Y-4.17
X5.0552Y-2.8105
X5.0557Y-4.9454
X5.0654Y-2.2752
X5.0698Y-5.7706
X5.0953Y-4.5906
X5.0994Y-3.1412
X5.105Y-4.435
X5.111Y-3.565
X5.113Y-3.4073
X5.1145Y-4.9286
X5.125Y-2.995
X5.1377Y-3.1925
X5.155Y-2.96
X5.1692Y-2.5643
X5.19Y-4.435
X5.2347Y-3.0656
X5.2584Y-2.2543
X5.2625Y-3.872
X5.2982Y-4.9687
X5.305Y-4.175
X5.3155Y-3.2165
X5.3173Y-4.2564
X5.319Y-3.04
X5.3331Y-3.6547
X5.3351Y-2.8151
X5.346Y-5.2979
X5.375Y-3.275
X5.381Y-2.9425
X5.3874Y-3.5313
X5.4256Y-4.4667
X5.4261Y-4.3205
X5.4344Y-5.2377
X5.4411Y-5.3636
X5.445Y-5.11
X5.4679Y-4.1437
X5.485Y-5.31
X5.5422Y-5.2763
X5.5665Y-4.9027
X5.6Y-3.15
X5.6Y-3.2
X5.6Y-3.25
X5.6Y-3.3
X5.6006Y-5.3037
X5.65Y-3.15
X5.65Y-3.2
X5.65Y-3.25
X5.65Y-3.3
X5.7Y-3.15
X5.7Y-3.2
X5.7Y-3.25
X5.75Y-3.25
X5.79Y-3.8
X5.79Y-4.295
X5.8Y-3.25
X5.805Y-4.122
X5.85Y-3.15
X5.85Y-3.2
X5.85Y-3.25
X5.9Y-3.15
X5.9Y-3.2
X5.9Y-3.25
X5.9Y-3.3
T2
X4.955Y-5.915
X4.99Y-6.05
T4
X4.8Y-2.675
X5.42Y-2.18
X5.425Y-2.67
X5.44Y-3.765
X5.605Y-3.395
X5.6463Y-3.0467
X5.675Y-2.2175
X5.925Y-2.8075
T5
X5.689Y-3.682
X5.689Y-3.917
X4.292Y-3.683
X4.292Y-3.918
X4.293Y-4.182
X4.293Y-4.417
X5.695Y-4.18
X5.695Y-4.415
T7
X5.77Y-2.2019
X5.77Y-2.3019
X5.77Y-2.4019
X5.77Y-2.5019
X5.77Y-2.6019
X5.87Y-2.2019
X5.87Y-2.3019
X5.87Y-2.4019
X5.87Y-2.5019
X5.87Y-2.6019
X4.897Y-3.7745
X4.897Y-4.3454
X4.9954Y-4.3454
X5.0939Y-3.7745
X5.0939Y-4.3454
X4.325Y-2.275
X4.325Y-2.375
X4.325Y-2.475
X5.521Y-2.953
X5.521Y-3.053
X5.521Y-3.153
X5.521Y-3.253
X4.71Y-2.265
X4.71Y-2.365
X4.71Y-2.465
X4.71Y-2.565
X4.6967Y-2.0419
X4.7967Y-2.0419
X4.8967Y-2.0419
X4.9967Y-2.0419
X5.0967Y-2.0419
X5.1967Y-2.0419
X5.2967Y-2.0419
T8
X4.207Y-3.1721
X4.207Y-3.428
X4.3842Y-3.1721
X4.3842Y-3.428
X5.564Y-3.712
X5.564Y-3.8892
X5.8199Y-3.712
X5.8199Y-3.8892
X4.167Y-3.713
X4.167Y-3.8902
X4.4229Y-3.713
X4.4229Y-3.8902
X4.168Y-4.212
X4.168Y-4.3892
X4.4239Y-4.212
X4.4239Y-4.3892
X5.57Y-4.21
X5.57Y-4.3872
X5.8259Y-4.21
X5.8259Y-4.3872
T2
G00X4.2743Y-4.6063
M15
G01X4.3176Y-4.6063
M16
G05
G00X5.2063Y-4.6063
M15
G01X5.2496Y-4.6063
M16
G05
G00X4.7404Y-5.6063
M15
G01X4.7837Y-5.6063
M16
G05
G00X5.2496Y-5.4937
M15
G01X5.2063Y-5.4937
M16
G05
G00X4.2733Y-5.6063
M15
G01X4.3167Y-5.6063
M16
G05
G00X4.7826Y-5.4937
M15
G01X4.7393Y-5.4937
M16
G05
G00X5.7167Y-5.4937
M15
G01X5.6733Y-5.4937
M16
G05
G00X4.3167Y-5.4937
M15
G01X4.2733Y-5.4937
M16
G05
G00X5.6733Y-4.6063
M15
G01X5.7167Y-4.6063
M16
G05
G00X5.6733Y-5.6063
M15
G01X5.7167Y-5.6063
M16
G05
G00X5.2063Y-5.6063
M15
G01X5.2496Y-5.6063
M16
G05
G00X4.7404Y-4.6063
M15
G01X4.7837Y-4.6063
M16
G05
T3
G00X4.2763Y-4.9331
M15
G01X4.3157Y-4.9331
M16
G05
G00X5.2083Y-4.9331
M15
G01X5.2477Y-4.9331
M16
G05
G00X4.7423Y-5.9331
M15
G01X4.7817Y-5.9331
M16
G05
G00X4.7463Y-6.0421
M15
G01X4.7778Y-6.0421
M16
G05
G00X5.2477Y-5.1669
M15
G01X5.2083Y-5.1669
M16
G05
G00X4.2753Y-5.9331
M15
G01X4.3147Y-5.9331
M16
G05
G00X4.2793Y-6.0421
M15
G01X4.3107Y-6.0421
M16
G05
G00X4.7807Y-5.1669
M15
G01X4.7413Y-5.1669
M16
G05
G00X5.7147Y-5.1669
M15
G01X5.6753Y-5.1669
M16
G05
G00X4.3147Y-5.1669
M15
G01X4.2753Y-5.1669
M16
G05
G00X5.6753Y-4.9331
M15
G01X5.7147Y-4.9331
M16
G05
G00X5.6753Y-5.9331
M15
G01X5.7147Y-5.9331
M16
G05
G00X5.6793Y-6.0421
M15
G01X5.7107Y-6.0421
M16
G05
G00X5.2083Y-5.9331
M15
G01X5.2477Y-5.9331
M16
G05
G00X5.2122Y-6.0421
M15
G01X5.2437Y-6.0421
M16
G05
G00X4.7423Y-4.9331
M15
G01X4.7817Y-4.9331
M16
G05
T6
G00X5.2378Y-5.05
M15
G01X5.2181Y-5.05
M16
G05
G00X4.7708Y-5.05
M15
G01X4.7511Y-5.05
M16
G05
G00X5.7048Y-5.05
M15
G01X5.6852Y-5.05
M16
G05
G00X4.3048Y-5.05
M15
G01X4.2852Y-5.05
M16
G05
T9
G00X4.775Y-4.0757
M15
G01X4.775Y-4.0245
M16
G05
G00X5.2159Y-4.0757
M15
G01X5.2159Y-4.0245
M16
G05
T0
M30
