G04 #@! TF.GenerationSoftware,KiCad,Pcbnew,(5.1.8)-1*
G04 #@! TF.CreationDate,2020-12-03T10:56:57+08:00*
G04 #@! TF.ProjectId,Waves,57617665-732e-46b6-9963-61645f706362,rev?*
G04 #@! TF.SameCoordinates,Original*
G04 #@! TF.FileFunction,Legend,Bot*
G04 #@! TF.FilePolarity,Positive*
%FSLAX46Y46*%
G04 Gerber Fmt 4.6, Leading zero omitted, Abs format (unit mm)*
G04 Created by KiCad (PCBNEW (5.1.8)-1) date 2020-12-03 10:56:57*
%MOMM*%
%LPD*%
G01*
G04 APERTURE LIST*
%ADD10C,0.120000*%
%ADD11C,0.250000*%
%ADD12C,0.200000*%
%ADD13C,0.150000*%
G04 APERTURE END LIST*
D10*
X150221904Y-118828333D02*
X149840952Y-118561666D01*
X150221904Y-118371190D02*
X149421904Y-118371190D01*
X149421904Y-118675952D01*
X149460000Y-118752142D01*
X149498095Y-118790237D01*
X149574285Y-118828333D01*
X149688571Y-118828333D01*
X149764761Y-118790237D01*
X149802857Y-118752142D01*
X149840952Y-118675952D01*
X149840952Y-118371190D01*
X150183809Y-119475952D02*
X150221904Y-119399761D01*
X150221904Y-119247380D01*
X150183809Y-119171190D01*
X150107619Y-119133095D01*
X149802857Y-119133095D01*
X149726666Y-119171190D01*
X149688571Y-119247380D01*
X149688571Y-119399761D01*
X149726666Y-119475952D01*
X149802857Y-119514047D01*
X149879047Y-119514047D01*
X149955238Y-119133095D01*
X149688571Y-119780714D02*
X150221904Y-119971190D01*
X149688571Y-120161666D01*
X149802857Y-121342618D02*
X149840952Y-121456904D01*
X149879047Y-121494999D01*
X149955238Y-121533095D01*
X150069523Y-121533095D01*
X150145714Y-121494999D01*
X150183809Y-121456904D01*
X150221904Y-121380714D01*
X150221904Y-121075952D01*
X149421904Y-121075952D01*
X149421904Y-121342618D01*
X149460000Y-121418809D01*
X149498095Y-121456904D01*
X149574285Y-121494999D01*
X149650476Y-121494999D01*
X149726666Y-121456904D01*
X149764761Y-121418809D01*
X149802857Y-121342618D01*
X149802857Y-121075952D01*
D11*
X103132142Y-127610714D02*
X106132142Y-129039285D01*
X103989285Y-130182143D01*
X106132142Y-131325000D01*
X103132142Y-132753571D01*
X106132142Y-137610714D02*
X104560714Y-137610714D01*
X104275000Y-137325000D01*
X104132142Y-136753571D01*
X104132142Y-135610714D01*
X104275000Y-135039285D01*
X105989285Y-137610714D02*
X106132142Y-137039285D01*
X106132142Y-135610714D01*
X105989285Y-135039285D01*
X105703571Y-134753571D01*
X105417857Y-134753571D01*
X105132142Y-135039285D01*
X104989285Y-135610714D01*
X104989285Y-137039285D01*
X104846428Y-137610714D01*
X104132142Y-139896428D02*
X106132142Y-141325000D01*
X104132142Y-142753571D01*
X105989285Y-147325000D02*
X106132142Y-146753571D01*
X106132142Y-145610714D01*
X105989285Y-145039285D01*
X105703571Y-144753571D01*
X104560714Y-144753571D01*
X104275000Y-145039285D01*
X104132142Y-145610714D01*
X104132142Y-146753571D01*
X104275000Y-147325000D01*
X104560714Y-147610714D01*
X104846428Y-147610714D01*
X105132142Y-144753571D01*
X105989285Y-149896428D02*
X106132142Y-150467857D01*
X106132142Y-151610714D01*
X105989285Y-152182143D01*
X105703571Y-152467857D01*
X105560714Y-152467857D01*
X105275000Y-152182143D01*
X105132142Y-151610714D01*
X105132142Y-150753571D01*
X104989285Y-150182143D01*
X104703571Y-149896428D01*
X104560714Y-149896428D01*
X104275000Y-150182143D01*
X104132142Y-150753571D01*
X104132142Y-151610714D01*
X104275000Y-152182143D01*
D10*
X150348904Y-142551761D02*
X149548904Y-142551761D01*
X150120333Y-142818428D01*
X149548904Y-143085095D01*
X150348904Y-143085095D01*
X150348904Y-143808904D02*
X149929857Y-143808904D01*
X149853666Y-143770809D01*
X149815571Y-143694619D01*
X149815571Y-143542238D01*
X149853666Y-143466047D01*
X150310809Y-143808904D02*
X150348904Y-143732714D01*
X150348904Y-143542238D01*
X150310809Y-143466047D01*
X150234619Y-143427952D01*
X150158428Y-143427952D01*
X150082238Y-143466047D01*
X150044142Y-143542238D01*
X150044142Y-143732714D01*
X150006047Y-143808904D01*
X150348904Y-144189857D02*
X149815571Y-144189857D01*
X149967952Y-144189857D02*
X149891761Y-144227952D01*
X149853666Y-144266047D01*
X149815571Y-144342238D01*
X149815571Y-144418428D01*
X150348904Y-145027952D02*
X149929857Y-145027952D01*
X149853666Y-144989857D01*
X149815571Y-144913666D01*
X149815571Y-144761285D01*
X149853666Y-144685095D01*
X150310809Y-145027952D02*
X150348904Y-144951761D01*
X150348904Y-144761285D01*
X150310809Y-144685095D01*
X150234619Y-144647000D01*
X150158428Y-144647000D01*
X150082238Y-144685095D01*
X150044142Y-144761285D01*
X150044142Y-144951761D01*
X150006047Y-145027952D01*
X149815571Y-145408904D02*
X150348904Y-145408904D01*
X149891761Y-145408904D02*
X149853666Y-145447000D01*
X149815571Y-145523190D01*
X149815571Y-145637476D01*
X149853666Y-145713666D01*
X149929857Y-145751761D01*
X150348904Y-145751761D01*
X149815571Y-146475571D02*
X150463190Y-146475571D01*
X150539380Y-146437476D01*
X150577476Y-146399380D01*
X150615571Y-146323190D01*
X150615571Y-146208904D01*
X150577476Y-146132714D01*
X150310809Y-146475571D02*
X150348904Y-146399380D01*
X150348904Y-146247000D01*
X150310809Y-146170809D01*
X150272714Y-146132714D01*
X150196523Y-146094619D01*
X149967952Y-146094619D01*
X149891761Y-146132714D01*
X149853666Y-146170809D01*
X149815571Y-146247000D01*
X149815571Y-146399380D01*
X149853666Y-146475571D01*
X150348904Y-146856523D02*
X149815571Y-146856523D01*
X149548904Y-146856523D02*
X149587000Y-146818428D01*
X149625095Y-146856523D01*
X149587000Y-146894619D01*
X149548904Y-146856523D01*
X149625095Y-146856523D01*
X150310809Y-147199380D02*
X150348904Y-147275571D01*
X150348904Y-147427952D01*
X150310809Y-147504142D01*
X150234619Y-147542238D01*
X150196523Y-147542238D01*
X150120333Y-147504142D01*
X150082238Y-147427952D01*
X150082238Y-147313666D01*
X150044142Y-147237476D01*
X149967952Y-147199380D01*
X149929857Y-147199380D01*
X149853666Y-147237476D01*
X149815571Y-147313666D01*
X149815571Y-147427952D01*
X149853666Y-147504142D01*
X149815571Y-147770809D02*
X149815571Y-148075571D01*
X149548904Y-147885095D02*
X150234619Y-147885095D01*
X150310809Y-147923190D01*
X150348904Y-147999380D01*
X150348904Y-148075571D01*
X150348904Y-148456523D02*
X150310809Y-148380333D01*
X150272714Y-148342238D01*
X150196523Y-148304142D01*
X149967952Y-148304142D01*
X149891761Y-148342238D01*
X149853666Y-148380333D01*
X149815571Y-148456523D01*
X149815571Y-148570809D01*
X149853666Y-148647000D01*
X149891761Y-148685095D01*
X149967952Y-148723190D01*
X150196523Y-148723190D01*
X150272714Y-148685095D01*
X150310809Y-148647000D01*
X150348904Y-148570809D01*
X150348904Y-148456523D01*
X149625095Y-149637476D02*
X149587000Y-149675571D01*
X149548904Y-149751761D01*
X149548904Y-149942238D01*
X149587000Y-150018428D01*
X149625095Y-150056523D01*
X149701285Y-150094619D01*
X149777476Y-150094619D01*
X149891761Y-150056523D01*
X150348904Y-149599380D01*
X150348904Y-150094619D01*
X149548904Y-150589857D02*
X149548904Y-150666047D01*
X149587000Y-150742238D01*
X149625095Y-150780333D01*
X149701285Y-150818428D01*
X149853666Y-150856523D01*
X150044142Y-150856523D01*
X150196523Y-150818428D01*
X150272714Y-150780333D01*
X150310809Y-150742238D01*
X150348904Y-150666047D01*
X150348904Y-150589857D01*
X150310809Y-150513666D01*
X150272714Y-150475571D01*
X150196523Y-150437476D01*
X150044142Y-150399380D01*
X149853666Y-150399380D01*
X149701285Y-150437476D01*
X149625095Y-150475571D01*
X149587000Y-150513666D01*
X149548904Y-150589857D01*
X150348904Y-151618428D02*
X150348904Y-151161285D01*
X150348904Y-151389857D02*
X149548904Y-151389857D01*
X149663190Y-151313666D01*
X149739380Y-151237476D01*
X149777476Y-151161285D01*
X150348904Y-151999380D02*
X150348904Y-152151761D01*
X150310809Y-152227952D01*
X150272714Y-152266047D01*
X150158428Y-152342238D01*
X150006047Y-152380333D01*
X149701285Y-152380333D01*
X149625095Y-152342238D01*
X149587000Y-152304142D01*
X149548904Y-152227952D01*
X149548904Y-152075571D01*
X149587000Y-151999380D01*
X149625095Y-151961285D01*
X149701285Y-151923190D01*
X149891761Y-151923190D01*
X149967952Y-151961285D01*
X150006047Y-151999380D01*
X150044142Y-152075571D01*
X150044142Y-152227952D01*
X150006047Y-152304142D01*
X149967952Y-152342238D01*
X149891761Y-152380333D01*
X117620952Y-67036904D02*
X117620952Y-66236904D01*
X117278095Y-66313095D02*
X117240000Y-66275000D01*
X117163809Y-66236904D01*
X116973333Y-66236904D01*
X116897142Y-66275000D01*
X116859047Y-66313095D01*
X116820952Y-66389285D01*
X116820952Y-66465476D01*
X116859047Y-66579761D01*
X117316190Y-67036904D01*
X116820952Y-67036904D01*
X116020952Y-66960714D02*
X116059047Y-66998809D01*
X116173333Y-67036904D01*
X116249523Y-67036904D01*
X116363809Y-66998809D01*
X116440000Y-66922619D01*
X116478095Y-66846428D01*
X116516190Y-66694047D01*
X116516190Y-66579761D01*
X116478095Y-66427380D01*
X116440000Y-66351190D01*
X116363809Y-66275000D01*
X116249523Y-66236904D01*
X116173333Y-66236904D01*
X116059047Y-66275000D01*
X116020952Y-66313095D01*
X123164523Y-62338000D02*
X123240714Y-62299904D01*
X123355000Y-62299904D01*
X123469285Y-62338000D01*
X123545476Y-62414190D01*
X123583571Y-62490380D01*
X123621666Y-62642761D01*
X123621666Y-62757047D01*
X123583571Y-62909428D01*
X123545476Y-62985619D01*
X123469285Y-63061809D01*
X123355000Y-63099904D01*
X123278809Y-63099904D01*
X123164523Y-63061809D01*
X123126428Y-63023714D01*
X123126428Y-62757047D01*
X123278809Y-62757047D01*
X122783571Y-63099904D02*
X122783571Y-62299904D01*
X122326428Y-63099904D01*
X122326428Y-62299904D01*
X121945476Y-63099904D02*
X121945476Y-62299904D01*
X121755000Y-62299904D01*
X121640714Y-62338000D01*
X121564523Y-62414190D01*
X121526428Y-62490380D01*
X121488333Y-62642761D01*
X121488333Y-62757047D01*
X121526428Y-62909428D01*
X121564523Y-62985619D01*
X121640714Y-63061809D01*
X121755000Y-63099904D01*
X121945476Y-63099904D01*
X123164523Y-57131000D02*
X123240714Y-57092904D01*
X123355000Y-57092904D01*
X123469285Y-57131000D01*
X123545476Y-57207190D01*
X123583571Y-57283380D01*
X123621666Y-57435761D01*
X123621666Y-57550047D01*
X123583571Y-57702428D01*
X123545476Y-57778619D01*
X123469285Y-57854809D01*
X123355000Y-57892904D01*
X123278809Y-57892904D01*
X123164523Y-57854809D01*
X123126428Y-57816714D01*
X123126428Y-57550047D01*
X123278809Y-57550047D01*
X122783571Y-57892904D02*
X122783571Y-57092904D01*
X122326428Y-57892904D01*
X122326428Y-57092904D01*
X121945476Y-57892904D02*
X121945476Y-57092904D01*
X121755000Y-57092904D01*
X121640714Y-57131000D01*
X121564523Y-57207190D01*
X121526428Y-57283380D01*
X121488333Y-57435761D01*
X121488333Y-57550047D01*
X121526428Y-57702428D01*
X121564523Y-57778619D01*
X121640714Y-57854809D01*
X121755000Y-57892904D01*
X121945476Y-57892904D01*
X123526428Y-65474809D02*
X123412142Y-65512904D01*
X123221666Y-65512904D01*
X123145476Y-65474809D01*
X123107380Y-65436714D01*
X123069285Y-65360523D01*
X123069285Y-65284333D01*
X123107380Y-65208142D01*
X123145476Y-65170047D01*
X123221666Y-65131952D01*
X123374047Y-65093857D01*
X123450238Y-65055761D01*
X123488333Y-65017666D01*
X123526428Y-64941476D01*
X123526428Y-64865285D01*
X123488333Y-64789095D01*
X123450238Y-64751000D01*
X123374047Y-64712904D01*
X123183571Y-64712904D01*
X123069285Y-64751000D01*
X122726428Y-65512904D02*
X122726428Y-64712904D01*
X122535952Y-64712904D01*
X122421666Y-64751000D01*
X122345476Y-64827190D01*
X122307380Y-64903380D01*
X122269285Y-65055761D01*
X122269285Y-65170047D01*
X122307380Y-65322428D01*
X122345476Y-65398619D01*
X122421666Y-65474809D01*
X122535952Y-65512904D01*
X122726428Y-65512904D01*
X121964523Y-65284333D02*
X121583571Y-65284333D01*
X122040714Y-65512904D02*
X121774047Y-64712904D01*
X121507380Y-65512904D01*
X123507380Y-60394809D02*
X123393095Y-60432904D01*
X123202619Y-60432904D01*
X123126428Y-60394809D01*
X123088333Y-60356714D01*
X123050238Y-60280523D01*
X123050238Y-60204333D01*
X123088333Y-60128142D01*
X123126428Y-60090047D01*
X123202619Y-60051952D01*
X123355000Y-60013857D01*
X123431190Y-59975761D01*
X123469285Y-59937666D01*
X123507380Y-59861476D01*
X123507380Y-59785285D01*
X123469285Y-59709095D01*
X123431190Y-59671000D01*
X123355000Y-59632904D01*
X123164523Y-59632904D01*
X123050238Y-59671000D01*
X122250238Y-60356714D02*
X122288333Y-60394809D01*
X122402619Y-60432904D01*
X122478809Y-60432904D01*
X122593095Y-60394809D01*
X122669285Y-60318619D01*
X122707380Y-60242428D01*
X122745476Y-60090047D01*
X122745476Y-59975761D01*
X122707380Y-59823380D01*
X122669285Y-59747190D01*
X122593095Y-59671000D01*
X122478809Y-59632904D01*
X122402619Y-59632904D01*
X122288333Y-59671000D01*
X122250238Y-59709095D01*
X121526428Y-60432904D02*
X121907380Y-60432904D01*
X121907380Y-59632904D01*
X138220428Y-82404000D02*
X138296619Y-82365904D01*
X138410905Y-82365904D01*
X138525190Y-82404000D01*
X138601381Y-82480190D01*
X138639476Y-82556380D01*
X138677571Y-82708761D01*
X138677571Y-82823047D01*
X138639476Y-82975428D01*
X138601381Y-83051619D01*
X138525190Y-83127809D01*
X138410905Y-83165904D01*
X138334714Y-83165904D01*
X138220428Y-83127809D01*
X138182333Y-83089714D01*
X138182333Y-82823047D01*
X138334714Y-82823047D01*
X137839476Y-83165904D02*
X137839476Y-82365904D01*
X137382333Y-83165904D01*
X137382333Y-82365904D01*
X137001381Y-83165904D02*
X137001381Y-82365904D01*
X136810905Y-82365904D01*
X136696619Y-82404000D01*
X136620428Y-82480190D01*
X136582333Y-82556380D01*
X136544238Y-82708761D01*
X136544238Y-82823047D01*
X136582333Y-82975428D01*
X136620428Y-83051619D01*
X136696619Y-83127809D01*
X136810905Y-83165904D01*
X137001381Y-83165904D01*
X138182333Y-80422714D02*
X138220429Y-80460809D01*
X138334714Y-80498904D01*
X138410905Y-80498904D01*
X138525191Y-80460809D01*
X138601381Y-80384619D01*
X138639476Y-80308428D01*
X138677572Y-80156047D01*
X138677572Y-80041761D01*
X138639476Y-79889380D01*
X138601381Y-79813190D01*
X138525191Y-79737000D01*
X138410905Y-79698904D01*
X138334714Y-79698904D01*
X138220429Y-79737000D01*
X138182333Y-79775095D01*
X137839476Y-80498904D02*
X137839476Y-79698904D01*
X137382333Y-80498904D02*
X137725191Y-80041761D01*
X137382333Y-79698904D02*
X137839476Y-80156047D01*
X138639477Y-77958904D02*
X138639477Y-77158904D01*
X138449000Y-77158904D01*
X138334715Y-77197000D01*
X138258524Y-77273190D01*
X138220429Y-77349380D01*
X138182334Y-77501761D01*
X138182334Y-77616047D01*
X138220429Y-77768428D01*
X138258524Y-77844619D01*
X138334715Y-77920809D01*
X138449000Y-77958904D01*
X138639477Y-77958904D01*
X137839477Y-77958904D02*
X137839477Y-77158904D01*
X138182333Y-75418904D02*
X138449000Y-75037952D01*
X138639476Y-75418904D02*
X138639476Y-74618904D01*
X138334714Y-74618904D01*
X138258523Y-74657000D01*
X138220428Y-74695095D01*
X138182333Y-74771285D01*
X138182333Y-74885571D01*
X138220428Y-74961761D01*
X138258523Y-74999857D01*
X138334714Y-75037952D01*
X138639476Y-75037952D01*
X137877571Y-75380809D02*
X137763285Y-75418904D01*
X137572809Y-75418904D01*
X137496619Y-75380809D01*
X137458523Y-75342714D01*
X137420428Y-75266523D01*
X137420428Y-75190333D01*
X137458523Y-75114142D01*
X137496619Y-75076047D01*
X137572809Y-75037952D01*
X137725190Y-74999857D01*
X137801380Y-74961761D01*
X137839476Y-74923666D01*
X137877571Y-74847476D01*
X137877571Y-74771285D01*
X137839476Y-74695095D01*
X137801380Y-74657000D01*
X137725190Y-74618904D01*
X137534714Y-74618904D01*
X137420428Y-74657000D01*
X141293714Y-85159809D02*
X141179428Y-85197904D01*
X140988952Y-85197904D01*
X140912761Y-85159809D01*
X140874666Y-85121714D01*
X140836571Y-85045523D01*
X140836571Y-84969333D01*
X140874666Y-84893142D01*
X140912761Y-84855047D01*
X140988952Y-84816952D01*
X141141333Y-84778857D01*
X141217523Y-84740761D01*
X141255619Y-84702666D01*
X141293714Y-84626476D01*
X141293714Y-84550285D01*
X141255619Y-84474095D01*
X141217523Y-84436000D01*
X141141333Y-84397904D01*
X140950857Y-84397904D01*
X140836571Y-84436000D01*
X140569904Y-84397904D02*
X140379428Y-85197904D01*
X140227047Y-84626476D01*
X140074666Y-85197904D01*
X139884190Y-84397904D01*
X139579428Y-85197904D02*
X139579428Y-84397904D01*
X139388952Y-84397904D01*
X139274666Y-84436000D01*
X139198476Y-84512190D01*
X139160380Y-84588380D01*
X139122285Y-84740761D01*
X139122285Y-84855047D01*
X139160380Y-85007428D01*
X139198476Y-85083619D01*
X139274666Y-85159809D01*
X139388952Y-85197904D01*
X139579428Y-85197904D01*
X149491523Y-54032142D02*
X148882000Y-54032142D01*
X149186761Y-54336904D02*
X149186761Y-53727380D01*
X148082000Y-54336904D02*
X148539142Y-54336904D01*
X148310571Y-54336904D02*
X148310571Y-53536904D01*
X148386761Y-53651190D01*
X148462952Y-53727380D01*
X148539142Y-53765476D01*
X147777238Y-53613095D02*
X147739142Y-53575000D01*
X147662952Y-53536904D01*
X147472476Y-53536904D01*
X147396285Y-53575000D01*
X147358190Y-53613095D01*
X147320095Y-53689285D01*
X147320095Y-53765476D01*
X147358190Y-53879761D01*
X147815333Y-54336904D01*
X147320095Y-54336904D01*
X147091523Y-53536904D02*
X146824857Y-54336904D01*
X146558190Y-53536904D01*
D12*
X150368000Y-67818000D02*
X145161000Y-67818000D01*
D10*
X149618523Y-68764142D02*
X149009000Y-68764142D01*
X148209000Y-69068904D02*
X148666142Y-69068904D01*
X148437571Y-69068904D02*
X148437571Y-68268904D01*
X148513761Y-68383190D01*
X148589952Y-68459380D01*
X148666142Y-68497476D01*
X147904238Y-68345095D02*
X147866142Y-68307000D01*
X147789952Y-68268904D01*
X147599476Y-68268904D01*
X147523285Y-68307000D01*
X147485190Y-68345095D01*
X147447095Y-68421285D01*
X147447095Y-68497476D01*
X147485190Y-68611761D01*
X147942333Y-69068904D01*
X147447095Y-69068904D01*
X147218523Y-68268904D02*
X146951857Y-69068904D01*
X146685190Y-68268904D01*
X128794742Y-94312000D02*
X129269258Y-94312000D01*
X128794742Y-93267000D02*
X129269258Y-93267000D01*
X124540242Y-113044500D02*
X125014758Y-113044500D01*
X124540242Y-111999500D02*
X125014758Y-111999500D01*
X129048742Y-108028000D02*
X129523258Y-108028000D01*
X129048742Y-106983000D02*
X129523258Y-106983000D01*
X147885000Y-80647000D02*
X149085000Y-80647000D01*
X149085000Y-80647000D02*
X149085000Y-77947000D01*
X144285000Y-76647000D02*
X144285000Y-80647000D01*
X144285000Y-80647000D02*
X145485000Y-80647000D01*
X103295000Y-54414000D02*
X103295000Y-66135000D01*
X111915000Y-54414000D02*
X111915000Y-66135000D01*
X103295000Y-54414000D02*
X111915000Y-54414000D01*
X103295000Y-66135000D02*
X111915000Y-66135000D01*
X110915000Y-54174000D02*
X112155000Y-54174000D01*
X112155000Y-54174000D02*
X112155000Y-55414000D01*
X141349000Y-102682221D02*
X141349000Y-103007779D01*
X142369000Y-102682221D02*
X142369000Y-103007779D01*
X147640221Y-91188000D02*
X147965779Y-91188000D01*
X147640221Y-90168000D02*
X147965779Y-90168000D01*
X145163000Y-103007779D02*
X145163000Y-102682221D01*
X144143000Y-103007779D02*
X144143000Y-102682221D01*
X105789000Y-102682221D02*
X105789000Y-103007779D01*
X106809000Y-102682221D02*
X106809000Y-103007779D01*
X105755221Y-91188000D02*
X106080779Y-91188000D01*
X105755221Y-90168000D02*
X106080779Y-90168000D01*
X145540000Y-107513000D02*
X145540000Y-108443000D01*
X145540000Y-110673000D02*
X145540000Y-109743000D01*
X145540000Y-110673000D02*
X143380000Y-110673000D01*
X145540000Y-107513000D02*
X144080000Y-107513000D01*
X146937000Y-102682221D02*
X146937000Y-103007779D01*
X147957000Y-102682221D02*
X147957000Y-103007779D01*
X109603000Y-103007779D02*
X109603000Y-102682221D01*
X108583000Y-103007779D02*
X108583000Y-102682221D01*
X108930221Y-83187000D02*
X109255779Y-83187000D01*
X108930221Y-82167000D02*
X109255779Y-82167000D01*
X116184000Y-88561400D02*
X119884000Y-88561400D01*
X119884000Y-88561400D02*
X119884000Y-93861400D01*
D13*
X136059000Y-132295000D02*
X136184000Y-132295000D01*
X136059000Y-136945000D02*
X136284000Y-136945000D01*
X141309000Y-136945000D02*
X141084000Y-136945000D01*
X141309000Y-132295000D02*
X141084000Y-132295000D01*
X136059000Y-132295000D02*
X136059000Y-136945000D01*
X141309000Y-132295000D02*
X141309000Y-136945000D01*
X136184000Y-132295000D02*
X136184000Y-130945000D01*
X112437000Y-132295000D02*
X112562000Y-132295000D01*
X112437000Y-136945000D02*
X112662000Y-136945000D01*
X117687000Y-136945000D02*
X117462000Y-136945000D01*
X117687000Y-132295000D02*
X117462000Y-132295000D01*
X112437000Y-132295000D02*
X112437000Y-136945000D01*
X117687000Y-132295000D02*
X117687000Y-136945000D01*
X112562000Y-132295000D02*
X112562000Y-130945000D01*
X124548000Y-149961000D02*
X124548000Y-149861000D01*
X129198000Y-149961000D02*
X129198000Y-149761000D01*
X129198000Y-146711000D02*
X129198000Y-146911000D01*
X124548000Y-146711000D02*
X124548000Y-146911000D01*
X124548000Y-149961000D02*
X129198000Y-149961000D01*
X124548000Y-146711000D02*
X129198000Y-146711000D01*
X124548000Y-149861000D02*
X123198000Y-149861000D01*
X123423000Y-123129000D02*
X123423000Y-118679000D01*
X130323000Y-124654000D02*
X130323000Y-118679000D01*
X125273000Y-57365000D02*
X125373000Y-57365000D01*
X125273000Y-62015000D02*
X125473000Y-62015000D01*
X128523000Y-62015000D02*
X128323000Y-62015000D01*
X128523000Y-57365000D02*
X128323000Y-57365000D01*
X125273000Y-57365000D02*
X125273000Y-62015000D01*
X128523000Y-57365000D02*
X128523000Y-62015000D01*
X125373000Y-57365000D02*
X125373000Y-56015000D01*
D10*
X126554802Y-75984887D02*
X126873000Y-75666689D01*
X126873000Y-75666689D02*
X127191198Y-75984887D01*
X122085887Y-80453802D02*
X121767689Y-80772000D01*
X121767689Y-80772000D02*
X122085887Y-81090198D01*
X131660113Y-81090198D02*
X131978311Y-80772000D01*
X131978311Y-80772000D02*
X131660113Y-80453802D01*
X127191198Y-85559113D02*
X126873000Y-85877311D01*
X126873000Y-85877311D02*
X126554802Y-85559113D01*
X126554802Y-85559113D02*
X125642634Y-86471281D01*
X121604000Y-75565000D02*
G75*
G03*
X121604000Y-75565000I-700000J0D01*
G01*
X133542000Y-134620000D02*
G75*
G03*
X133542000Y-134620000I-700000J0D01*
G01*
X121731000Y-134620000D02*
G75*
G03*
X121731000Y-134620000I-700000J0D01*
G01*
X136260221Y-141201000D02*
X136585779Y-141201000D01*
X136260221Y-140181000D02*
X136585779Y-140181000D01*
X140954779Y-140181000D02*
X140629221Y-140181000D01*
X140954779Y-141201000D02*
X140629221Y-141201000D01*
X136585779Y-148588000D02*
X136260221Y-148588000D01*
X136585779Y-149608000D02*
X136260221Y-149608000D01*
X136585779Y-145794000D02*
X136260221Y-145794000D01*
X136585779Y-146814000D02*
X136260221Y-146814000D01*
X140629221Y-149608000D02*
X140954779Y-149608000D01*
X140629221Y-148588000D02*
X140954779Y-148588000D01*
X140629221Y-146814000D02*
X140954779Y-146814000D01*
X140629221Y-145794000D02*
X140954779Y-145794000D01*
X140954779Y-128141000D02*
X140629221Y-128141000D01*
X140954779Y-129161000D02*
X140629221Y-129161000D01*
X136260221Y-129161000D02*
X136585779Y-129161000D01*
X136260221Y-128141000D02*
X136585779Y-128141000D01*
X140629221Y-120906000D02*
X140954779Y-120906000D01*
X140629221Y-119886000D02*
X140954779Y-119886000D01*
X140629221Y-123700000D02*
X140954779Y-123700000D01*
X140629221Y-122680000D02*
X140954779Y-122680000D01*
X136585779Y-119886000D02*
X136260221Y-119886000D01*
X136585779Y-120906000D02*
X136260221Y-120906000D01*
X136585779Y-122680000D02*
X136260221Y-122680000D01*
X136585779Y-123700000D02*
X136260221Y-123700000D01*
X112791221Y-141201000D02*
X113116779Y-141201000D01*
X112791221Y-140181000D02*
X113116779Y-140181000D01*
X117434779Y-140181000D02*
X117109221Y-140181000D01*
X117434779Y-141201000D02*
X117109221Y-141201000D01*
X113116779Y-148588000D02*
X112791221Y-148588000D01*
X113116779Y-149608000D02*
X112791221Y-149608000D01*
X112791221Y-146814000D02*
X113116779Y-146814000D01*
X112791221Y-145794000D02*
X113116779Y-145794000D01*
X117109221Y-149633000D02*
X117434779Y-149633000D01*
X117109221Y-148613000D02*
X117434779Y-148613000D01*
X117434779Y-145794000D02*
X117109221Y-145794000D01*
X117434779Y-146814000D02*
X117109221Y-146814000D01*
X117434779Y-128217000D02*
X117109221Y-128217000D01*
X117434779Y-129237000D02*
X117109221Y-129237000D01*
X112791221Y-129161000D02*
X113116779Y-129161000D01*
X112791221Y-128141000D02*
X113116779Y-128141000D01*
X117109221Y-120906000D02*
X117434779Y-120906000D01*
X117109221Y-119886000D02*
X117434779Y-119886000D01*
X117109221Y-123700000D02*
X117434779Y-123700000D01*
X117109221Y-122680000D02*
X117434779Y-122680000D01*
X113116779Y-119886000D02*
X112791221Y-119886000D01*
X113116779Y-120906000D02*
X112791221Y-120906000D01*
X113116779Y-122680000D02*
X112791221Y-122680000D01*
X113116779Y-123700000D02*
X112791221Y-123700000D01*
X143824779Y-90168000D02*
X143499221Y-90168000D01*
X143824779Y-91188000D02*
X143499221Y-91188000D01*
X111504000Y-102707221D02*
X111504000Y-103032779D01*
X112524000Y-102707221D02*
X112524000Y-103032779D01*
X114298000Y-102707221D02*
X114298000Y-103032779D01*
X115318000Y-102707221D02*
X115318000Y-103032779D01*
X108747779Y-145794000D02*
X108422221Y-145794000D01*
X108747779Y-146814000D02*
X108422221Y-146814000D01*
X109946221Y-91188000D02*
X110271779Y-91188000D01*
X109946221Y-90168000D02*
X110271779Y-90168000D01*
X139575000Y-103032779D02*
X139575000Y-102707221D01*
X138555000Y-103032779D02*
X138555000Y-102707221D01*
X144871221Y-146814000D02*
X145196779Y-146814000D01*
X144871221Y-145794000D02*
X145196779Y-145794000D01*
X136052779Y-93724000D02*
X135727221Y-93724000D01*
X136052779Y-94744000D02*
X135727221Y-94744000D01*
X148588000Y-51399221D02*
X148588000Y-51724779D01*
X149608000Y-51399221D02*
X149608000Y-51724779D01*
X132877779Y-145032000D02*
X132552221Y-145032000D01*
X132877779Y-146052000D02*
X132552221Y-146052000D01*
X120741221Y-145798000D02*
X121066779Y-145798000D01*
X120741221Y-144778000D02*
X121066779Y-144778000D01*
X129092779Y-143762000D02*
X128767221Y-143762000D01*
X129092779Y-144782000D02*
X128767221Y-144782000D01*
X124602221Y-144782000D02*
X124927779Y-144782000D01*
X124602221Y-143762000D02*
X124927779Y-143762000D01*
X128793221Y-139194000D02*
X129118779Y-139194000D01*
X128793221Y-138174000D02*
X129118779Y-138174000D01*
X124927779Y-138174000D02*
X124602221Y-138174000D01*
X124927779Y-139194000D02*
X124602221Y-139194000D01*
X129118779Y-132586000D02*
X128793221Y-132586000D01*
X129118779Y-133606000D02*
X128793221Y-133606000D01*
X124602221Y-133606000D02*
X124927779Y-133606000D01*
X124602221Y-132586000D02*
X124927779Y-132586000D01*
X115441000Y-70576221D02*
X115441000Y-70901779D01*
X116461000Y-70576221D02*
X116461000Y-70901779D01*
X118145779Y-83183000D02*
X117820221Y-83183000D01*
X118145779Y-84203000D02*
X117820221Y-84203000D01*
X125059221Y-69979000D02*
X125384779Y-69979000D01*
X125059221Y-68959000D02*
X125384779Y-68959000D01*
X125059221Y-72773000D02*
X125384779Y-72773000D01*
X125059221Y-71753000D02*
X125384779Y-71753000D01*
X145413000Y-94940000D02*
X145413000Y-95870000D01*
X145413000Y-98100000D02*
X145413000Y-97170000D01*
X145413000Y-98100000D02*
X143253000Y-98100000D01*
X145413000Y-94940000D02*
X143953000Y-94940000D01*
X108333000Y-110800000D02*
X108333000Y-109870000D01*
X108333000Y-107640000D02*
X108333000Y-108570000D01*
X108333000Y-107640000D02*
X110493000Y-107640000D01*
X108333000Y-110800000D02*
X109793000Y-110800000D01*
X115133000Y-105793000D02*
X116063000Y-105793000D01*
X118293000Y-105793000D02*
X117363000Y-105793000D01*
X118293000Y-105793000D02*
X118293000Y-107953000D01*
X115133000Y-105793000D02*
X115133000Y-107253000D01*
X108333000Y-98100000D02*
X108333000Y-97170000D01*
X108333000Y-94940000D02*
X108333000Y-95870000D01*
X108333000Y-94940000D02*
X110493000Y-94940000D01*
X108333000Y-98100000D02*
X109793000Y-98100000D01*
X135453000Y-105793000D02*
X136383000Y-105793000D01*
X138613000Y-105793000D02*
X137683000Y-105793000D01*
X138613000Y-105793000D02*
X138613000Y-107953000D01*
X135453000Y-105793000D02*
X135453000Y-107253000D01*
X108764000Y-50922422D02*
X108764000Y-51439578D01*
X110184000Y-50922422D02*
X110184000Y-51439578D01*
X145228000Y-54599000D02*
X150428000Y-54599000D01*
X145228000Y-64819000D02*
X145228000Y-54599000D01*
X150428000Y-67419000D02*
X150428000Y-54599000D01*
X145228000Y-64819000D02*
X147828000Y-64819000D01*
X147828000Y-64819000D02*
X147828000Y-67419000D01*
X147828000Y-67419000D02*
X150428000Y-67419000D01*
X145228000Y-66089000D02*
X145228000Y-67419000D01*
X145228000Y-67419000D02*
X146558000Y-67419000D01*
X120964000Y-66481000D02*
X118304000Y-66481000D01*
X120964000Y-58801000D02*
X120964000Y-66481000D01*
X118304000Y-58801000D02*
X118304000Y-66481000D01*
X120964000Y-58801000D02*
X118304000Y-58801000D01*
X120964000Y-57531000D02*
X120964000Y-56201000D01*
X120964000Y-56201000D02*
X119634000Y-56201000D01*
X138903000Y-73676200D02*
X141563000Y-73676200D01*
X138903000Y-81356200D02*
X138903000Y-73676200D01*
X141563000Y-81356200D02*
X141563000Y-73676200D01*
X138903000Y-81356200D02*
X141563000Y-81356200D01*
X138903000Y-82626200D02*
X138903000Y-83956200D01*
X138903000Y-83956200D02*
X140233000Y-83956200D01*
X149862000Y-73822779D02*
X149862000Y-73497221D01*
X148842000Y-73822779D02*
X148842000Y-73497221D01*
X141730000Y-60924221D02*
X141730000Y-61249779D01*
X142750000Y-60924221D02*
X142750000Y-61249779D01*
X142750000Y-57058779D02*
X142750000Y-56733221D01*
X141730000Y-57058779D02*
X141730000Y-56733221D01*
X134310000Y-86870000D02*
X135240000Y-86870000D01*
X137470000Y-86870000D02*
X136540000Y-86870000D01*
X137470000Y-86870000D02*
X137470000Y-89030000D01*
X134310000Y-86870000D02*
X134310000Y-88330000D01*
X147243000Y-50762000D02*
X147243000Y-53247000D01*
X147243000Y-53247000D02*
X145873000Y-53247000D01*
X145873000Y-53247000D02*
X145873000Y-50762000D01*
X143240000Y-64532000D02*
X143240000Y-67732000D01*
X141240000Y-67732000D02*
X141240000Y-64532000D01*
X141240000Y-67732000D02*
X143240000Y-67732000D01*
X143240000Y-51324000D02*
X143240000Y-54524000D01*
X141240000Y-54524000D02*
X141240000Y-51324000D01*
X141240000Y-54524000D02*
X143240000Y-54524000D01*
X136260221Y-144045000D02*
X136585779Y-144045000D01*
X136260221Y-143025000D02*
X136585779Y-143025000D01*
X140954779Y-143025000D02*
X140629221Y-143025000D01*
X140954779Y-144045000D02*
X140629221Y-144045000D01*
X140954779Y-125372000D02*
X140629221Y-125372000D01*
X140954779Y-126392000D02*
X140629221Y-126392000D01*
X136260221Y-126392000D02*
X136585779Y-126392000D01*
X136260221Y-125372000D02*
X136585779Y-125372000D01*
X144363221Y-135130000D02*
X144688779Y-135130000D01*
X144363221Y-134110000D02*
X144688779Y-134110000D01*
X112791221Y-144045000D02*
X113116779Y-144045000D01*
X112791221Y-143025000D02*
X113116779Y-143025000D01*
X117434779Y-143051000D02*
X117109221Y-143051000D01*
X117434779Y-144071000D02*
X117109221Y-144071000D01*
X117434779Y-125474000D02*
X117109221Y-125474000D01*
X117434779Y-126494000D02*
X117109221Y-126494000D01*
X112791221Y-126392000D02*
X113116779Y-126392000D01*
X112791221Y-125372000D02*
X113116779Y-125372000D01*
X109128779Y-134110000D02*
X108803221Y-134110000D01*
X109128779Y-135130000D02*
X108803221Y-135130000D01*
X135727221Y-91950000D02*
X136052779Y-91950000D01*
X135727221Y-90930000D02*
X136052779Y-90930000D01*
X148818000Y-83973000D02*
X148818000Y-85173000D01*
X148818000Y-88493000D02*
X148818000Y-87293000D01*
X145362437Y-88493000D02*
X148818000Y-88493000D01*
X145362437Y-83973000D02*
X148818000Y-83973000D01*
X144298000Y-85037437D02*
X144298000Y-85173000D01*
X144298000Y-87428563D02*
X144298000Y-87293000D01*
X144298000Y-87428563D02*
X145362437Y-88493000D01*
X144298000Y-85037437D02*
X145362437Y-83973000D01*
X143558000Y-87793000D02*
X144058000Y-87793000D01*
X143808000Y-88043000D02*
X143808000Y-87543000D01*
X106071000Y-72364000D02*
X106071000Y-71164000D01*
X106071000Y-67844000D02*
X106071000Y-69044000D01*
X109526563Y-67844000D02*
X106071000Y-67844000D01*
X109526563Y-72364000D02*
X106071000Y-72364000D01*
X110591000Y-71299563D02*
X110591000Y-71164000D01*
X110591000Y-68908437D02*
X110591000Y-69044000D01*
X110591000Y-68908437D02*
X109526563Y-67844000D01*
X110591000Y-71299563D02*
X109526563Y-72364000D01*
X111331000Y-68544000D02*
X110831000Y-68544000D01*
X111081000Y-68294000D02*
X111081000Y-68794000D01*
X144528000Y-73822779D02*
X144528000Y-73497221D01*
X143508000Y-73822779D02*
X143508000Y-73497221D01*
X114899221Y-63375000D02*
X115224779Y-63375000D01*
X114899221Y-62355000D02*
X115224779Y-62355000D01*
X146175000Y-73497221D02*
X146175000Y-73822779D01*
X147195000Y-73497221D02*
X147195000Y-73822779D01*
X114899221Y-58295000D02*
X115224779Y-58295000D01*
X114899221Y-57275000D02*
X115224779Y-57275000D01*
X147287064Y-69448000D02*
X146082936Y-69448000D01*
X147287064Y-71268000D02*
X146082936Y-71268000D01*
X104500000Y-50832936D02*
X104500000Y-52037064D01*
X106320000Y-50832936D02*
X106320000Y-52037064D01*
X138396000Y-62899000D02*
X138396000Y-64599000D01*
X138396000Y-68419000D02*
X138396000Y-66719000D01*
X133940437Y-68419000D02*
X138396000Y-68419000D01*
X133940437Y-62899000D02*
X138396000Y-62899000D01*
X132876000Y-63963437D02*
X132876000Y-64599000D01*
X132876000Y-67354563D02*
X132876000Y-66719000D01*
X132876000Y-67354563D02*
X133940437Y-68419000D01*
X132876000Y-63963437D02*
X133940437Y-62899000D01*
X132011000Y-67344000D02*
X132636000Y-67344000D01*
X132323500Y-67656500D02*
X132323500Y-67031500D01*
X133003000Y-61434000D02*
X133003000Y-59734000D01*
X133003000Y-55914000D02*
X133003000Y-57614000D01*
X137458563Y-55914000D02*
X133003000Y-55914000D01*
X137458563Y-61434000D02*
X133003000Y-61434000D01*
X138523000Y-60369563D02*
X138523000Y-59734000D01*
X138523000Y-56978437D02*
X138523000Y-57614000D01*
X138523000Y-56978437D02*
X137458563Y-55914000D01*
X138523000Y-60369563D02*
X137458563Y-61434000D01*
X139388000Y-56989000D02*
X138763000Y-56989000D01*
X139075500Y-56676500D02*
X139075500Y-57301500D01*
X112501000Y-50832936D02*
X112501000Y-52037064D01*
X114321000Y-50832936D02*
X114321000Y-52037064D01*
X129118779Y-140968000D02*
X128793221Y-140968000D01*
X129118779Y-141988000D02*
X128793221Y-141988000D01*
X124602221Y-141988000D02*
X124927779Y-141988000D01*
X124602221Y-140968000D02*
X124927779Y-140968000D01*
X124602221Y-152656000D02*
X124927779Y-152656000D01*
X124602221Y-151636000D02*
X124927779Y-151636000D01*
X129118779Y-151636000D02*
X128793221Y-151636000D01*
X129118779Y-152656000D02*
X128793221Y-152656000D01*
X129118779Y-135380000D02*
X128793221Y-135380000D01*
X129118779Y-136400000D02*
X128793221Y-136400000D01*
X124602221Y-136400000D02*
X124927779Y-136400000D01*
X124602221Y-135380000D02*
X124927779Y-135380000D01*
X128793221Y-114810000D02*
X129118779Y-114810000D01*
X128793221Y-113790000D02*
X129118779Y-113790000D01*
X129414578Y-129338000D02*
X128897422Y-129338000D01*
X129414578Y-130758000D02*
X128897422Y-130758000D01*
X115088000Y-110643000D02*
X116288000Y-110643000D01*
X119608000Y-110643000D02*
X118408000Y-110643000D01*
X119608000Y-114098563D02*
X119608000Y-110643000D01*
X115088000Y-114098563D02*
X115088000Y-110643000D01*
X116152437Y-115163000D02*
X116288000Y-115163000D01*
X118543563Y-115163000D02*
X118408000Y-115163000D01*
X118543563Y-115163000D02*
X119608000Y-114098563D01*
X116152437Y-115163000D02*
X115088000Y-114098563D01*
X118908000Y-115903000D02*
X118908000Y-115403000D01*
X119158000Y-115653000D02*
X118658000Y-115653000D01*
X124823578Y-129338000D02*
X124306422Y-129338000D01*
X124823578Y-130758000D02*
X124306422Y-130758000D01*
X129118779Y-126490000D02*
X128793221Y-126490000D01*
X129118779Y-127510000D02*
X128793221Y-127510000D01*
X124927779Y-126490000D02*
X124602221Y-126490000D01*
X124927779Y-127510000D02*
X124602221Y-127510000D01*
X124602221Y-114810000D02*
X124927779Y-114810000D01*
X124602221Y-113790000D02*
X124927779Y-113790000D01*
X134138000Y-110643000D02*
X135338000Y-110643000D01*
X138658000Y-110643000D02*
X137458000Y-110643000D01*
X138658000Y-114098563D02*
X138658000Y-110643000D01*
X134138000Y-114098563D02*
X134138000Y-110643000D01*
X135202437Y-115163000D02*
X135338000Y-115163000D01*
X137593563Y-115163000D02*
X137458000Y-115163000D01*
X137593563Y-115163000D02*
X138658000Y-114098563D01*
X135202437Y-115163000D02*
X134138000Y-114098563D01*
X137958000Y-115903000D02*
X137958000Y-115403000D01*
X138208000Y-115653000D02*
X137708000Y-115653000D01*
X121193779Y-68959000D02*
X120868221Y-68959000D01*
X121193779Y-69979000D02*
X120868221Y-69979000D01*
X125384779Y-65784000D02*
X125059221Y-65784000D01*
X125384779Y-66804000D02*
X125059221Y-66804000D01*
X121193779Y-71753000D02*
X120868221Y-71753000D01*
X121193779Y-72773000D02*
X120868221Y-72773000D01*
X124114779Y-88644000D02*
X123789221Y-88644000D01*
X124114779Y-89664000D02*
X123789221Y-89664000D01*
X128869221Y-92458000D02*
X129194779Y-92458000D01*
X128869221Y-91438000D02*
X129194779Y-91438000D01*
X135727221Y-79123000D02*
X136052779Y-79123000D01*
X135727221Y-78103000D02*
X136052779Y-78103000D01*
X128869221Y-89664000D02*
X129194779Y-89664000D01*
X128869221Y-88644000D02*
X129194779Y-88644000D01*
X135727221Y-76329000D02*
X136052779Y-76329000D01*
X135727221Y-75309000D02*
X136052779Y-75309000D01*
X124114779Y-91438000D02*
X123789221Y-91438000D01*
X124114779Y-92458000D02*
X123789221Y-92458000D01*
X118018779Y-77849000D02*
X117693221Y-77849000D01*
X118018779Y-78869000D02*
X117693221Y-78869000D01*
X118018779Y-75055000D02*
X117693221Y-75055000D01*
X118018779Y-76075000D02*
X117693221Y-76075000D01*
X109255779Y-84580000D02*
X108930221Y-84580000D01*
X109255779Y-85600000D02*
X108930221Y-85600000D01*
X117820221Y-96522000D02*
X118145779Y-96522000D01*
X117820221Y-95502000D02*
X118145779Y-95502000D01*
X118196779Y-85850000D02*
X117871221Y-85850000D01*
X118196779Y-86870000D02*
X117871221Y-86870000D01*
D13*
X129674857Y-95671880D02*
X130008190Y-95195690D01*
X130246285Y-95671880D02*
X130246285Y-94671880D01*
X129865333Y-94671880D01*
X129770095Y-94719500D01*
X129722476Y-94767119D01*
X129674857Y-94862357D01*
X129674857Y-95005214D01*
X129722476Y-95100452D01*
X129770095Y-95148071D01*
X129865333Y-95195690D01*
X130246285Y-95195690D01*
X128770095Y-94671880D02*
X129246285Y-94671880D01*
X129293904Y-95148071D01*
X129246285Y-95100452D01*
X129151047Y-95052833D01*
X128912952Y-95052833D01*
X128817714Y-95100452D01*
X128770095Y-95148071D01*
X128722476Y-95243309D01*
X128722476Y-95481404D01*
X128770095Y-95576642D01*
X128817714Y-95624261D01*
X128912952Y-95671880D01*
X129151047Y-95671880D01*
X129246285Y-95624261D01*
X129293904Y-95576642D01*
X127865333Y-95005214D02*
X127865333Y-95671880D01*
X128103428Y-94624261D02*
X128341523Y-95338547D01*
X127722476Y-95338547D01*
X125420357Y-114404380D02*
X125753690Y-113928190D01*
X125991785Y-114404380D02*
X125991785Y-113404380D01*
X125610833Y-113404380D01*
X125515595Y-113452000D01*
X125467976Y-113499619D01*
X125420357Y-113594857D01*
X125420357Y-113737714D01*
X125467976Y-113832952D01*
X125515595Y-113880571D01*
X125610833Y-113928190D01*
X125991785Y-113928190D01*
X124515595Y-113404380D02*
X124991785Y-113404380D01*
X125039404Y-113880571D01*
X124991785Y-113832952D01*
X124896547Y-113785333D01*
X124658452Y-113785333D01*
X124563214Y-113832952D01*
X124515595Y-113880571D01*
X124467976Y-113975809D01*
X124467976Y-114213904D01*
X124515595Y-114309142D01*
X124563214Y-114356761D01*
X124658452Y-114404380D01*
X124896547Y-114404380D01*
X124991785Y-114356761D01*
X125039404Y-114309142D01*
X124134642Y-113404380D02*
X123515595Y-113404380D01*
X123848928Y-113785333D01*
X123706071Y-113785333D01*
X123610833Y-113832952D01*
X123563214Y-113880571D01*
X123515595Y-113975809D01*
X123515595Y-114213904D01*
X123563214Y-114309142D01*
X123610833Y-114356761D01*
X123706071Y-114404380D01*
X123991785Y-114404380D01*
X124087023Y-114356761D01*
X124134642Y-114309142D01*
X129928857Y-109387880D02*
X130262190Y-108911690D01*
X130500285Y-109387880D02*
X130500285Y-108387880D01*
X130119333Y-108387880D01*
X130024095Y-108435500D01*
X129976476Y-108483119D01*
X129928857Y-108578357D01*
X129928857Y-108721214D01*
X129976476Y-108816452D01*
X130024095Y-108864071D01*
X130119333Y-108911690D01*
X130500285Y-108911690D01*
X129024095Y-108387880D02*
X129500285Y-108387880D01*
X129547904Y-108864071D01*
X129500285Y-108816452D01*
X129405047Y-108768833D01*
X129166952Y-108768833D01*
X129071714Y-108816452D01*
X129024095Y-108864071D01*
X128976476Y-108959309D01*
X128976476Y-109197404D01*
X129024095Y-109292642D01*
X129071714Y-109340261D01*
X129166952Y-109387880D01*
X129405047Y-109387880D01*
X129500285Y-109340261D01*
X129547904Y-109292642D01*
X128595523Y-108483119D02*
X128547904Y-108435500D01*
X128452666Y-108387880D01*
X128214571Y-108387880D01*
X128119333Y-108435500D01*
X128071714Y-108483119D01*
X128024095Y-108578357D01*
X128024095Y-108673595D01*
X128071714Y-108816452D01*
X128643142Y-109387880D01*
X128024095Y-109387880D01*
X143763904Y-78446380D02*
X143763904Y-79255904D01*
X143716285Y-79351142D01*
X143668666Y-79398761D01*
X143573428Y-79446380D01*
X143382952Y-79446380D01*
X143287714Y-79398761D01*
X143240095Y-79351142D01*
X143192476Y-79255904D01*
X143192476Y-78446380D01*
X142811523Y-78446380D02*
X142144857Y-78446380D01*
X142573428Y-79446380D01*
X108330904Y-53046380D02*
X108330904Y-53855904D01*
X108283285Y-53951142D01*
X108235666Y-53998761D01*
X108140428Y-54046380D01*
X107949952Y-54046380D01*
X107854714Y-53998761D01*
X107807095Y-53951142D01*
X107759476Y-53855904D01*
X107759476Y-53046380D01*
X106854714Y-53046380D02*
X107045190Y-53046380D01*
X107140428Y-53094000D01*
X107188047Y-53141619D01*
X107283285Y-53284476D01*
X107330904Y-53474952D01*
X107330904Y-53855904D01*
X107283285Y-53951142D01*
X107235666Y-53998761D01*
X107140428Y-54046380D01*
X106949952Y-54046380D01*
X106854714Y-53998761D01*
X106807095Y-53951142D01*
X106759476Y-53855904D01*
X106759476Y-53617809D01*
X106807095Y-53522571D01*
X106854714Y-53474952D01*
X106949952Y-53427333D01*
X107140428Y-53427333D01*
X107235666Y-53474952D01*
X107283285Y-53522571D01*
X107330904Y-53617809D01*
D10*
X140790904Y-102330714D02*
X140409952Y-102064047D01*
X140790904Y-101873571D02*
X139990904Y-101873571D01*
X139990904Y-102178333D01*
X140029000Y-102254523D01*
X140067095Y-102292619D01*
X140143285Y-102330714D01*
X140257571Y-102330714D01*
X140333761Y-102292619D01*
X140371857Y-102254523D01*
X140409952Y-102178333D01*
X140409952Y-101873571D01*
X139990904Y-103054523D02*
X139990904Y-102673571D01*
X140371857Y-102635476D01*
X140333761Y-102673571D01*
X140295666Y-102749761D01*
X140295666Y-102940238D01*
X140333761Y-103016428D01*
X140371857Y-103054523D01*
X140448047Y-103092619D01*
X140638523Y-103092619D01*
X140714714Y-103054523D01*
X140752809Y-103016428D01*
X140790904Y-102940238D01*
X140790904Y-102749761D01*
X140752809Y-102673571D01*
X140714714Y-102635476D01*
X140790904Y-103854523D02*
X140790904Y-103397380D01*
X140790904Y-103625952D02*
X139990904Y-103625952D01*
X140105190Y-103549761D01*
X140181380Y-103473571D01*
X140219476Y-103397380D01*
X147936333Y-89675904D02*
X148203000Y-89294952D01*
X148393476Y-89675904D02*
X148393476Y-88875904D01*
X148088714Y-88875904D01*
X148012523Y-88914000D01*
X147974428Y-88952095D01*
X147936333Y-89028285D01*
X147936333Y-89142571D01*
X147974428Y-89218761D01*
X148012523Y-89256857D01*
X148088714Y-89294952D01*
X148393476Y-89294952D01*
X147479190Y-89218761D02*
X147555380Y-89180666D01*
X147593476Y-89142571D01*
X147631571Y-89066380D01*
X147631571Y-89028285D01*
X147593476Y-88952095D01*
X147555380Y-88914000D01*
X147479190Y-88875904D01*
X147326809Y-88875904D01*
X147250619Y-88914000D01*
X147212523Y-88952095D01*
X147174428Y-89028285D01*
X147174428Y-89066380D01*
X147212523Y-89142571D01*
X147250619Y-89180666D01*
X147326809Y-89218761D01*
X147479190Y-89218761D01*
X147555380Y-89256857D01*
X147593476Y-89294952D01*
X147631571Y-89371142D01*
X147631571Y-89523523D01*
X147593476Y-89599714D01*
X147555380Y-89637809D01*
X147479190Y-89675904D01*
X147326809Y-89675904D01*
X147250619Y-89637809D01*
X147212523Y-89599714D01*
X147174428Y-89523523D01*
X147174428Y-89371142D01*
X147212523Y-89294952D01*
X147250619Y-89256857D01*
X147326809Y-89218761D01*
X143617904Y-102711666D02*
X143236952Y-102445000D01*
X143617904Y-102254523D02*
X142817904Y-102254523D01*
X142817904Y-102559285D01*
X142856000Y-102635476D01*
X142894095Y-102673571D01*
X142970285Y-102711666D01*
X143084571Y-102711666D01*
X143160761Y-102673571D01*
X143198857Y-102635476D01*
X143236952Y-102559285D01*
X143236952Y-102254523D01*
X142817904Y-102978333D02*
X142817904Y-103511666D01*
X143617904Y-103168809D01*
X105230904Y-102711666D02*
X104849952Y-102445000D01*
X105230904Y-102254523D02*
X104430904Y-102254523D01*
X104430904Y-102559285D01*
X104469000Y-102635476D01*
X104507095Y-102673571D01*
X104583285Y-102711666D01*
X104697571Y-102711666D01*
X104773761Y-102673571D01*
X104811857Y-102635476D01*
X104849952Y-102559285D01*
X104849952Y-102254523D01*
X104507095Y-103016428D02*
X104469000Y-103054523D01*
X104430904Y-103130714D01*
X104430904Y-103321190D01*
X104469000Y-103397380D01*
X104507095Y-103435476D01*
X104583285Y-103473571D01*
X104659476Y-103473571D01*
X104773761Y-103435476D01*
X105230904Y-102978333D01*
X105230904Y-103473571D01*
X106051333Y-89675904D02*
X106318000Y-89294952D01*
X106508476Y-89675904D02*
X106508476Y-88875904D01*
X106203714Y-88875904D01*
X106127523Y-88914000D01*
X106089428Y-88952095D01*
X106051333Y-89028285D01*
X106051333Y-89142571D01*
X106089428Y-89218761D01*
X106127523Y-89256857D01*
X106203714Y-89294952D01*
X106508476Y-89294952D01*
X105289428Y-89675904D02*
X105746571Y-89675904D01*
X105518000Y-89675904D02*
X105518000Y-88875904D01*
X105594190Y-88990190D01*
X105670380Y-89066380D01*
X105746571Y-89104476D01*
X147650190Y-109404095D02*
X147726380Y-109366000D01*
X147802571Y-109289809D01*
X147916857Y-109175523D01*
X147993047Y-109137428D01*
X148069238Y-109137428D01*
X148031142Y-109327904D02*
X148107333Y-109289809D01*
X148183523Y-109213619D01*
X148221619Y-109061238D01*
X148221619Y-108794571D01*
X148183523Y-108642190D01*
X148107333Y-108566000D01*
X148031142Y-108527904D01*
X147878761Y-108527904D01*
X147802571Y-108566000D01*
X147726380Y-108642190D01*
X147688285Y-108794571D01*
X147688285Y-109061238D01*
X147726380Y-109213619D01*
X147802571Y-109289809D01*
X147878761Y-109327904D01*
X148031142Y-109327904D01*
X147002571Y-108527904D02*
X147154952Y-108527904D01*
X147231142Y-108566000D01*
X147269238Y-108604095D01*
X147345428Y-108718380D01*
X147383523Y-108870761D01*
X147383523Y-109175523D01*
X147345428Y-109251714D01*
X147307333Y-109289809D01*
X147231142Y-109327904D01*
X147078761Y-109327904D01*
X147002571Y-109289809D01*
X146964476Y-109251714D01*
X146926380Y-109175523D01*
X146926380Y-108985047D01*
X146964476Y-108908857D01*
X147002571Y-108870761D01*
X147078761Y-108832666D01*
X147231142Y-108832666D01*
X147307333Y-108870761D01*
X147345428Y-108908857D01*
X147383523Y-108985047D01*
X146302714Y-102711666D02*
X146340809Y-102673571D01*
X146378904Y-102559285D01*
X146378904Y-102483095D01*
X146340809Y-102368809D01*
X146264619Y-102292619D01*
X146188428Y-102254523D01*
X146036047Y-102216428D01*
X145921761Y-102216428D01*
X145769380Y-102254523D01*
X145693190Y-102292619D01*
X145617000Y-102368809D01*
X145578904Y-102483095D01*
X145578904Y-102559285D01*
X145617000Y-102673571D01*
X145655095Y-102711666D01*
X145578904Y-103435476D02*
X145578904Y-103054523D01*
X145959857Y-103016428D01*
X145921761Y-103054523D01*
X145883666Y-103130714D01*
X145883666Y-103321190D01*
X145921761Y-103397380D01*
X145959857Y-103435476D01*
X146036047Y-103473571D01*
X146226523Y-103473571D01*
X146302714Y-103435476D01*
X146340809Y-103397380D01*
X146378904Y-103321190D01*
X146378904Y-103130714D01*
X146340809Y-103054523D01*
X146302714Y-103016428D01*
X107981714Y-102711666D02*
X108019809Y-102673571D01*
X108057904Y-102559285D01*
X108057904Y-102483095D01*
X108019809Y-102368809D01*
X107943619Y-102292619D01*
X107867428Y-102254523D01*
X107715047Y-102216428D01*
X107600761Y-102216428D01*
X107448380Y-102254523D01*
X107372190Y-102292619D01*
X107296000Y-102368809D01*
X107257904Y-102483095D01*
X107257904Y-102559285D01*
X107296000Y-102673571D01*
X107334095Y-102711666D01*
X108057904Y-103473571D02*
X108057904Y-103016428D01*
X108057904Y-103245000D02*
X107257904Y-103245000D01*
X107372190Y-103168809D01*
X107448380Y-103092619D01*
X107486476Y-103016428D01*
X109226333Y-81768904D02*
X109493000Y-81387952D01*
X109683476Y-81768904D02*
X109683476Y-80968904D01*
X109378714Y-80968904D01*
X109302523Y-81007000D01*
X109264428Y-81045095D01*
X109226333Y-81121285D01*
X109226333Y-81235571D01*
X109264428Y-81311761D01*
X109302523Y-81349857D01*
X109378714Y-81387952D01*
X109683476Y-81387952D01*
X108502523Y-80968904D02*
X108883476Y-80968904D01*
X108921571Y-81349857D01*
X108883476Y-81311761D01*
X108807285Y-81273666D01*
X108616809Y-81273666D01*
X108540619Y-81311761D01*
X108502523Y-81349857D01*
X108464428Y-81426047D01*
X108464428Y-81616523D01*
X108502523Y-81692714D01*
X108540619Y-81730809D01*
X108616809Y-81768904D01*
X108807285Y-81768904D01*
X108883476Y-81730809D01*
X108921571Y-81692714D01*
X115614952Y-91192352D02*
X115614952Y-91573304D01*
X115881619Y-90773304D02*
X115614952Y-91192352D01*
X115348285Y-90773304D01*
X114662571Y-91573304D02*
X115119714Y-91573304D01*
X114891142Y-91573304D02*
X114891142Y-90773304D01*
X114967333Y-90887590D01*
X115043523Y-90963780D01*
X115119714Y-91001876D01*
X139293523Y-129609904D02*
X139293523Y-130257523D01*
X139255428Y-130333714D01*
X139217333Y-130371809D01*
X139141142Y-130409904D01*
X138988761Y-130409904D01*
X138912571Y-130371809D01*
X138874476Y-130333714D01*
X138836380Y-130257523D01*
X138836380Y-129609904D01*
X138417333Y-130409904D02*
X138264952Y-130409904D01*
X138188761Y-130371809D01*
X138150666Y-130333714D01*
X138074476Y-130219428D01*
X138036380Y-130067047D01*
X138036380Y-129762285D01*
X138074476Y-129686095D01*
X138112571Y-129648000D01*
X138188761Y-129609904D01*
X138341142Y-129609904D01*
X138417333Y-129648000D01*
X138455428Y-129686095D01*
X138493523Y-129762285D01*
X138493523Y-129952761D01*
X138455428Y-130028952D01*
X138417333Y-130067047D01*
X138341142Y-130105142D01*
X138188761Y-130105142D01*
X138112571Y-130067047D01*
X138074476Y-130028952D01*
X138036380Y-129952761D01*
X115671523Y-129609904D02*
X115671523Y-130257523D01*
X115633428Y-130333714D01*
X115595333Y-130371809D01*
X115519142Y-130409904D01*
X115366761Y-130409904D01*
X115290571Y-130371809D01*
X115252476Y-130333714D01*
X115214380Y-130257523D01*
X115214380Y-129609904D01*
X114719142Y-129952761D02*
X114795333Y-129914666D01*
X114833428Y-129876571D01*
X114871523Y-129800380D01*
X114871523Y-129762285D01*
X114833428Y-129686095D01*
X114795333Y-129648000D01*
X114719142Y-129609904D01*
X114566761Y-129609904D01*
X114490571Y-129648000D01*
X114452476Y-129686095D01*
X114414380Y-129762285D01*
X114414380Y-129800380D01*
X114452476Y-129876571D01*
X114490571Y-129914666D01*
X114566761Y-129952761D01*
X114719142Y-129952761D01*
X114795333Y-129990857D01*
X114833428Y-130028952D01*
X114871523Y-130105142D01*
X114871523Y-130257523D01*
X114833428Y-130333714D01*
X114795333Y-130371809D01*
X114719142Y-130409904D01*
X114566761Y-130409904D01*
X114490571Y-130371809D01*
X114452476Y-130333714D01*
X114414380Y-130257523D01*
X114414380Y-130105142D01*
X114452476Y-130028952D01*
X114490571Y-129990857D01*
X114566761Y-129952761D01*
X127482523Y-145484904D02*
X127482523Y-146132523D01*
X127444428Y-146208714D01*
X127406333Y-146246809D01*
X127330142Y-146284904D01*
X127177761Y-146284904D01*
X127101571Y-146246809D01*
X127063476Y-146208714D01*
X127025380Y-146132523D01*
X127025380Y-145484904D01*
X126263476Y-145484904D02*
X126644428Y-145484904D01*
X126682523Y-145865857D01*
X126644428Y-145827761D01*
X126568238Y-145789666D01*
X126377761Y-145789666D01*
X126301571Y-145827761D01*
X126263476Y-145865857D01*
X126225380Y-145942047D01*
X126225380Y-146132523D01*
X126263476Y-146208714D01*
X126301571Y-146246809D01*
X126377761Y-146284904D01*
X126568238Y-146284904D01*
X126644428Y-146246809D01*
X126682523Y-146208714D01*
X127355523Y-115766904D02*
X127355523Y-116414523D01*
X127317428Y-116490714D01*
X127279333Y-116528809D01*
X127203142Y-116566904D01*
X127050761Y-116566904D01*
X126974571Y-116528809D01*
X126936476Y-116490714D01*
X126898380Y-116414523D01*
X126898380Y-115766904D01*
X126174571Y-116033571D02*
X126174571Y-116566904D01*
X126365047Y-115728809D02*
X126555523Y-116300238D01*
X126060285Y-116300238D01*
X127609523Y-54679904D02*
X127609523Y-55327523D01*
X127571428Y-55403714D01*
X127533333Y-55441809D01*
X127457142Y-55479904D01*
X127304761Y-55479904D01*
X127228571Y-55441809D01*
X127190476Y-55403714D01*
X127152380Y-55327523D01*
X127152380Y-54679904D01*
X126809523Y-54756095D02*
X126771428Y-54718000D01*
X126695238Y-54679904D01*
X126504761Y-54679904D01*
X126428571Y-54718000D01*
X126390476Y-54756095D01*
X126352380Y-54832285D01*
X126352380Y-54908476D01*
X126390476Y-55022761D01*
X126847619Y-55479904D01*
X126352380Y-55479904D01*
X131130793Y-84167796D02*
X131588729Y-84625732D01*
X131615666Y-84706544D01*
X131615666Y-84760419D01*
X131588729Y-84841231D01*
X131480979Y-84948981D01*
X131400167Y-84975918D01*
X131346292Y-84975918D01*
X131265480Y-84948981D01*
X130807544Y-84491045D01*
X130807544Y-85622416D02*
X131130793Y-85299167D01*
X130969168Y-85460791D02*
X130403483Y-84895106D01*
X130538170Y-84922043D01*
X130645920Y-84922043D01*
X130726732Y-84895106D01*
X121913523Y-76574904D02*
X121456380Y-76574904D01*
X121684952Y-77374904D02*
X121684952Y-76574904D01*
X121189714Y-77374904D02*
X121189714Y-76574904D01*
X120884952Y-76574904D01*
X120808761Y-76613000D01*
X120770666Y-76651095D01*
X120732571Y-76727285D01*
X120732571Y-76841571D01*
X120770666Y-76917761D01*
X120808761Y-76955857D01*
X120884952Y-76993952D01*
X121189714Y-76993952D01*
X120465904Y-76574904D02*
X119970666Y-76574904D01*
X120237333Y-76879666D01*
X120123047Y-76879666D01*
X120046857Y-76917761D01*
X120008761Y-76955857D01*
X119970666Y-77032047D01*
X119970666Y-77222523D01*
X120008761Y-77298714D01*
X120046857Y-77336809D01*
X120123047Y-77374904D01*
X120351619Y-77374904D01*
X120427809Y-77336809D01*
X120465904Y-77298714D01*
X133851523Y-132708904D02*
X133394380Y-132708904D01*
X133622952Y-133508904D02*
X133622952Y-132708904D01*
X133127714Y-133508904D02*
X133127714Y-132708904D01*
X132822952Y-132708904D01*
X132746761Y-132747000D01*
X132708666Y-132785095D01*
X132670571Y-132861285D01*
X132670571Y-132975571D01*
X132708666Y-133051761D01*
X132746761Y-133089857D01*
X132822952Y-133127952D01*
X133127714Y-133127952D01*
X132365809Y-132785095D02*
X132327714Y-132747000D01*
X132251523Y-132708904D01*
X132061047Y-132708904D01*
X131984857Y-132747000D01*
X131946761Y-132785095D01*
X131908666Y-132861285D01*
X131908666Y-132937476D01*
X131946761Y-133051761D01*
X132403904Y-133508904D01*
X131908666Y-133508904D01*
X122040523Y-132708904D02*
X121583380Y-132708904D01*
X121811952Y-133508904D02*
X121811952Y-132708904D01*
X121316714Y-133508904D02*
X121316714Y-132708904D01*
X121011952Y-132708904D01*
X120935761Y-132747000D01*
X120897666Y-132785095D01*
X120859571Y-132861285D01*
X120859571Y-132975571D01*
X120897666Y-133051761D01*
X120935761Y-133089857D01*
X121011952Y-133127952D01*
X121316714Y-133127952D01*
X120097666Y-133508904D02*
X120554809Y-133508904D01*
X120326238Y-133508904D02*
X120326238Y-132708904D01*
X120402428Y-132823190D01*
X120478619Y-132899380D01*
X120554809Y-132937476D01*
X136937285Y-139688904D02*
X137203952Y-139307952D01*
X137394428Y-139688904D02*
X137394428Y-138888904D01*
X137089666Y-138888904D01*
X137013476Y-138927000D01*
X136975380Y-138965095D01*
X136937285Y-139041285D01*
X136937285Y-139155571D01*
X136975380Y-139231761D01*
X137013476Y-139269857D01*
X137089666Y-139307952D01*
X137394428Y-139307952D01*
X136213476Y-138888904D02*
X136594428Y-138888904D01*
X136632523Y-139269857D01*
X136594428Y-139231761D01*
X136518238Y-139193666D01*
X136327761Y-139193666D01*
X136251571Y-139231761D01*
X136213476Y-139269857D01*
X136175380Y-139346047D01*
X136175380Y-139536523D01*
X136213476Y-139612714D01*
X136251571Y-139650809D01*
X136327761Y-139688904D01*
X136518238Y-139688904D01*
X136594428Y-139650809D01*
X136632523Y-139612714D01*
X135680142Y-138888904D02*
X135603952Y-138888904D01*
X135527761Y-138927000D01*
X135489666Y-138965095D01*
X135451571Y-139041285D01*
X135413476Y-139193666D01*
X135413476Y-139384142D01*
X135451571Y-139536523D01*
X135489666Y-139612714D01*
X135527761Y-139650809D01*
X135603952Y-139688904D01*
X135680142Y-139688904D01*
X135756333Y-139650809D01*
X135794428Y-139612714D01*
X135832523Y-139536523D01*
X135870619Y-139384142D01*
X135870619Y-139193666D01*
X135832523Y-139041285D01*
X135794428Y-138965095D01*
X135756333Y-138927000D01*
X135680142Y-138888904D01*
X141306285Y-139622904D02*
X141572952Y-139241952D01*
X141763428Y-139622904D02*
X141763428Y-138822904D01*
X141458666Y-138822904D01*
X141382476Y-138861000D01*
X141344380Y-138899095D01*
X141306285Y-138975285D01*
X141306285Y-139089571D01*
X141344380Y-139165761D01*
X141382476Y-139203857D01*
X141458666Y-139241952D01*
X141763428Y-139241952D01*
X140620571Y-139089571D02*
X140620571Y-139622904D01*
X140811047Y-138784809D02*
X141001523Y-139356238D01*
X140506285Y-139356238D01*
X140163428Y-139622904D02*
X140011047Y-139622904D01*
X139934857Y-139584809D01*
X139896761Y-139546714D01*
X139820571Y-139432428D01*
X139782476Y-139280047D01*
X139782476Y-138975285D01*
X139820571Y-138899095D01*
X139858666Y-138861000D01*
X139934857Y-138822904D01*
X140087238Y-138822904D01*
X140163428Y-138861000D01*
X140201523Y-138899095D01*
X140239619Y-138975285D01*
X140239619Y-139165761D01*
X140201523Y-139241952D01*
X140163428Y-139280047D01*
X140087238Y-139318142D01*
X139934857Y-139318142D01*
X139858666Y-139280047D01*
X139820571Y-139241952D01*
X139782476Y-139165761D01*
X136937285Y-148029904D02*
X137203952Y-147648952D01*
X137394428Y-148029904D02*
X137394428Y-147229904D01*
X137089666Y-147229904D01*
X137013476Y-147268000D01*
X136975380Y-147306095D01*
X136937285Y-147382285D01*
X136937285Y-147496571D01*
X136975380Y-147572761D01*
X137013476Y-147610857D01*
X137089666Y-147648952D01*
X137394428Y-147648952D01*
X136251571Y-147496571D02*
X136251571Y-148029904D01*
X136442047Y-147191809D02*
X136632523Y-147763238D01*
X136137285Y-147763238D01*
X135718238Y-147572761D02*
X135794428Y-147534666D01*
X135832523Y-147496571D01*
X135870619Y-147420380D01*
X135870619Y-147382285D01*
X135832523Y-147306095D01*
X135794428Y-147268000D01*
X135718238Y-147229904D01*
X135565857Y-147229904D01*
X135489666Y-147268000D01*
X135451571Y-147306095D01*
X135413476Y-147382285D01*
X135413476Y-147420380D01*
X135451571Y-147496571D01*
X135489666Y-147534666D01*
X135565857Y-147572761D01*
X135718238Y-147572761D01*
X135794428Y-147610857D01*
X135832523Y-147648952D01*
X135870619Y-147725142D01*
X135870619Y-147877523D01*
X135832523Y-147953714D01*
X135794428Y-147991809D01*
X135718238Y-148029904D01*
X135565857Y-148029904D01*
X135489666Y-147991809D01*
X135451571Y-147953714D01*
X135413476Y-147877523D01*
X135413476Y-147725142D01*
X135451571Y-147648952D01*
X135489666Y-147610857D01*
X135565857Y-147572761D01*
X136937285Y-145235904D02*
X137203952Y-144854952D01*
X137394428Y-145235904D02*
X137394428Y-144435904D01*
X137089666Y-144435904D01*
X137013476Y-144474000D01*
X136975380Y-144512095D01*
X136937285Y-144588285D01*
X136937285Y-144702571D01*
X136975380Y-144778761D01*
X137013476Y-144816857D01*
X137089666Y-144854952D01*
X137394428Y-144854952D01*
X136251571Y-144702571D02*
X136251571Y-145235904D01*
X136442047Y-144397809D02*
X136632523Y-144969238D01*
X136137285Y-144969238D01*
X135908714Y-144435904D02*
X135375380Y-144435904D01*
X135718238Y-145235904D01*
X141306285Y-148095904D02*
X141572952Y-147714952D01*
X141763428Y-148095904D02*
X141763428Y-147295904D01*
X141458666Y-147295904D01*
X141382476Y-147334000D01*
X141344380Y-147372095D01*
X141306285Y-147448285D01*
X141306285Y-147562571D01*
X141344380Y-147638761D01*
X141382476Y-147676857D01*
X141458666Y-147714952D01*
X141763428Y-147714952D01*
X140620571Y-147562571D02*
X140620571Y-148095904D01*
X140811047Y-147257809D02*
X141001523Y-147829238D01*
X140506285Y-147829238D01*
X139858666Y-147295904D02*
X140011047Y-147295904D01*
X140087238Y-147334000D01*
X140125333Y-147372095D01*
X140201523Y-147486380D01*
X140239619Y-147638761D01*
X140239619Y-147943523D01*
X140201523Y-148019714D01*
X140163428Y-148057809D01*
X140087238Y-148095904D01*
X139934857Y-148095904D01*
X139858666Y-148057809D01*
X139820571Y-148019714D01*
X139782476Y-147943523D01*
X139782476Y-147753047D01*
X139820571Y-147676857D01*
X139858666Y-147638761D01*
X139934857Y-147600666D01*
X140087238Y-147600666D01*
X140163428Y-147638761D01*
X140201523Y-147676857D01*
X140239619Y-147753047D01*
X141306285Y-145301904D02*
X141572952Y-144920952D01*
X141763428Y-145301904D02*
X141763428Y-144501904D01*
X141458666Y-144501904D01*
X141382476Y-144540000D01*
X141344380Y-144578095D01*
X141306285Y-144654285D01*
X141306285Y-144768571D01*
X141344380Y-144844761D01*
X141382476Y-144882857D01*
X141458666Y-144920952D01*
X141763428Y-144920952D01*
X140620571Y-144768571D02*
X140620571Y-145301904D01*
X140811047Y-144463809D02*
X141001523Y-145035238D01*
X140506285Y-145035238D01*
X139820571Y-144501904D02*
X140201523Y-144501904D01*
X140239619Y-144882857D01*
X140201523Y-144844761D01*
X140125333Y-144806666D01*
X139934857Y-144806666D01*
X139858666Y-144844761D01*
X139820571Y-144882857D01*
X139782476Y-144959047D01*
X139782476Y-145149523D01*
X139820571Y-145225714D01*
X139858666Y-145263809D01*
X139934857Y-145301904D01*
X140125333Y-145301904D01*
X140201523Y-145263809D01*
X140239619Y-145225714D01*
X141306285Y-127582904D02*
X141572952Y-127201952D01*
X141763428Y-127582904D02*
X141763428Y-126782904D01*
X141458666Y-126782904D01*
X141382476Y-126821000D01*
X141344380Y-126859095D01*
X141306285Y-126935285D01*
X141306285Y-127049571D01*
X141344380Y-127125761D01*
X141382476Y-127163857D01*
X141458666Y-127201952D01*
X141763428Y-127201952D01*
X140620571Y-127049571D02*
X140620571Y-127582904D01*
X140811047Y-126744809D02*
X141001523Y-127316238D01*
X140506285Y-127316238D01*
X139858666Y-127049571D02*
X139858666Y-127582904D01*
X140049142Y-126744809D02*
X140239619Y-127316238D01*
X139744380Y-127316238D01*
X136937285Y-127648904D02*
X137203952Y-127267952D01*
X137394428Y-127648904D02*
X137394428Y-126848904D01*
X137089666Y-126848904D01*
X137013476Y-126887000D01*
X136975380Y-126925095D01*
X136937285Y-127001285D01*
X136937285Y-127115571D01*
X136975380Y-127191761D01*
X137013476Y-127229857D01*
X137089666Y-127267952D01*
X137394428Y-127267952D01*
X136251571Y-127115571D02*
X136251571Y-127648904D01*
X136442047Y-126810809D02*
X136632523Y-127382238D01*
X136137285Y-127382238D01*
X135908714Y-126848904D02*
X135413476Y-126848904D01*
X135680142Y-127153666D01*
X135565857Y-127153666D01*
X135489666Y-127191761D01*
X135451571Y-127229857D01*
X135413476Y-127306047D01*
X135413476Y-127496523D01*
X135451571Y-127572714D01*
X135489666Y-127610809D01*
X135565857Y-127648904D01*
X135794428Y-127648904D01*
X135870619Y-127610809D01*
X135908714Y-127572714D01*
X141306285Y-119393904D02*
X141572952Y-119012952D01*
X141763428Y-119393904D02*
X141763428Y-118593904D01*
X141458666Y-118593904D01*
X141382476Y-118632000D01*
X141344380Y-118670095D01*
X141306285Y-118746285D01*
X141306285Y-118860571D01*
X141344380Y-118936761D01*
X141382476Y-118974857D01*
X141458666Y-119012952D01*
X141763428Y-119012952D01*
X140620571Y-118860571D02*
X140620571Y-119393904D01*
X140811047Y-118555809D02*
X141001523Y-119127238D01*
X140506285Y-119127238D01*
X140239619Y-118670095D02*
X140201523Y-118632000D01*
X140125333Y-118593904D01*
X139934857Y-118593904D01*
X139858666Y-118632000D01*
X139820571Y-118670095D01*
X139782476Y-118746285D01*
X139782476Y-118822476D01*
X139820571Y-118936761D01*
X140277714Y-119393904D01*
X139782476Y-119393904D01*
X141306285Y-122281904D02*
X141572952Y-121900952D01*
X141763428Y-122281904D02*
X141763428Y-121481904D01*
X141458666Y-121481904D01*
X141382476Y-121520000D01*
X141344380Y-121558095D01*
X141306285Y-121634285D01*
X141306285Y-121748571D01*
X141344380Y-121824761D01*
X141382476Y-121862857D01*
X141458666Y-121900952D01*
X141763428Y-121900952D01*
X140620571Y-121748571D02*
X140620571Y-122281904D01*
X140811047Y-121443809D02*
X141001523Y-122015238D01*
X140506285Y-122015238D01*
X139782476Y-122281904D02*
X140239619Y-122281904D01*
X140011047Y-122281904D02*
X140011047Y-121481904D01*
X140087238Y-121596190D01*
X140163428Y-121672380D01*
X140239619Y-121710476D01*
X136937285Y-119327904D02*
X137203952Y-118946952D01*
X137394428Y-119327904D02*
X137394428Y-118527904D01*
X137089666Y-118527904D01*
X137013476Y-118566000D01*
X136975380Y-118604095D01*
X136937285Y-118680285D01*
X136937285Y-118794571D01*
X136975380Y-118870761D01*
X137013476Y-118908857D01*
X137089666Y-118946952D01*
X137394428Y-118946952D01*
X136251571Y-118794571D02*
X136251571Y-119327904D01*
X136442047Y-118489809D02*
X136632523Y-119061238D01*
X136137285Y-119061238D01*
X135680142Y-118527904D02*
X135603952Y-118527904D01*
X135527761Y-118566000D01*
X135489666Y-118604095D01*
X135451571Y-118680285D01*
X135413476Y-118832666D01*
X135413476Y-119023142D01*
X135451571Y-119175523D01*
X135489666Y-119251714D01*
X135527761Y-119289809D01*
X135603952Y-119327904D01*
X135680142Y-119327904D01*
X135756333Y-119289809D01*
X135794428Y-119251714D01*
X135832523Y-119175523D01*
X135870619Y-119023142D01*
X135870619Y-118832666D01*
X135832523Y-118680285D01*
X135794428Y-118604095D01*
X135756333Y-118566000D01*
X135680142Y-118527904D01*
X136937285Y-122121904D02*
X137203952Y-121740952D01*
X137394428Y-122121904D02*
X137394428Y-121321904D01*
X137089666Y-121321904D01*
X137013476Y-121360000D01*
X136975380Y-121398095D01*
X136937285Y-121474285D01*
X136937285Y-121588571D01*
X136975380Y-121664761D01*
X137013476Y-121702857D01*
X137089666Y-121740952D01*
X137394428Y-121740952D01*
X136670619Y-121321904D02*
X136175380Y-121321904D01*
X136442047Y-121626666D01*
X136327761Y-121626666D01*
X136251571Y-121664761D01*
X136213476Y-121702857D01*
X136175380Y-121779047D01*
X136175380Y-121969523D01*
X136213476Y-122045714D01*
X136251571Y-122083809D01*
X136327761Y-122121904D01*
X136556333Y-122121904D01*
X136632523Y-122083809D01*
X136670619Y-122045714D01*
X135794428Y-122121904D02*
X135642047Y-122121904D01*
X135565857Y-122083809D01*
X135527761Y-122045714D01*
X135451571Y-121931428D01*
X135413476Y-121779047D01*
X135413476Y-121474285D01*
X135451571Y-121398095D01*
X135489666Y-121360000D01*
X135565857Y-121321904D01*
X135718238Y-121321904D01*
X135794428Y-121360000D01*
X135832523Y-121398095D01*
X135870619Y-121474285D01*
X135870619Y-121664761D01*
X135832523Y-121740952D01*
X135794428Y-121779047D01*
X135718238Y-121817142D01*
X135565857Y-121817142D01*
X135489666Y-121779047D01*
X135451571Y-121740952D01*
X135413476Y-121664761D01*
X113468285Y-139688904D02*
X113734952Y-139307952D01*
X113925428Y-139688904D02*
X113925428Y-138888904D01*
X113620666Y-138888904D01*
X113544476Y-138927000D01*
X113506380Y-138965095D01*
X113468285Y-139041285D01*
X113468285Y-139155571D01*
X113506380Y-139231761D01*
X113544476Y-139269857D01*
X113620666Y-139307952D01*
X113925428Y-139307952D01*
X113201619Y-138888904D02*
X112706380Y-138888904D01*
X112973047Y-139193666D01*
X112858761Y-139193666D01*
X112782571Y-139231761D01*
X112744476Y-139269857D01*
X112706380Y-139346047D01*
X112706380Y-139536523D01*
X112744476Y-139612714D01*
X112782571Y-139650809D01*
X112858761Y-139688904D01*
X113087333Y-139688904D01*
X113163523Y-139650809D01*
X113201619Y-139612714D01*
X112249238Y-139231761D02*
X112325428Y-139193666D01*
X112363523Y-139155571D01*
X112401619Y-139079380D01*
X112401619Y-139041285D01*
X112363523Y-138965095D01*
X112325428Y-138927000D01*
X112249238Y-138888904D01*
X112096857Y-138888904D01*
X112020666Y-138927000D01*
X111982571Y-138965095D01*
X111944476Y-139041285D01*
X111944476Y-139079380D01*
X111982571Y-139155571D01*
X112020666Y-139193666D01*
X112096857Y-139231761D01*
X112249238Y-139231761D01*
X112325428Y-139269857D01*
X112363523Y-139307952D01*
X112401619Y-139384142D01*
X112401619Y-139536523D01*
X112363523Y-139612714D01*
X112325428Y-139650809D01*
X112249238Y-139688904D01*
X112096857Y-139688904D01*
X112020666Y-139650809D01*
X111982571Y-139612714D01*
X111944476Y-139536523D01*
X111944476Y-139384142D01*
X111982571Y-139307952D01*
X112020666Y-139269857D01*
X112096857Y-139231761D01*
X117786285Y-139622904D02*
X118052952Y-139241952D01*
X118243428Y-139622904D02*
X118243428Y-138822904D01*
X117938666Y-138822904D01*
X117862476Y-138861000D01*
X117824380Y-138899095D01*
X117786285Y-138975285D01*
X117786285Y-139089571D01*
X117824380Y-139165761D01*
X117862476Y-139203857D01*
X117938666Y-139241952D01*
X118243428Y-139241952D01*
X117519619Y-138822904D02*
X117024380Y-138822904D01*
X117291047Y-139127666D01*
X117176761Y-139127666D01*
X117100571Y-139165761D01*
X117062476Y-139203857D01*
X117024380Y-139280047D01*
X117024380Y-139470523D01*
X117062476Y-139546714D01*
X117100571Y-139584809D01*
X117176761Y-139622904D01*
X117405333Y-139622904D01*
X117481523Y-139584809D01*
X117519619Y-139546714D01*
X116757714Y-138822904D02*
X116224380Y-138822904D01*
X116567238Y-139622904D01*
X113468285Y-148029904D02*
X113734952Y-147648952D01*
X113925428Y-148029904D02*
X113925428Y-147229904D01*
X113620666Y-147229904D01*
X113544476Y-147268000D01*
X113506380Y-147306095D01*
X113468285Y-147382285D01*
X113468285Y-147496571D01*
X113506380Y-147572761D01*
X113544476Y-147610857D01*
X113620666Y-147648952D01*
X113925428Y-147648952D01*
X113201619Y-147229904D02*
X112706380Y-147229904D01*
X112973047Y-147534666D01*
X112858761Y-147534666D01*
X112782571Y-147572761D01*
X112744476Y-147610857D01*
X112706380Y-147687047D01*
X112706380Y-147877523D01*
X112744476Y-147953714D01*
X112782571Y-147991809D01*
X112858761Y-148029904D01*
X113087333Y-148029904D01*
X113163523Y-147991809D01*
X113201619Y-147953714D01*
X112020666Y-147229904D02*
X112173047Y-147229904D01*
X112249238Y-147268000D01*
X112287333Y-147306095D01*
X112363523Y-147420380D01*
X112401619Y-147572761D01*
X112401619Y-147877523D01*
X112363523Y-147953714D01*
X112325428Y-147991809D01*
X112249238Y-148029904D01*
X112096857Y-148029904D01*
X112020666Y-147991809D01*
X111982571Y-147953714D01*
X111944476Y-147877523D01*
X111944476Y-147687047D01*
X111982571Y-147610857D01*
X112020666Y-147572761D01*
X112096857Y-147534666D01*
X112249238Y-147534666D01*
X112325428Y-147572761D01*
X112363523Y-147610857D01*
X112401619Y-147687047D01*
X113468285Y-145268904D02*
X113734952Y-144887952D01*
X113925428Y-145268904D02*
X113925428Y-144468904D01*
X113620666Y-144468904D01*
X113544476Y-144507000D01*
X113506380Y-144545095D01*
X113468285Y-144621285D01*
X113468285Y-144735571D01*
X113506380Y-144811761D01*
X113544476Y-144849857D01*
X113620666Y-144887952D01*
X113925428Y-144887952D01*
X113201619Y-144468904D02*
X112706380Y-144468904D01*
X112973047Y-144773666D01*
X112858761Y-144773666D01*
X112782571Y-144811761D01*
X112744476Y-144849857D01*
X112706380Y-144926047D01*
X112706380Y-145116523D01*
X112744476Y-145192714D01*
X112782571Y-145230809D01*
X112858761Y-145268904D01*
X113087333Y-145268904D01*
X113163523Y-145230809D01*
X113201619Y-145192714D01*
X111982571Y-144468904D02*
X112363523Y-144468904D01*
X112401619Y-144849857D01*
X112363523Y-144811761D01*
X112287333Y-144773666D01*
X112096857Y-144773666D01*
X112020666Y-144811761D01*
X111982571Y-144849857D01*
X111944476Y-144926047D01*
X111944476Y-145116523D01*
X111982571Y-145192714D01*
X112020666Y-145230809D01*
X112096857Y-145268904D01*
X112287333Y-145268904D01*
X112363523Y-145230809D01*
X112401619Y-145192714D01*
X117786285Y-148120904D02*
X118052952Y-147739952D01*
X118243428Y-148120904D02*
X118243428Y-147320904D01*
X117938666Y-147320904D01*
X117862476Y-147359000D01*
X117824380Y-147397095D01*
X117786285Y-147473285D01*
X117786285Y-147587571D01*
X117824380Y-147663761D01*
X117862476Y-147701857D01*
X117938666Y-147739952D01*
X118243428Y-147739952D01*
X117519619Y-147320904D02*
X117024380Y-147320904D01*
X117291047Y-147625666D01*
X117176761Y-147625666D01*
X117100571Y-147663761D01*
X117062476Y-147701857D01*
X117024380Y-147778047D01*
X117024380Y-147968523D01*
X117062476Y-148044714D01*
X117100571Y-148082809D01*
X117176761Y-148120904D01*
X117405333Y-148120904D01*
X117481523Y-148082809D01*
X117519619Y-148044714D01*
X116338666Y-147587571D02*
X116338666Y-148120904D01*
X116529142Y-147282809D02*
X116719619Y-147854238D01*
X116224380Y-147854238D01*
X117786285Y-145235904D02*
X118052952Y-144854952D01*
X118243428Y-145235904D02*
X118243428Y-144435904D01*
X117938666Y-144435904D01*
X117862476Y-144474000D01*
X117824380Y-144512095D01*
X117786285Y-144588285D01*
X117786285Y-144702571D01*
X117824380Y-144778761D01*
X117862476Y-144816857D01*
X117938666Y-144854952D01*
X118243428Y-144854952D01*
X117519619Y-144435904D02*
X117024380Y-144435904D01*
X117291047Y-144740666D01*
X117176761Y-144740666D01*
X117100571Y-144778761D01*
X117062476Y-144816857D01*
X117024380Y-144893047D01*
X117024380Y-145083523D01*
X117062476Y-145159714D01*
X117100571Y-145197809D01*
X117176761Y-145235904D01*
X117405333Y-145235904D01*
X117481523Y-145197809D01*
X117519619Y-145159714D01*
X116757714Y-144435904D02*
X116262476Y-144435904D01*
X116529142Y-144740666D01*
X116414857Y-144740666D01*
X116338666Y-144778761D01*
X116300571Y-144816857D01*
X116262476Y-144893047D01*
X116262476Y-145083523D01*
X116300571Y-145159714D01*
X116338666Y-145197809D01*
X116414857Y-145235904D01*
X116643428Y-145235904D01*
X116719619Y-145197809D01*
X116757714Y-145159714D01*
X117786285Y-127658904D02*
X118052952Y-127277952D01*
X118243428Y-127658904D02*
X118243428Y-126858904D01*
X117938666Y-126858904D01*
X117862476Y-126897000D01*
X117824380Y-126935095D01*
X117786285Y-127011285D01*
X117786285Y-127125571D01*
X117824380Y-127201761D01*
X117862476Y-127239857D01*
X117938666Y-127277952D01*
X118243428Y-127277952D01*
X117519619Y-126858904D02*
X117024380Y-126858904D01*
X117291047Y-127163666D01*
X117176761Y-127163666D01*
X117100571Y-127201761D01*
X117062476Y-127239857D01*
X117024380Y-127316047D01*
X117024380Y-127506523D01*
X117062476Y-127582714D01*
X117100571Y-127620809D01*
X117176761Y-127658904D01*
X117405333Y-127658904D01*
X117481523Y-127620809D01*
X117519619Y-127582714D01*
X116719619Y-126935095D02*
X116681523Y-126897000D01*
X116605333Y-126858904D01*
X116414857Y-126858904D01*
X116338666Y-126897000D01*
X116300571Y-126935095D01*
X116262476Y-127011285D01*
X116262476Y-127087476D01*
X116300571Y-127201761D01*
X116757714Y-127658904D01*
X116262476Y-127658904D01*
X113468285Y-127648904D02*
X113734952Y-127267952D01*
X113925428Y-127648904D02*
X113925428Y-126848904D01*
X113620666Y-126848904D01*
X113544476Y-126887000D01*
X113506380Y-126925095D01*
X113468285Y-127001285D01*
X113468285Y-127115571D01*
X113506380Y-127191761D01*
X113544476Y-127229857D01*
X113620666Y-127267952D01*
X113925428Y-127267952D01*
X113201619Y-126848904D02*
X112706380Y-126848904D01*
X112973047Y-127153666D01*
X112858761Y-127153666D01*
X112782571Y-127191761D01*
X112744476Y-127229857D01*
X112706380Y-127306047D01*
X112706380Y-127496523D01*
X112744476Y-127572714D01*
X112782571Y-127610809D01*
X112858761Y-127648904D01*
X113087333Y-127648904D01*
X113163523Y-127610809D01*
X113201619Y-127572714D01*
X111944476Y-127648904D02*
X112401619Y-127648904D01*
X112173047Y-127648904D02*
X112173047Y-126848904D01*
X112249238Y-126963190D01*
X112325428Y-127039380D01*
X112401619Y-127077476D01*
X117786285Y-119393904D02*
X118052952Y-119012952D01*
X118243428Y-119393904D02*
X118243428Y-118593904D01*
X117938666Y-118593904D01*
X117862476Y-118632000D01*
X117824380Y-118670095D01*
X117786285Y-118746285D01*
X117786285Y-118860571D01*
X117824380Y-118936761D01*
X117862476Y-118974857D01*
X117938666Y-119012952D01*
X118243428Y-119012952D01*
X117519619Y-118593904D02*
X117024380Y-118593904D01*
X117291047Y-118898666D01*
X117176761Y-118898666D01*
X117100571Y-118936761D01*
X117062476Y-118974857D01*
X117024380Y-119051047D01*
X117024380Y-119241523D01*
X117062476Y-119317714D01*
X117100571Y-119355809D01*
X117176761Y-119393904D01*
X117405333Y-119393904D01*
X117481523Y-119355809D01*
X117519619Y-119317714D01*
X116529142Y-118593904D02*
X116452952Y-118593904D01*
X116376761Y-118632000D01*
X116338666Y-118670095D01*
X116300571Y-118746285D01*
X116262476Y-118898666D01*
X116262476Y-119089142D01*
X116300571Y-119241523D01*
X116338666Y-119317714D01*
X116376761Y-119355809D01*
X116452952Y-119393904D01*
X116529142Y-119393904D01*
X116605333Y-119355809D01*
X116643428Y-119317714D01*
X116681523Y-119241523D01*
X116719619Y-119089142D01*
X116719619Y-118898666D01*
X116681523Y-118746285D01*
X116643428Y-118670095D01*
X116605333Y-118632000D01*
X116529142Y-118593904D01*
X117786285Y-122281904D02*
X118052952Y-121900952D01*
X118243428Y-122281904D02*
X118243428Y-121481904D01*
X117938666Y-121481904D01*
X117862476Y-121520000D01*
X117824380Y-121558095D01*
X117786285Y-121634285D01*
X117786285Y-121748571D01*
X117824380Y-121824761D01*
X117862476Y-121862857D01*
X117938666Y-121900952D01*
X118243428Y-121900952D01*
X117481523Y-121558095D02*
X117443428Y-121520000D01*
X117367238Y-121481904D01*
X117176761Y-121481904D01*
X117100571Y-121520000D01*
X117062476Y-121558095D01*
X117024380Y-121634285D01*
X117024380Y-121710476D01*
X117062476Y-121824761D01*
X117519619Y-122281904D01*
X117024380Y-122281904D01*
X116643428Y-122281904D02*
X116491047Y-122281904D01*
X116414857Y-122243809D01*
X116376761Y-122205714D01*
X116300571Y-122091428D01*
X116262476Y-121939047D01*
X116262476Y-121634285D01*
X116300571Y-121558095D01*
X116338666Y-121520000D01*
X116414857Y-121481904D01*
X116567238Y-121481904D01*
X116643428Y-121520000D01*
X116681523Y-121558095D01*
X116719619Y-121634285D01*
X116719619Y-121824761D01*
X116681523Y-121900952D01*
X116643428Y-121939047D01*
X116567238Y-121977142D01*
X116414857Y-121977142D01*
X116338666Y-121939047D01*
X116300571Y-121900952D01*
X116262476Y-121824761D01*
X113468285Y-119327904D02*
X113734952Y-118946952D01*
X113925428Y-119327904D02*
X113925428Y-118527904D01*
X113620666Y-118527904D01*
X113544476Y-118566000D01*
X113506380Y-118604095D01*
X113468285Y-118680285D01*
X113468285Y-118794571D01*
X113506380Y-118870761D01*
X113544476Y-118908857D01*
X113620666Y-118946952D01*
X113925428Y-118946952D01*
X113163523Y-118604095D02*
X113125428Y-118566000D01*
X113049238Y-118527904D01*
X112858761Y-118527904D01*
X112782571Y-118566000D01*
X112744476Y-118604095D01*
X112706380Y-118680285D01*
X112706380Y-118756476D01*
X112744476Y-118870761D01*
X113201619Y-119327904D01*
X112706380Y-119327904D01*
X112249238Y-118870761D02*
X112325428Y-118832666D01*
X112363523Y-118794571D01*
X112401619Y-118718380D01*
X112401619Y-118680285D01*
X112363523Y-118604095D01*
X112325428Y-118566000D01*
X112249238Y-118527904D01*
X112096857Y-118527904D01*
X112020666Y-118566000D01*
X111982571Y-118604095D01*
X111944476Y-118680285D01*
X111944476Y-118718380D01*
X111982571Y-118794571D01*
X112020666Y-118832666D01*
X112096857Y-118870761D01*
X112249238Y-118870761D01*
X112325428Y-118908857D01*
X112363523Y-118946952D01*
X112401619Y-119023142D01*
X112401619Y-119175523D01*
X112363523Y-119251714D01*
X112325428Y-119289809D01*
X112249238Y-119327904D01*
X112096857Y-119327904D01*
X112020666Y-119289809D01*
X111982571Y-119251714D01*
X111944476Y-119175523D01*
X111944476Y-119023142D01*
X111982571Y-118946952D01*
X112020666Y-118908857D01*
X112096857Y-118870761D01*
X113468285Y-122121904D02*
X113734952Y-121740952D01*
X113925428Y-122121904D02*
X113925428Y-121321904D01*
X113620666Y-121321904D01*
X113544476Y-121360000D01*
X113506380Y-121398095D01*
X113468285Y-121474285D01*
X113468285Y-121588571D01*
X113506380Y-121664761D01*
X113544476Y-121702857D01*
X113620666Y-121740952D01*
X113925428Y-121740952D01*
X113163523Y-121398095D02*
X113125428Y-121360000D01*
X113049238Y-121321904D01*
X112858761Y-121321904D01*
X112782571Y-121360000D01*
X112744476Y-121398095D01*
X112706380Y-121474285D01*
X112706380Y-121550476D01*
X112744476Y-121664761D01*
X113201619Y-122121904D01*
X112706380Y-122121904D01*
X112439714Y-121321904D02*
X111906380Y-121321904D01*
X112249238Y-122121904D01*
X144176285Y-89609904D02*
X144442952Y-89228952D01*
X144633428Y-89609904D02*
X144633428Y-88809904D01*
X144328666Y-88809904D01*
X144252476Y-88848000D01*
X144214380Y-88886095D01*
X144176285Y-88962285D01*
X144176285Y-89076571D01*
X144214380Y-89152761D01*
X144252476Y-89190857D01*
X144328666Y-89228952D01*
X144633428Y-89228952D01*
X143871523Y-88886095D02*
X143833428Y-88848000D01*
X143757238Y-88809904D01*
X143566761Y-88809904D01*
X143490571Y-88848000D01*
X143452476Y-88886095D01*
X143414380Y-88962285D01*
X143414380Y-89038476D01*
X143452476Y-89152761D01*
X143909619Y-89609904D01*
X143414380Y-89609904D01*
X142728666Y-88809904D02*
X142881047Y-88809904D01*
X142957238Y-88848000D01*
X142995333Y-88886095D01*
X143071523Y-89000380D01*
X143109619Y-89152761D01*
X143109619Y-89457523D01*
X143071523Y-89533714D01*
X143033428Y-89571809D01*
X142957238Y-89609904D01*
X142804857Y-89609904D01*
X142728666Y-89571809D01*
X142690571Y-89533714D01*
X142652476Y-89457523D01*
X142652476Y-89267047D01*
X142690571Y-89190857D01*
X142728666Y-89152761D01*
X142804857Y-89114666D01*
X142957238Y-89114666D01*
X143033428Y-89152761D01*
X143071523Y-89190857D01*
X143109619Y-89267047D01*
X110945904Y-102355714D02*
X110564952Y-102089047D01*
X110945904Y-101898571D02*
X110145904Y-101898571D01*
X110145904Y-102203333D01*
X110184000Y-102279523D01*
X110222095Y-102317619D01*
X110298285Y-102355714D01*
X110412571Y-102355714D01*
X110488761Y-102317619D01*
X110526857Y-102279523D01*
X110564952Y-102203333D01*
X110564952Y-101898571D01*
X110222095Y-102660476D02*
X110184000Y-102698571D01*
X110145904Y-102774761D01*
X110145904Y-102965238D01*
X110184000Y-103041428D01*
X110222095Y-103079523D01*
X110298285Y-103117619D01*
X110374476Y-103117619D01*
X110488761Y-103079523D01*
X110945904Y-102622380D01*
X110945904Y-103117619D01*
X110145904Y-103841428D02*
X110145904Y-103460476D01*
X110526857Y-103422380D01*
X110488761Y-103460476D01*
X110450666Y-103536666D01*
X110450666Y-103727142D01*
X110488761Y-103803333D01*
X110526857Y-103841428D01*
X110603047Y-103879523D01*
X110793523Y-103879523D01*
X110869714Y-103841428D01*
X110907809Y-103803333D01*
X110945904Y-103727142D01*
X110945904Y-103536666D01*
X110907809Y-103460476D01*
X110869714Y-103422380D01*
X113739904Y-102355714D02*
X113358952Y-102089047D01*
X113739904Y-101898571D02*
X112939904Y-101898571D01*
X112939904Y-102203333D01*
X112978000Y-102279523D01*
X113016095Y-102317619D01*
X113092285Y-102355714D01*
X113206571Y-102355714D01*
X113282761Y-102317619D01*
X113320857Y-102279523D01*
X113358952Y-102203333D01*
X113358952Y-101898571D01*
X113016095Y-102660476D02*
X112978000Y-102698571D01*
X112939904Y-102774761D01*
X112939904Y-102965238D01*
X112978000Y-103041428D01*
X113016095Y-103079523D01*
X113092285Y-103117619D01*
X113168476Y-103117619D01*
X113282761Y-103079523D01*
X113739904Y-102622380D01*
X113739904Y-103117619D01*
X113206571Y-103803333D02*
X113739904Y-103803333D01*
X112901809Y-103612857D02*
X113473238Y-103422380D01*
X113473238Y-103917619D01*
X109099285Y-145235904D02*
X109365952Y-144854952D01*
X109556428Y-145235904D02*
X109556428Y-144435904D01*
X109251666Y-144435904D01*
X109175476Y-144474000D01*
X109137380Y-144512095D01*
X109099285Y-144588285D01*
X109099285Y-144702571D01*
X109137380Y-144778761D01*
X109175476Y-144816857D01*
X109251666Y-144854952D01*
X109556428Y-144854952D01*
X108794523Y-144512095D02*
X108756428Y-144474000D01*
X108680238Y-144435904D01*
X108489761Y-144435904D01*
X108413571Y-144474000D01*
X108375476Y-144512095D01*
X108337380Y-144588285D01*
X108337380Y-144664476D01*
X108375476Y-144778761D01*
X108832619Y-145235904D01*
X108337380Y-145235904D01*
X108070714Y-144435904D02*
X107575476Y-144435904D01*
X107842142Y-144740666D01*
X107727857Y-144740666D01*
X107651666Y-144778761D01*
X107613571Y-144816857D01*
X107575476Y-144893047D01*
X107575476Y-145083523D01*
X107613571Y-145159714D01*
X107651666Y-145197809D01*
X107727857Y-145235904D01*
X107956428Y-145235904D01*
X108032619Y-145197809D01*
X108070714Y-145159714D01*
X110623285Y-89675904D02*
X110889952Y-89294952D01*
X111080428Y-89675904D02*
X111080428Y-88875904D01*
X110775666Y-88875904D01*
X110699476Y-88914000D01*
X110661380Y-88952095D01*
X110623285Y-89028285D01*
X110623285Y-89142571D01*
X110661380Y-89218761D01*
X110699476Y-89256857D01*
X110775666Y-89294952D01*
X111080428Y-89294952D01*
X110318523Y-88952095D02*
X110280428Y-88914000D01*
X110204238Y-88875904D01*
X110013761Y-88875904D01*
X109937571Y-88914000D01*
X109899476Y-88952095D01*
X109861380Y-89028285D01*
X109861380Y-89104476D01*
X109899476Y-89218761D01*
X110356619Y-89675904D01*
X109861380Y-89675904D01*
X109556619Y-88952095D02*
X109518523Y-88914000D01*
X109442333Y-88875904D01*
X109251857Y-88875904D01*
X109175666Y-88914000D01*
X109137571Y-88952095D01*
X109099476Y-89028285D01*
X109099476Y-89104476D01*
X109137571Y-89218761D01*
X109594714Y-89675904D01*
X109099476Y-89675904D01*
X138156904Y-102355714D02*
X137775952Y-102089047D01*
X138156904Y-101898571D02*
X137356904Y-101898571D01*
X137356904Y-102203333D01*
X137395000Y-102279523D01*
X137433095Y-102317619D01*
X137509285Y-102355714D01*
X137623571Y-102355714D01*
X137699761Y-102317619D01*
X137737857Y-102279523D01*
X137775952Y-102203333D01*
X137775952Y-101898571D01*
X137433095Y-102660476D02*
X137395000Y-102698571D01*
X137356904Y-102774761D01*
X137356904Y-102965238D01*
X137395000Y-103041428D01*
X137433095Y-103079523D01*
X137509285Y-103117619D01*
X137585476Y-103117619D01*
X137699761Y-103079523D01*
X138156904Y-102622380D01*
X138156904Y-103117619D01*
X138156904Y-103879523D02*
X138156904Y-103422380D01*
X138156904Y-103650952D02*
X137356904Y-103650952D01*
X137471190Y-103574761D01*
X137547380Y-103498571D01*
X137585476Y-103422380D01*
X145548285Y-145301904D02*
X145814952Y-144920952D01*
X146005428Y-145301904D02*
X146005428Y-144501904D01*
X145700666Y-144501904D01*
X145624476Y-144540000D01*
X145586380Y-144578095D01*
X145548285Y-144654285D01*
X145548285Y-144768571D01*
X145586380Y-144844761D01*
X145624476Y-144882857D01*
X145700666Y-144920952D01*
X146005428Y-144920952D01*
X145243523Y-144578095D02*
X145205428Y-144540000D01*
X145129238Y-144501904D01*
X144938761Y-144501904D01*
X144862571Y-144540000D01*
X144824476Y-144578095D01*
X144786380Y-144654285D01*
X144786380Y-144730476D01*
X144824476Y-144844761D01*
X145281619Y-145301904D01*
X144786380Y-145301904D01*
X144291142Y-144501904D02*
X144214952Y-144501904D01*
X144138761Y-144540000D01*
X144100666Y-144578095D01*
X144062571Y-144654285D01*
X144024476Y-144806666D01*
X144024476Y-144997142D01*
X144062571Y-145149523D01*
X144100666Y-145225714D01*
X144138761Y-145263809D01*
X144214952Y-145301904D01*
X144291142Y-145301904D01*
X144367333Y-145263809D01*
X144405428Y-145225714D01*
X144443523Y-145149523D01*
X144481619Y-144997142D01*
X144481619Y-144806666D01*
X144443523Y-144654285D01*
X144405428Y-144578095D01*
X144367333Y-144540000D01*
X144291142Y-144501904D01*
X136404285Y-93165904D02*
X136670952Y-92784952D01*
X136861428Y-93165904D02*
X136861428Y-92365904D01*
X136556666Y-92365904D01*
X136480476Y-92404000D01*
X136442380Y-92442095D01*
X136404285Y-92518285D01*
X136404285Y-92632571D01*
X136442380Y-92708761D01*
X136480476Y-92746857D01*
X136556666Y-92784952D01*
X136861428Y-92784952D01*
X135642380Y-93165904D02*
X136099523Y-93165904D01*
X135870952Y-93165904D02*
X135870952Y-92365904D01*
X135947142Y-92480190D01*
X136023333Y-92556380D01*
X136099523Y-92594476D01*
X135261428Y-93165904D02*
X135109047Y-93165904D01*
X135032857Y-93127809D01*
X134994761Y-93089714D01*
X134918571Y-92975428D01*
X134880476Y-92823047D01*
X134880476Y-92518285D01*
X134918571Y-92442095D01*
X134956666Y-92404000D01*
X135032857Y-92365904D01*
X135185238Y-92365904D01*
X135261428Y-92404000D01*
X135299523Y-92442095D01*
X135337619Y-92518285D01*
X135337619Y-92708761D01*
X135299523Y-92784952D01*
X135261428Y-92823047D01*
X135185238Y-92861142D01*
X135032857Y-92861142D01*
X134956666Y-92823047D01*
X134918571Y-92784952D01*
X134880476Y-92708761D01*
X148316904Y-51047714D02*
X147935952Y-50781047D01*
X148316904Y-50590571D02*
X147516904Y-50590571D01*
X147516904Y-50895333D01*
X147555000Y-50971523D01*
X147593095Y-51009619D01*
X147669285Y-51047714D01*
X147783571Y-51047714D01*
X147859761Y-51009619D01*
X147897857Y-50971523D01*
X147935952Y-50895333D01*
X147935952Y-50590571D01*
X148316904Y-51809619D02*
X148316904Y-51352476D01*
X148316904Y-51581047D02*
X147516904Y-51581047D01*
X147631190Y-51504857D01*
X147707380Y-51428666D01*
X147745476Y-51352476D01*
X147859761Y-52266761D02*
X147821666Y-52190571D01*
X147783571Y-52152476D01*
X147707380Y-52114380D01*
X147669285Y-52114380D01*
X147593095Y-52152476D01*
X147555000Y-52190571D01*
X147516904Y-52266761D01*
X147516904Y-52419142D01*
X147555000Y-52495333D01*
X147593095Y-52533428D01*
X147669285Y-52571523D01*
X147707380Y-52571523D01*
X147783571Y-52533428D01*
X147821666Y-52495333D01*
X147859761Y-52419142D01*
X147859761Y-52266761D01*
X147897857Y-52190571D01*
X147935952Y-52152476D01*
X148012142Y-52114380D01*
X148164523Y-52114380D01*
X148240714Y-52152476D01*
X148278809Y-52190571D01*
X148316904Y-52266761D01*
X148316904Y-52419142D01*
X148278809Y-52495333D01*
X148240714Y-52533428D01*
X148164523Y-52571523D01*
X148012142Y-52571523D01*
X147935952Y-52533428D01*
X147897857Y-52495333D01*
X147859761Y-52419142D01*
X133229285Y-144473904D02*
X133495952Y-144092952D01*
X133686428Y-144473904D02*
X133686428Y-143673904D01*
X133381666Y-143673904D01*
X133305476Y-143712000D01*
X133267380Y-143750095D01*
X133229285Y-143826285D01*
X133229285Y-143940571D01*
X133267380Y-144016761D01*
X133305476Y-144054857D01*
X133381666Y-144092952D01*
X133686428Y-144092952D01*
X132467380Y-144473904D02*
X132924523Y-144473904D01*
X132695952Y-144473904D02*
X132695952Y-143673904D01*
X132772142Y-143788190D01*
X132848333Y-143864380D01*
X132924523Y-143902476D01*
X132200714Y-143673904D02*
X131667380Y-143673904D01*
X132010238Y-144473904D01*
X121418285Y-144285904D02*
X121684952Y-143904952D01*
X121875428Y-144285904D02*
X121875428Y-143485904D01*
X121570666Y-143485904D01*
X121494476Y-143524000D01*
X121456380Y-143562095D01*
X121418285Y-143638285D01*
X121418285Y-143752571D01*
X121456380Y-143828761D01*
X121494476Y-143866857D01*
X121570666Y-143904952D01*
X121875428Y-143904952D01*
X120656380Y-144285904D02*
X121113523Y-144285904D01*
X120884952Y-144285904D02*
X120884952Y-143485904D01*
X120961142Y-143600190D01*
X121037333Y-143676380D01*
X121113523Y-143714476D01*
X119970666Y-143485904D02*
X120123047Y-143485904D01*
X120199238Y-143524000D01*
X120237333Y-143562095D01*
X120313523Y-143676380D01*
X120351619Y-143828761D01*
X120351619Y-144133523D01*
X120313523Y-144209714D01*
X120275428Y-144247809D01*
X120199238Y-144285904D01*
X120046857Y-144285904D01*
X119970666Y-144247809D01*
X119932571Y-144209714D01*
X119894476Y-144133523D01*
X119894476Y-143943047D01*
X119932571Y-143866857D01*
X119970666Y-143828761D01*
X120046857Y-143790666D01*
X120199238Y-143790666D01*
X120275428Y-143828761D01*
X120313523Y-143866857D01*
X120351619Y-143943047D01*
X129444285Y-143203904D02*
X129710952Y-142822952D01*
X129901428Y-143203904D02*
X129901428Y-142403904D01*
X129596666Y-142403904D01*
X129520476Y-142442000D01*
X129482380Y-142480095D01*
X129444285Y-142556285D01*
X129444285Y-142670571D01*
X129482380Y-142746761D01*
X129520476Y-142784857D01*
X129596666Y-142822952D01*
X129901428Y-142822952D01*
X128682380Y-143203904D02*
X129139523Y-143203904D01*
X128910952Y-143203904D02*
X128910952Y-142403904D01*
X128987142Y-142518190D01*
X129063333Y-142594380D01*
X129139523Y-142632476D01*
X127958571Y-142403904D02*
X128339523Y-142403904D01*
X128377619Y-142784857D01*
X128339523Y-142746761D01*
X128263333Y-142708666D01*
X128072857Y-142708666D01*
X127996666Y-142746761D01*
X127958571Y-142784857D01*
X127920476Y-142861047D01*
X127920476Y-143051523D01*
X127958571Y-143127714D01*
X127996666Y-143165809D01*
X128072857Y-143203904D01*
X128263333Y-143203904D01*
X128339523Y-143165809D01*
X128377619Y-143127714D01*
X125279285Y-143269904D02*
X125545952Y-142888952D01*
X125736428Y-143269904D02*
X125736428Y-142469904D01*
X125431666Y-142469904D01*
X125355476Y-142508000D01*
X125317380Y-142546095D01*
X125279285Y-142622285D01*
X125279285Y-142736571D01*
X125317380Y-142812761D01*
X125355476Y-142850857D01*
X125431666Y-142888952D01*
X125736428Y-142888952D01*
X124517380Y-143269904D02*
X124974523Y-143269904D01*
X124745952Y-143269904D02*
X124745952Y-142469904D01*
X124822142Y-142584190D01*
X124898333Y-142660380D01*
X124974523Y-142698476D01*
X123831666Y-142736571D02*
X123831666Y-143269904D01*
X124022142Y-142431809D02*
X124212619Y-143003238D01*
X123717380Y-143003238D01*
X129470285Y-137648904D02*
X129736952Y-137267952D01*
X129927428Y-137648904D02*
X129927428Y-136848904D01*
X129622666Y-136848904D01*
X129546476Y-136887000D01*
X129508380Y-136925095D01*
X129470285Y-137001285D01*
X129470285Y-137115571D01*
X129508380Y-137191761D01*
X129546476Y-137229857D01*
X129622666Y-137267952D01*
X129927428Y-137267952D01*
X128708380Y-137648904D02*
X129165523Y-137648904D01*
X128936952Y-137648904D02*
X128936952Y-136848904D01*
X129013142Y-136963190D01*
X129089333Y-137039380D01*
X129165523Y-137077476D01*
X128441714Y-136848904D02*
X127946476Y-136848904D01*
X128213142Y-137153666D01*
X128098857Y-137153666D01*
X128022666Y-137191761D01*
X127984571Y-137229857D01*
X127946476Y-137306047D01*
X127946476Y-137496523D01*
X127984571Y-137572714D01*
X128022666Y-137610809D01*
X128098857Y-137648904D01*
X128327428Y-137648904D01*
X128403619Y-137610809D01*
X128441714Y-137572714D01*
X125279285Y-137615904D02*
X125545952Y-137234952D01*
X125736428Y-137615904D02*
X125736428Y-136815904D01*
X125431666Y-136815904D01*
X125355476Y-136854000D01*
X125317380Y-136892095D01*
X125279285Y-136968285D01*
X125279285Y-137082571D01*
X125317380Y-137158761D01*
X125355476Y-137196857D01*
X125431666Y-137234952D01*
X125736428Y-137234952D01*
X124517380Y-137615904D02*
X124974523Y-137615904D01*
X124745952Y-137615904D02*
X124745952Y-136815904D01*
X124822142Y-136930190D01*
X124898333Y-137006380D01*
X124974523Y-137044476D01*
X124212619Y-136892095D02*
X124174523Y-136854000D01*
X124098333Y-136815904D01*
X123907857Y-136815904D01*
X123831666Y-136854000D01*
X123793571Y-136892095D01*
X123755476Y-136968285D01*
X123755476Y-137044476D01*
X123793571Y-137158761D01*
X124250714Y-137615904D01*
X123755476Y-137615904D01*
X129470285Y-132027904D02*
X129736952Y-131646952D01*
X129927428Y-132027904D02*
X129927428Y-131227904D01*
X129622666Y-131227904D01*
X129546476Y-131266000D01*
X129508380Y-131304095D01*
X129470285Y-131380285D01*
X129470285Y-131494571D01*
X129508380Y-131570761D01*
X129546476Y-131608857D01*
X129622666Y-131646952D01*
X129927428Y-131646952D01*
X128708380Y-132027904D02*
X129165523Y-132027904D01*
X128936952Y-132027904D02*
X128936952Y-131227904D01*
X129013142Y-131342190D01*
X129089333Y-131418380D01*
X129165523Y-131456476D01*
X127946476Y-132027904D02*
X128403619Y-132027904D01*
X128175047Y-132027904D02*
X128175047Y-131227904D01*
X128251238Y-131342190D01*
X128327428Y-131418380D01*
X128403619Y-131456476D01*
X125279285Y-132093904D02*
X125545952Y-131712952D01*
X125736428Y-132093904D02*
X125736428Y-131293904D01*
X125431666Y-131293904D01*
X125355476Y-131332000D01*
X125317380Y-131370095D01*
X125279285Y-131446285D01*
X125279285Y-131560571D01*
X125317380Y-131636761D01*
X125355476Y-131674857D01*
X125431666Y-131712952D01*
X125736428Y-131712952D01*
X124517380Y-132093904D02*
X124974523Y-132093904D01*
X124745952Y-132093904D02*
X124745952Y-131293904D01*
X124822142Y-131408190D01*
X124898333Y-131484380D01*
X124974523Y-131522476D01*
X124022142Y-131293904D02*
X123945952Y-131293904D01*
X123869761Y-131332000D01*
X123831666Y-131370095D01*
X123793571Y-131446285D01*
X123755476Y-131598666D01*
X123755476Y-131789142D01*
X123793571Y-131941523D01*
X123831666Y-132017714D01*
X123869761Y-132055809D01*
X123945952Y-132093904D01*
X124022142Y-132093904D01*
X124098333Y-132055809D01*
X124136428Y-132017714D01*
X124174523Y-131941523D01*
X124212619Y-131789142D01*
X124212619Y-131598666D01*
X124174523Y-131446285D01*
X124136428Y-131370095D01*
X124098333Y-131332000D01*
X124022142Y-131293904D01*
X114882904Y-70605666D02*
X114501952Y-70339000D01*
X114882904Y-70148523D02*
X114082904Y-70148523D01*
X114082904Y-70453285D01*
X114121000Y-70529476D01*
X114159095Y-70567571D01*
X114235285Y-70605666D01*
X114349571Y-70605666D01*
X114425761Y-70567571D01*
X114463857Y-70529476D01*
X114501952Y-70453285D01*
X114501952Y-70148523D01*
X114882904Y-70986619D02*
X114882904Y-71139000D01*
X114844809Y-71215190D01*
X114806714Y-71253285D01*
X114692428Y-71329476D01*
X114540047Y-71367571D01*
X114235285Y-71367571D01*
X114159095Y-71329476D01*
X114121000Y-71291380D01*
X114082904Y-71215190D01*
X114082904Y-71062809D01*
X114121000Y-70986619D01*
X114159095Y-70948523D01*
X114235285Y-70910428D01*
X114425761Y-70910428D01*
X114501952Y-70948523D01*
X114540047Y-70986619D01*
X114578142Y-71062809D01*
X114578142Y-71215190D01*
X114540047Y-71291380D01*
X114501952Y-71329476D01*
X114425761Y-71367571D01*
X118116333Y-82624904D02*
X118383000Y-82243952D01*
X118573476Y-82624904D02*
X118573476Y-81824904D01*
X118268714Y-81824904D01*
X118192523Y-81863000D01*
X118154428Y-81901095D01*
X118116333Y-81977285D01*
X118116333Y-82091571D01*
X118154428Y-82167761D01*
X118192523Y-82205857D01*
X118268714Y-82243952D01*
X118573476Y-82243952D01*
X117430619Y-81824904D02*
X117583000Y-81824904D01*
X117659190Y-81863000D01*
X117697285Y-81901095D01*
X117773476Y-82015380D01*
X117811571Y-82167761D01*
X117811571Y-82472523D01*
X117773476Y-82548714D01*
X117735380Y-82586809D01*
X117659190Y-82624904D01*
X117506809Y-82624904D01*
X117430619Y-82586809D01*
X117392523Y-82548714D01*
X117354428Y-82472523D01*
X117354428Y-82282047D01*
X117392523Y-82205857D01*
X117430619Y-82167761D01*
X117506809Y-82129666D01*
X117659190Y-82129666D01*
X117735380Y-82167761D01*
X117773476Y-82205857D01*
X117811571Y-82282047D01*
X125355333Y-68466904D02*
X125622000Y-68085952D01*
X125812476Y-68466904D02*
X125812476Y-67666904D01*
X125507714Y-67666904D01*
X125431523Y-67705000D01*
X125393428Y-67743095D01*
X125355333Y-67819285D01*
X125355333Y-67933571D01*
X125393428Y-68009761D01*
X125431523Y-68047857D01*
X125507714Y-68085952D01*
X125812476Y-68085952D01*
X124669619Y-67933571D02*
X124669619Y-68466904D01*
X124860095Y-67628809D02*
X125050571Y-68200238D01*
X124555333Y-68200238D01*
X125355333Y-71260904D02*
X125622000Y-70879952D01*
X125812476Y-71260904D02*
X125812476Y-70460904D01*
X125507714Y-70460904D01*
X125431523Y-70499000D01*
X125393428Y-70537095D01*
X125355333Y-70613285D01*
X125355333Y-70727571D01*
X125393428Y-70803761D01*
X125431523Y-70841857D01*
X125507714Y-70879952D01*
X125812476Y-70879952D01*
X125088666Y-70460904D02*
X124593428Y-70460904D01*
X124860095Y-70765666D01*
X124745809Y-70765666D01*
X124669619Y-70803761D01*
X124631523Y-70841857D01*
X124593428Y-70918047D01*
X124593428Y-71108523D01*
X124631523Y-71184714D01*
X124669619Y-71222809D01*
X124745809Y-71260904D01*
X124974380Y-71260904D01*
X125050571Y-71222809D01*
X125088666Y-71184714D01*
X147396190Y-96958095D02*
X147472380Y-96920000D01*
X147548571Y-96843809D01*
X147662857Y-96729523D01*
X147739047Y-96691428D01*
X147815238Y-96691428D01*
X147777142Y-96881904D02*
X147853333Y-96843809D01*
X147929523Y-96767619D01*
X147967619Y-96615238D01*
X147967619Y-96348571D01*
X147929523Y-96196190D01*
X147853333Y-96120000D01*
X147777142Y-96081904D01*
X147624761Y-96081904D01*
X147548571Y-96120000D01*
X147472380Y-96196190D01*
X147434285Y-96348571D01*
X147434285Y-96615238D01*
X147472380Y-96767619D01*
X147548571Y-96843809D01*
X147624761Y-96881904D01*
X147777142Y-96881904D01*
X146710476Y-96081904D02*
X147091428Y-96081904D01*
X147129523Y-96462857D01*
X147091428Y-96424761D01*
X147015238Y-96386666D01*
X146824761Y-96386666D01*
X146748571Y-96424761D01*
X146710476Y-96462857D01*
X146672380Y-96539047D01*
X146672380Y-96729523D01*
X146710476Y-96805714D01*
X146748571Y-96843809D01*
X146824761Y-96881904D01*
X147015238Y-96881904D01*
X147091428Y-96843809D01*
X147129523Y-96805714D01*
X106375190Y-109658095D02*
X106451380Y-109620000D01*
X106527571Y-109543809D01*
X106641857Y-109429523D01*
X106718047Y-109391428D01*
X106794238Y-109391428D01*
X106756142Y-109581904D02*
X106832333Y-109543809D01*
X106908523Y-109467619D01*
X106946619Y-109315238D01*
X106946619Y-109048571D01*
X106908523Y-108896190D01*
X106832333Y-108820000D01*
X106756142Y-108781904D01*
X106603761Y-108781904D01*
X106527571Y-108820000D01*
X106451380Y-108896190D01*
X106413285Y-109048571D01*
X106413285Y-109315238D01*
X106451380Y-109467619D01*
X106527571Y-109543809D01*
X106603761Y-109581904D01*
X106756142Y-109581904D01*
X105727571Y-109048571D02*
X105727571Y-109581904D01*
X105918047Y-108743809D02*
X106108523Y-109315238D01*
X105613285Y-109315238D01*
X119543190Y-107372095D02*
X119619380Y-107334000D01*
X119695571Y-107257809D01*
X119809857Y-107143523D01*
X119886047Y-107105428D01*
X119962238Y-107105428D01*
X119924142Y-107295904D02*
X120000333Y-107257809D01*
X120076523Y-107181619D01*
X120114619Y-107029238D01*
X120114619Y-106762571D01*
X120076523Y-106610190D01*
X120000333Y-106534000D01*
X119924142Y-106495904D01*
X119771761Y-106495904D01*
X119695571Y-106534000D01*
X119619380Y-106610190D01*
X119581285Y-106762571D01*
X119581285Y-107029238D01*
X119619380Y-107181619D01*
X119695571Y-107257809D01*
X119771761Y-107295904D01*
X119924142Y-107295904D01*
X119314619Y-106495904D02*
X118819380Y-106495904D01*
X119086047Y-106800666D01*
X118971761Y-106800666D01*
X118895571Y-106838761D01*
X118857476Y-106876857D01*
X118819380Y-106953047D01*
X118819380Y-107143523D01*
X118857476Y-107219714D01*
X118895571Y-107257809D01*
X118971761Y-107295904D01*
X119200333Y-107295904D01*
X119276523Y-107257809D01*
X119314619Y-107219714D01*
X106375190Y-96831095D02*
X106451380Y-96793000D01*
X106527571Y-96716809D01*
X106641857Y-96602523D01*
X106718047Y-96564428D01*
X106794238Y-96564428D01*
X106756142Y-96754904D02*
X106832333Y-96716809D01*
X106908523Y-96640619D01*
X106946619Y-96488238D01*
X106946619Y-96221571D01*
X106908523Y-96069190D01*
X106832333Y-95993000D01*
X106756142Y-95954904D01*
X106603761Y-95954904D01*
X106527571Y-95993000D01*
X106451380Y-96069190D01*
X106413285Y-96221571D01*
X106413285Y-96488238D01*
X106451380Y-96640619D01*
X106527571Y-96716809D01*
X106603761Y-96754904D01*
X106756142Y-96754904D01*
X106108523Y-96031095D02*
X106070428Y-95993000D01*
X105994238Y-95954904D01*
X105803761Y-95954904D01*
X105727571Y-95993000D01*
X105689476Y-96031095D01*
X105651380Y-96107285D01*
X105651380Y-96183476D01*
X105689476Y-96297761D01*
X106146619Y-96754904D01*
X105651380Y-96754904D01*
X139863190Y-107372095D02*
X139939380Y-107334000D01*
X140015571Y-107257809D01*
X140129857Y-107143523D01*
X140206047Y-107105428D01*
X140282238Y-107105428D01*
X140244142Y-107295904D02*
X140320333Y-107257809D01*
X140396523Y-107181619D01*
X140434619Y-107029238D01*
X140434619Y-106762571D01*
X140396523Y-106610190D01*
X140320333Y-106534000D01*
X140244142Y-106495904D01*
X140091761Y-106495904D01*
X140015571Y-106534000D01*
X139939380Y-106610190D01*
X139901285Y-106762571D01*
X139901285Y-107029238D01*
X139939380Y-107181619D01*
X140015571Y-107257809D01*
X140091761Y-107295904D01*
X140244142Y-107295904D01*
X139139380Y-107295904D02*
X139596523Y-107295904D01*
X139367952Y-107295904D02*
X139367952Y-106495904D01*
X139444142Y-106610190D01*
X139520333Y-106686380D01*
X139596523Y-106724476D01*
X108185904Y-51047666D02*
X108185904Y-50666714D01*
X107385904Y-50666714D01*
X108185904Y-51733380D02*
X108185904Y-51276238D01*
X108185904Y-51504809D02*
X107385904Y-51504809D01*
X107500190Y-51428619D01*
X107576380Y-51352428D01*
X107614476Y-51276238D01*
X143833904Y-57518380D02*
X144405333Y-57518380D01*
X144519619Y-57480285D01*
X144595809Y-57404095D01*
X144633904Y-57289809D01*
X144633904Y-57213619D01*
X144633904Y-58318380D02*
X144633904Y-57861238D01*
X144633904Y-58089809D02*
X143833904Y-58089809D01*
X143948190Y-58013619D01*
X144024380Y-57937428D01*
X144062476Y-57861238D01*
X143833904Y-59042190D02*
X143833904Y-58661238D01*
X144214857Y-58623142D01*
X144176761Y-58661238D01*
X144138666Y-58737428D01*
X144138666Y-58927904D01*
X144176761Y-59004095D01*
X144214857Y-59042190D01*
X144291047Y-59080285D01*
X144481523Y-59080285D01*
X144557714Y-59042190D01*
X144595809Y-59004095D01*
X144633904Y-58927904D01*
X144633904Y-58737428D01*
X144595809Y-58661238D01*
X144557714Y-58623142D01*
X120281619Y-54762904D02*
X120281619Y-55334333D01*
X120319714Y-55448619D01*
X120395904Y-55524809D01*
X120510190Y-55562904D01*
X120586380Y-55562904D01*
X119481619Y-55562904D02*
X119938761Y-55562904D01*
X119710190Y-55562904D02*
X119710190Y-54762904D01*
X119786380Y-54877190D01*
X119862571Y-54953380D01*
X119938761Y-54991476D01*
X119176857Y-54839095D02*
X119138761Y-54801000D01*
X119062571Y-54762904D01*
X118872095Y-54762904D01*
X118795904Y-54801000D01*
X118757809Y-54839095D01*
X118719714Y-54915285D01*
X118719714Y-54991476D01*
X118757809Y-55105761D01*
X119214952Y-55562904D01*
X118719714Y-55562904D01*
X140880619Y-72332904D02*
X140880619Y-72904333D01*
X140918714Y-73018619D01*
X140994904Y-73094809D01*
X141109190Y-73132904D01*
X141185380Y-73132904D01*
X140080619Y-73132904D02*
X140537761Y-73132904D01*
X140309190Y-73132904D02*
X140309190Y-72332904D01*
X140385380Y-72447190D01*
X140461571Y-72523380D01*
X140537761Y-72561476D01*
X139318714Y-73132904D02*
X139775857Y-73132904D01*
X139547285Y-73132904D02*
X139547285Y-72332904D01*
X139623476Y-72447190D01*
X139699666Y-72523380D01*
X139775857Y-72561476D01*
X148024857Y-72993333D02*
X148024857Y-72726666D01*
X148443904Y-72726666D02*
X147643904Y-72726666D01*
X147643904Y-73107619D01*
X148024857Y-73679047D02*
X148062952Y-73793333D01*
X148101047Y-73831428D01*
X148177238Y-73869523D01*
X148291523Y-73869523D01*
X148367714Y-73831428D01*
X148405809Y-73793333D01*
X148443904Y-73717142D01*
X148443904Y-73412380D01*
X147643904Y-73412380D01*
X147643904Y-73679047D01*
X147682000Y-73755238D01*
X147720095Y-73793333D01*
X147796285Y-73831428D01*
X147872476Y-73831428D01*
X147948666Y-73793333D01*
X147986761Y-73755238D01*
X148024857Y-73679047D01*
X148024857Y-73412380D01*
X147643904Y-74136190D02*
X147643904Y-74631428D01*
X147948666Y-74364761D01*
X147948666Y-74479047D01*
X147986761Y-74555238D01*
X148024857Y-74593333D01*
X148101047Y-74631428D01*
X148291523Y-74631428D01*
X148367714Y-74593333D01*
X148405809Y-74555238D01*
X148443904Y-74479047D01*
X148443904Y-74250476D01*
X148405809Y-74174285D01*
X148367714Y-74136190D01*
X140752857Y-60420333D02*
X140752857Y-60153666D01*
X141171904Y-60153666D02*
X140371904Y-60153666D01*
X140371904Y-60534619D01*
X140752857Y-61106047D02*
X140790952Y-61220333D01*
X140829047Y-61258428D01*
X140905238Y-61296523D01*
X141019523Y-61296523D01*
X141095714Y-61258428D01*
X141133809Y-61220333D01*
X141171904Y-61144142D01*
X141171904Y-60839380D01*
X140371904Y-60839380D01*
X140371904Y-61106047D01*
X140410000Y-61182238D01*
X140448095Y-61220333D01*
X140524285Y-61258428D01*
X140600476Y-61258428D01*
X140676666Y-61220333D01*
X140714761Y-61182238D01*
X140752857Y-61106047D01*
X140752857Y-60839380D01*
X140448095Y-61601285D02*
X140410000Y-61639380D01*
X140371904Y-61715571D01*
X140371904Y-61906047D01*
X140410000Y-61982238D01*
X140448095Y-62020333D01*
X140524285Y-62058428D01*
X140600476Y-62058428D01*
X140714761Y-62020333D01*
X141171904Y-61563190D01*
X141171904Y-62058428D01*
X140785857Y-56229333D02*
X140785857Y-55962666D01*
X141204904Y-55962666D02*
X140404904Y-55962666D01*
X140404904Y-56343619D01*
X140785857Y-56915047D02*
X140823952Y-57029333D01*
X140862047Y-57067428D01*
X140938238Y-57105523D01*
X141052523Y-57105523D01*
X141128714Y-57067428D01*
X141166809Y-57029333D01*
X141204904Y-56953142D01*
X141204904Y-56648380D01*
X140404904Y-56648380D01*
X140404904Y-56915047D01*
X140443000Y-56991238D01*
X140481095Y-57029333D01*
X140557285Y-57067428D01*
X140633476Y-57067428D01*
X140709666Y-57029333D01*
X140747761Y-56991238D01*
X140785857Y-56915047D01*
X140785857Y-56648380D01*
X141204904Y-57867428D02*
X141204904Y-57410285D01*
X141204904Y-57638857D02*
X140404904Y-57638857D01*
X140519190Y-57562666D01*
X140595380Y-57486476D01*
X140633476Y-57410285D01*
X138980476Y-87991904D02*
X138980476Y-87191904D01*
X138790000Y-87191904D01*
X138675714Y-87230000D01*
X138599523Y-87306190D01*
X138561428Y-87382380D01*
X138523333Y-87534761D01*
X138523333Y-87649047D01*
X138561428Y-87801428D01*
X138599523Y-87877619D01*
X138675714Y-87953809D01*
X138790000Y-87991904D01*
X138980476Y-87991904D01*
X137837619Y-87458571D02*
X137837619Y-87991904D01*
X138028095Y-87153809D02*
X138218571Y-87725238D01*
X137723333Y-87725238D01*
X145395904Y-50971523D02*
X144595904Y-50971523D01*
X144595904Y-51162000D01*
X144634000Y-51276285D01*
X144710190Y-51352476D01*
X144786380Y-51390571D01*
X144938761Y-51428666D01*
X145053047Y-51428666D01*
X145205428Y-51390571D01*
X145281619Y-51352476D01*
X145357809Y-51276285D01*
X145395904Y-51162000D01*
X145395904Y-50971523D01*
X144595904Y-51695333D02*
X144595904Y-52190571D01*
X144900666Y-51923904D01*
X144900666Y-52038190D01*
X144938761Y-52114380D01*
X144976857Y-52152476D01*
X145053047Y-52190571D01*
X145243523Y-52190571D01*
X145319714Y-52152476D01*
X145357809Y-52114380D01*
X145395904Y-52038190D01*
X145395904Y-51809619D01*
X145357809Y-51733428D01*
X145319714Y-51695333D01*
X140696904Y-65068523D02*
X139896904Y-65068523D01*
X139896904Y-65259000D01*
X139935000Y-65373285D01*
X140011190Y-65449476D01*
X140087380Y-65487571D01*
X140239761Y-65525666D01*
X140354047Y-65525666D01*
X140506428Y-65487571D01*
X140582619Y-65449476D01*
X140658809Y-65373285D01*
X140696904Y-65259000D01*
X140696904Y-65068523D01*
X139973095Y-65830428D02*
X139935000Y-65868523D01*
X139896904Y-65944714D01*
X139896904Y-66135190D01*
X139935000Y-66211380D01*
X139973095Y-66249476D01*
X140049285Y-66287571D01*
X140125476Y-66287571D01*
X140239761Y-66249476D01*
X140696904Y-65792333D01*
X140696904Y-66287571D01*
X140823904Y-51733523D02*
X140023904Y-51733523D01*
X140023904Y-51924000D01*
X140062000Y-52038285D01*
X140138190Y-52114476D01*
X140214380Y-52152571D01*
X140366761Y-52190666D01*
X140481047Y-52190666D01*
X140633428Y-52152571D01*
X140709619Y-52114476D01*
X140785809Y-52038285D01*
X140823904Y-51924000D01*
X140823904Y-51733523D01*
X140823904Y-52952571D02*
X140823904Y-52495428D01*
X140823904Y-52724000D02*
X140023904Y-52724000D01*
X140138190Y-52647809D01*
X140214380Y-52571619D01*
X140252476Y-52495428D01*
X136937285Y-142456714D02*
X136975380Y-142494809D01*
X137089666Y-142532904D01*
X137165857Y-142532904D01*
X137280142Y-142494809D01*
X137356333Y-142418619D01*
X137394428Y-142342428D01*
X137432523Y-142190047D01*
X137432523Y-142075761D01*
X137394428Y-141923380D01*
X137356333Y-141847190D01*
X137280142Y-141771000D01*
X137165857Y-141732904D01*
X137089666Y-141732904D01*
X136975380Y-141771000D01*
X136937285Y-141809095D01*
X136213476Y-141732904D02*
X136594428Y-141732904D01*
X136632523Y-142113857D01*
X136594428Y-142075761D01*
X136518238Y-142037666D01*
X136327761Y-142037666D01*
X136251571Y-142075761D01*
X136213476Y-142113857D01*
X136175380Y-142190047D01*
X136175380Y-142380523D01*
X136213476Y-142456714D01*
X136251571Y-142494809D01*
X136327761Y-142532904D01*
X136518238Y-142532904D01*
X136594428Y-142494809D01*
X136632523Y-142456714D01*
X135870619Y-141809095D02*
X135832523Y-141771000D01*
X135756333Y-141732904D01*
X135565857Y-141732904D01*
X135489666Y-141771000D01*
X135451571Y-141809095D01*
X135413476Y-141885285D01*
X135413476Y-141961476D01*
X135451571Y-142075761D01*
X135908714Y-142532904D01*
X135413476Y-142532904D01*
X141306285Y-142390714D02*
X141344380Y-142428809D01*
X141458666Y-142466904D01*
X141534857Y-142466904D01*
X141649142Y-142428809D01*
X141725333Y-142352619D01*
X141763428Y-142276428D01*
X141801523Y-142124047D01*
X141801523Y-142009761D01*
X141763428Y-141857380D01*
X141725333Y-141781190D01*
X141649142Y-141705000D01*
X141534857Y-141666904D01*
X141458666Y-141666904D01*
X141344380Y-141705000D01*
X141306285Y-141743095D01*
X140582476Y-141666904D02*
X140963428Y-141666904D01*
X141001523Y-142047857D01*
X140963428Y-142009761D01*
X140887238Y-141971666D01*
X140696761Y-141971666D01*
X140620571Y-142009761D01*
X140582476Y-142047857D01*
X140544380Y-142124047D01*
X140544380Y-142314523D01*
X140582476Y-142390714D01*
X140620571Y-142428809D01*
X140696761Y-142466904D01*
X140887238Y-142466904D01*
X140963428Y-142428809D01*
X141001523Y-142390714D01*
X139782476Y-142466904D02*
X140239619Y-142466904D01*
X140011047Y-142466904D02*
X140011047Y-141666904D01*
X140087238Y-141781190D01*
X140163428Y-141857380D01*
X140239619Y-141895476D01*
X141306285Y-124737714D02*
X141344380Y-124775809D01*
X141458666Y-124813904D01*
X141534857Y-124813904D01*
X141649142Y-124775809D01*
X141725333Y-124699619D01*
X141763428Y-124623428D01*
X141801523Y-124471047D01*
X141801523Y-124356761D01*
X141763428Y-124204380D01*
X141725333Y-124128190D01*
X141649142Y-124052000D01*
X141534857Y-124013904D01*
X141458666Y-124013904D01*
X141344380Y-124052000D01*
X141306285Y-124090095D01*
X140582476Y-124013904D02*
X140963428Y-124013904D01*
X141001523Y-124394857D01*
X140963428Y-124356761D01*
X140887238Y-124318666D01*
X140696761Y-124318666D01*
X140620571Y-124356761D01*
X140582476Y-124394857D01*
X140544380Y-124471047D01*
X140544380Y-124661523D01*
X140582476Y-124737714D01*
X140620571Y-124775809D01*
X140696761Y-124813904D01*
X140887238Y-124813904D01*
X140963428Y-124775809D01*
X141001523Y-124737714D01*
X140049142Y-124013904D02*
X139972952Y-124013904D01*
X139896761Y-124052000D01*
X139858666Y-124090095D01*
X139820571Y-124166285D01*
X139782476Y-124318666D01*
X139782476Y-124509142D01*
X139820571Y-124661523D01*
X139858666Y-124737714D01*
X139896761Y-124775809D01*
X139972952Y-124813904D01*
X140049142Y-124813904D01*
X140125333Y-124775809D01*
X140163428Y-124737714D01*
X140201523Y-124661523D01*
X140239619Y-124509142D01*
X140239619Y-124318666D01*
X140201523Y-124166285D01*
X140163428Y-124090095D01*
X140125333Y-124052000D01*
X140049142Y-124013904D01*
X136937285Y-124803714D02*
X136975380Y-124841809D01*
X137089666Y-124879904D01*
X137165857Y-124879904D01*
X137280142Y-124841809D01*
X137356333Y-124765619D01*
X137394428Y-124689428D01*
X137432523Y-124537047D01*
X137432523Y-124422761D01*
X137394428Y-124270380D01*
X137356333Y-124194190D01*
X137280142Y-124118000D01*
X137165857Y-124079904D01*
X137089666Y-124079904D01*
X136975380Y-124118000D01*
X136937285Y-124156095D01*
X136251571Y-124346571D02*
X136251571Y-124879904D01*
X136442047Y-124041809D02*
X136632523Y-124613238D01*
X136137285Y-124613238D01*
X135794428Y-124879904D02*
X135642047Y-124879904D01*
X135565857Y-124841809D01*
X135527761Y-124803714D01*
X135451571Y-124689428D01*
X135413476Y-124537047D01*
X135413476Y-124232285D01*
X135451571Y-124156095D01*
X135489666Y-124118000D01*
X135565857Y-124079904D01*
X135718238Y-124079904D01*
X135794428Y-124118000D01*
X135832523Y-124156095D01*
X135870619Y-124232285D01*
X135870619Y-124422761D01*
X135832523Y-124498952D01*
X135794428Y-124537047D01*
X135718238Y-124575142D01*
X135565857Y-124575142D01*
X135489666Y-124537047D01*
X135451571Y-124498952D01*
X135413476Y-124422761D01*
X145040285Y-133541714D02*
X145078380Y-133579809D01*
X145192666Y-133617904D01*
X145268857Y-133617904D01*
X145383142Y-133579809D01*
X145459333Y-133503619D01*
X145497428Y-133427428D01*
X145535523Y-133275047D01*
X145535523Y-133160761D01*
X145497428Y-133008380D01*
X145459333Y-132932190D01*
X145383142Y-132856000D01*
X145268857Y-132817904D01*
X145192666Y-132817904D01*
X145078380Y-132856000D01*
X145040285Y-132894095D01*
X144354571Y-133084571D02*
X144354571Y-133617904D01*
X144545047Y-132779809D02*
X144735523Y-133351238D01*
X144240285Y-133351238D01*
X143821238Y-133160761D02*
X143897428Y-133122666D01*
X143935523Y-133084571D01*
X143973619Y-133008380D01*
X143973619Y-132970285D01*
X143935523Y-132894095D01*
X143897428Y-132856000D01*
X143821238Y-132817904D01*
X143668857Y-132817904D01*
X143592666Y-132856000D01*
X143554571Y-132894095D01*
X143516476Y-132970285D01*
X143516476Y-133008380D01*
X143554571Y-133084571D01*
X143592666Y-133122666D01*
X143668857Y-133160761D01*
X143821238Y-133160761D01*
X143897428Y-133198857D01*
X143935523Y-133236952D01*
X143973619Y-133313142D01*
X143973619Y-133465523D01*
X143935523Y-133541714D01*
X143897428Y-133579809D01*
X143821238Y-133617904D01*
X143668857Y-133617904D01*
X143592666Y-133579809D01*
X143554571Y-133541714D01*
X143516476Y-133465523D01*
X143516476Y-133313142D01*
X143554571Y-133236952D01*
X143592666Y-133198857D01*
X143668857Y-133160761D01*
X113468285Y-142456714D02*
X113506380Y-142494809D01*
X113620666Y-142532904D01*
X113696857Y-142532904D01*
X113811142Y-142494809D01*
X113887333Y-142418619D01*
X113925428Y-142342428D01*
X113963523Y-142190047D01*
X113963523Y-142075761D01*
X113925428Y-141923380D01*
X113887333Y-141847190D01*
X113811142Y-141771000D01*
X113696857Y-141732904D01*
X113620666Y-141732904D01*
X113506380Y-141771000D01*
X113468285Y-141809095D01*
X112782571Y-141999571D02*
X112782571Y-142532904D01*
X112973047Y-141694809D02*
X113163523Y-142266238D01*
X112668285Y-142266238D01*
X112439714Y-141732904D02*
X111906380Y-141732904D01*
X112249238Y-142532904D01*
X117786285Y-142416714D02*
X117824380Y-142454809D01*
X117938666Y-142492904D01*
X118014857Y-142492904D01*
X118129142Y-142454809D01*
X118205333Y-142378619D01*
X118243428Y-142302428D01*
X118281523Y-142150047D01*
X118281523Y-142035761D01*
X118243428Y-141883380D01*
X118205333Y-141807190D01*
X118129142Y-141731000D01*
X118014857Y-141692904D01*
X117938666Y-141692904D01*
X117824380Y-141731000D01*
X117786285Y-141769095D01*
X117100571Y-141959571D02*
X117100571Y-142492904D01*
X117291047Y-141654809D02*
X117481523Y-142226238D01*
X116986285Y-142226238D01*
X116338666Y-141692904D02*
X116491047Y-141692904D01*
X116567238Y-141731000D01*
X116605333Y-141769095D01*
X116681523Y-141883380D01*
X116719619Y-142035761D01*
X116719619Y-142340523D01*
X116681523Y-142416714D01*
X116643428Y-142454809D01*
X116567238Y-142492904D01*
X116414857Y-142492904D01*
X116338666Y-142454809D01*
X116300571Y-142416714D01*
X116262476Y-142340523D01*
X116262476Y-142150047D01*
X116300571Y-142073857D01*
X116338666Y-142035761D01*
X116414857Y-141997666D01*
X116567238Y-141997666D01*
X116643428Y-142035761D01*
X116681523Y-142073857D01*
X116719619Y-142150047D01*
X117786285Y-124839714D02*
X117824380Y-124877809D01*
X117938666Y-124915904D01*
X118014857Y-124915904D01*
X118129142Y-124877809D01*
X118205333Y-124801619D01*
X118243428Y-124725428D01*
X118281523Y-124573047D01*
X118281523Y-124458761D01*
X118243428Y-124306380D01*
X118205333Y-124230190D01*
X118129142Y-124154000D01*
X118014857Y-124115904D01*
X117938666Y-124115904D01*
X117824380Y-124154000D01*
X117786285Y-124192095D01*
X117100571Y-124382571D02*
X117100571Y-124915904D01*
X117291047Y-124077809D02*
X117481523Y-124649238D01*
X116986285Y-124649238D01*
X116300571Y-124115904D02*
X116681523Y-124115904D01*
X116719619Y-124496857D01*
X116681523Y-124458761D01*
X116605333Y-124420666D01*
X116414857Y-124420666D01*
X116338666Y-124458761D01*
X116300571Y-124496857D01*
X116262476Y-124573047D01*
X116262476Y-124763523D01*
X116300571Y-124839714D01*
X116338666Y-124877809D01*
X116414857Y-124915904D01*
X116605333Y-124915904D01*
X116681523Y-124877809D01*
X116719619Y-124839714D01*
X113468285Y-124803714D02*
X113506380Y-124841809D01*
X113620666Y-124879904D01*
X113696857Y-124879904D01*
X113811142Y-124841809D01*
X113887333Y-124765619D01*
X113925428Y-124689428D01*
X113963523Y-124537047D01*
X113963523Y-124422761D01*
X113925428Y-124270380D01*
X113887333Y-124194190D01*
X113811142Y-124118000D01*
X113696857Y-124079904D01*
X113620666Y-124079904D01*
X113506380Y-124118000D01*
X113468285Y-124156095D01*
X112782571Y-124346571D02*
X112782571Y-124879904D01*
X112973047Y-124041809D02*
X113163523Y-124613238D01*
X112668285Y-124613238D01*
X112020666Y-124346571D02*
X112020666Y-124879904D01*
X112211142Y-124041809D02*
X112401619Y-124613238D01*
X111906380Y-124613238D01*
X109480285Y-133475714D02*
X109518380Y-133513809D01*
X109632666Y-133551904D01*
X109708857Y-133551904D01*
X109823142Y-133513809D01*
X109899333Y-133437619D01*
X109937428Y-133361428D01*
X109975523Y-133209047D01*
X109975523Y-133094761D01*
X109937428Y-132942380D01*
X109899333Y-132866190D01*
X109823142Y-132790000D01*
X109708857Y-132751904D01*
X109632666Y-132751904D01*
X109518380Y-132790000D01*
X109480285Y-132828095D01*
X108794571Y-133018571D02*
X108794571Y-133551904D01*
X108985047Y-132713809D02*
X109175523Y-133285238D01*
X108680285Y-133285238D01*
X108451714Y-132751904D02*
X107956476Y-132751904D01*
X108223142Y-133056666D01*
X108108857Y-133056666D01*
X108032666Y-133094761D01*
X107994571Y-133132857D01*
X107956476Y-133209047D01*
X107956476Y-133399523D01*
X107994571Y-133475714D01*
X108032666Y-133513809D01*
X108108857Y-133551904D01*
X108337428Y-133551904D01*
X108413619Y-133513809D01*
X108451714Y-133475714D01*
X136404285Y-90328714D02*
X136442380Y-90366809D01*
X136556666Y-90404904D01*
X136632857Y-90404904D01*
X136747142Y-90366809D01*
X136823333Y-90290619D01*
X136861428Y-90214428D01*
X136899523Y-90062047D01*
X136899523Y-89947761D01*
X136861428Y-89795380D01*
X136823333Y-89719190D01*
X136747142Y-89643000D01*
X136632857Y-89604904D01*
X136556666Y-89604904D01*
X136442380Y-89643000D01*
X136404285Y-89681095D01*
X135718571Y-89871571D02*
X135718571Y-90404904D01*
X135909047Y-89566809D02*
X136099523Y-90138238D01*
X135604285Y-90138238D01*
X135337619Y-89681095D02*
X135299523Y-89643000D01*
X135223333Y-89604904D01*
X135032857Y-89604904D01*
X134956666Y-89643000D01*
X134918571Y-89681095D01*
X134880476Y-89757285D01*
X134880476Y-89833476D01*
X134918571Y-89947761D01*
X135375714Y-90404904D01*
X134880476Y-90404904D01*
X147072285Y-83343714D02*
X147110380Y-83381809D01*
X147224666Y-83419904D01*
X147300857Y-83419904D01*
X147415142Y-83381809D01*
X147491333Y-83305619D01*
X147529428Y-83229428D01*
X147567523Y-83077047D01*
X147567523Y-82962761D01*
X147529428Y-82810380D01*
X147491333Y-82734190D01*
X147415142Y-82658000D01*
X147300857Y-82619904D01*
X147224666Y-82619904D01*
X147110380Y-82658000D01*
X147072285Y-82696095D01*
X146386571Y-82886571D02*
X146386571Y-83419904D01*
X146577047Y-82581809D02*
X146767523Y-83153238D01*
X146272285Y-83153238D01*
X145548476Y-83419904D02*
X146005619Y-83419904D01*
X145777047Y-83419904D02*
X145777047Y-82619904D01*
X145853238Y-82734190D01*
X145929428Y-82810380D01*
X146005619Y-82848476D01*
X108845285Y-67341714D02*
X108883380Y-67379809D01*
X108997666Y-67417904D01*
X109073857Y-67417904D01*
X109188142Y-67379809D01*
X109264333Y-67303619D01*
X109302428Y-67227428D01*
X109340523Y-67075047D01*
X109340523Y-66960761D01*
X109302428Y-66808380D01*
X109264333Y-66732190D01*
X109188142Y-66656000D01*
X109073857Y-66617904D01*
X108997666Y-66617904D01*
X108883380Y-66656000D01*
X108845285Y-66694095D01*
X108159571Y-66884571D02*
X108159571Y-67417904D01*
X108350047Y-66579809D02*
X108540523Y-67151238D01*
X108045285Y-67151238D01*
X107588142Y-66617904D02*
X107511952Y-66617904D01*
X107435761Y-66656000D01*
X107397666Y-66694095D01*
X107359571Y-66770285D01*
X107321476Y-66922666D01*
X107321476Y-67113142D01*
X107359571Y-67265523D01*
X107397666Y-67341714D01*
X107435761Y-67379809D01*
X107511952Y-67417904D01*
X107588142Y-67417904D01*
X107664333Y-67379809D01*
X107702428Y-67341714D01*
X107740523Y-67265523D01*
X107778619Y-67113142D01*
X107778619Y-66922666D01*
X107740523Y-66770285D01*
X107702428Y-66694095D01*
X107664333Y-66656000D01*
X107588142Y-66617904D01*
X142906714Y-73145714D02*
X142944809Y-73107619D01*
X142982904Y-72993333D01*
X142982904Y-72917142D01*
X142944809Y-72802857D01*
X142868619Y-72726666D01*
X142792428Y-72688571D01*
X142640047Y-72650476D01*
X142525761Y-72650476D01*
X142373380Y-72688571D01*
X142297190Y-72726666D01*
X142221000Y-72802857D01*
X142182904Y-72917142D01*
X142182904Y-72993333D01*
X142221000Y-73107619D01*
X142259095Y-73145714D01*
X142182904Y-73412380D02*
X142182904Y-73907619D01*
X142487666Y-73640952D01*
X142487666Y-73755238D01*
X142525761Y-73831428D01*
X142563857Y-73869523D01*
X142640047Y-73907619D01*
X142830523Y-73907619D01*
X142906714Y-73869523D01*
X142944809Y-73831428D01*
X142982904Y-73755238D01*
X142982904Y-73526666D01*
X142944809Y-73450476D01*
X142906714Y-73412380D01*
X142982904Y-74288571D02*
X142982904Y-74440952D01*
X142944809Y-74517142D01*
X142906714Y-74555238D01*
X142792428Y-74631428D01*
X142640047Y-74669523D01*
X142335285Y-74669523D01*
X142259095Y-74631428D01*
X142221000Y-74593333D01*
X142182904Y-74517142D01*
X142182904Y-74364761D01*
X142221000Y-74288571D01*
X142259095Y-74250476D01*
X142335285Y-74212380D01*
X142525761Y-74212380D01*
X142601952Y-74250476D01*
X142640047Y-74288571D01*
X142678142Y-74364761D01*
X142678142Y-74517142D01*
X142640047Y-74593333D01*
X142601952Y-74631428D01*
X142525761Y-74669523D01*
X115576285Y-61786714D02*
X115614380Y-61824809D01*
X115728666Y-61862904D01*
X115804857Y-61862904D01*
X115919142Y-61824809D01*
X115995333Y-61748619D01*
X116033428Y-61672428D01*
X116071523Y-61520047D01*
X116071523Y-61405761D01*
X116033428Y-61253380D01*
X115995333Y-61177190D01*
X115919142Y-61101000D01*
X115804857Y-61062904D01*
X115728666Y-61062904D01*
X115614380Y-61101000D01*
X115576285Y-61139095D01*
X115309619Y-61062904D02*
X114814380Y-61062904D01*
X115081047Y-61367666D01*
X114966761Y-61367666D01*
X114890571Y-61405761D01*
X114852476Y-61443857D01*
X114814380Y-61520047D01*
X114814380Y-61710523D01*
X114852476Y-61786714D01*
X114890571Y-61824809D01*
X114966761Y-61862904D01*
X115195333Y-61862904D01*
X115271523Y-61824809D01*
X115309619Y-61786714D01*
X114357238Y-61405761D02*
X114433428Y-61367666D01*
X114471523Y-61329571D01*
X114509619Y-61253380D01*
X114509619Y-61215285D01*
X114471523Y-61139095D01*
X114433428Y-61101000D01*
X114357238Y-61062904D01*
X114204857Y-61062904D01*
X114128666Y-61101000D01*
X114090571Y-61139095D01*
X114052476Y-61215285D01*
X114052476Y-61253380D01*
X114090571Y-61329571D01*
X114128666Y-61367666D01*
X114204857Y-61405761D01*
X114357238Y-61405761D01*
X114433428Y-61443857D01*
X114471523Y-61481952D01*
X114509619Y-61558142D01*
X114509619Y-61710523D01*
X114471523Y-61786714D01*
X114433428Y-61824809D01*
X114357238Y-61862904D01*
X114204857Y-61862904D01*
X114128666Y-61824809D01*
X114090571Y-61786714D01*
X114052476Y-61710523D01*
X114052476Y-61558142D01*
X114090571Y-61481952D01*
X114128666Y-61443857D01*
X114204857Y-61405761D01*
X145540714Y-73145714D02*
X145578809Y-73107619D01*
X145616904Y-72993333D01*
X145616904Y-72917142D01*
X145578809Y-72802857D01*
X145502619Y-72726666D01*
X145426428Y-72688571D01*
X145274047Y-72650476D01*
X145159761Y-72650476D01*
X145007380Y-72688571D01*
X144931190Y-72726666D01*
X144855000Y-72802857D01*
X144816904Y-72917142D01*
X144816904Y-72993333D01*
X144855000Y-73107619D01*
X144893095Y-73145714D01*
X144816904Y-73412380D02*
X144816904Y-73907619D01*
X145121666Y-73640952D01*
X145121666Y-73755238D01*
X145159761Y-73831428D01*
X145197857Y-73869523D01*
X145274047Y-73907619D01*
X145464523Y-73907619D01*
X145540714Y-73869523D01*
X145578809Y-73831428D01*
X145616904Y-73755238D01*
X145616904Y-73526666D01*
X145578809Y-73450476D01*
X145540714Y-73412380D01*
X144816904Y-74174285D02*
X144816904Y-74707619D01*
X145616904Y-74364761D01*
X115576285Y-56706714D02*
X115614380Y-56744809D01*
X115728666Y-56782904D01*
X115804857Y-56782904D01*
X115919142Y-56744809D01*
X115995333Y-56668619D01*
X116033428Y-56592428D01*
X116071523Y-56440047D01*
X116071523Y-56325761D01*
X116033428Y-56173380D01*
X115995333Y-56097190D01*
X115919142Y-56021000D01*
X115804857Y-55982904D01*
X115728666Y-55982904D01*
X115614380Y-56021000D01*
X115576285Y-56059095D01*
X115309619Y-55982904D02*
X114814380Y-55982904D01*
X115081047Y-56287666D01*
X114966761Y-56287666D01*
X114890571Y-56325761D01*
X114852476Y-56363857D01*
X114814380Y-56440047D01*
X114814380Y-56630523D01*
X114852476Y-56706714D01*
X114890571Y-56744809D01*
X114966761Y-56782904D01*
X115195333Y-56782904D01*
X115271523Y-56744809D01*
X115309619Y-56706714D01*
X114128666Y-55982904D02*
X114281047Y-55982904D01*
X114357238Y-56021000D01*
X114395333Y-56059095D01*
X114471523Y-56173380D01*
X114509619Y-56325761D01*
X114509619Y-56630523D01*
X114471523Y-56706714D01*
X114433428Y-56744809D01*
X114357238Y-56782904D01*
X114204857Y-56782904D01*
X114128666Y-56744809D01*
X114090571Y-56706714D01*
X114052476Y-56630523D01*
X114052476Y-56440047D01*
X114090571Y-56363857D01*
X114128666Y-56325761D01*
X114204857Y-56287666D01*
X114357238Y-56287666D01*
X114433428Y-56325761D01*
X114471523Y-56363857D01*
X114509619Y-56440047D01*
X143033714Y-69843714D02*
X143071809Y-69805619D01*
X143109904Y-69691333D01*
X143109904Y-69615142D01*
X143071809Y-69500857D01*
X142995619Y-69424666D01*
X142919428Y-69386571D01*
X142767047Y-69348476D01*
X142652761Y-69348476D01*
X142500380Y-69386571D01*
X142424190Y-69424666D01*
X142348000Y-69500857D01*
X142309904Y-69615142D01*
X142309904Y-69691333D01*
X142348000Y-69805619D01*
X142386095Y-69843714D01*
X142309904Y-70110380D02*
X142309904Y-70605619D01*
X142614666Y-70338952D01*
X142614666Y-70453238D01*
X142652761Y-70529428D01*
X142690857Y-70567523D01*
X142767047Y-70605619D01*
X142957523Y-70605619D01*
X143033714Y-70567523D01*
X143071809Y-70529428D01*
X143109904Y-70453238D01*
X143109904Y-70224666D01*
X143071809Y-70148476D01*
X143033714Y-70110380D01*
X142309904Y-71329428D02*
X142309904Y-70948476D01*
X142690857Y-70910380D01*
X142652761Y-70948476D01*
X142614666Y-71024666D01*
X142614666Y-71215142D01*
X142652761Y-71291333D01*
X142690857Y-71329428D01*
X142767047Y-71367523D01*
X142957523Y-71367523D01*
X143033714Y-71329428D01*
X143071809Y-71291333D01*
X143109904Y-71215142D01*
X143109904Y-71024666D01*
X143071809Y-70948476D01*
X143033714Y-70910380D01*
X103875714Y-50920714D02*
X103913809Y-50882619D01*
X103951904Y-50768333D01*
X103951904Y-50692142D01*
X103913809Y-50577857D01*
X103837619Y-50501666D01*
X103761428Y-50463571D01*
X103609047Y-50425476D01*
X103494761Y-50425476D01*
X103342380Y-50463571D01*
X103266190Y-50501666D01*
X103190000Y-50577857D01*
X103151904Y-50692142D01*
X103151904Y-50768333D01*
X103190000Y-50882619D01*
X103228095Y-50920714D01*
X103151904Y-51187380D02*
X103151904Y-51682619D01*
X103456666Y-51415952D01*
X103456666Y-51530238D01*
X103494761Y-51606428D01*
X103532857Y-51644523D01*
X103609047Y-51682619D01*
X103799523Y-51682619D01*
X103875714Y-51644523D01*
X103913809Y-51606428D01*
X103951904Y-51530238D01*
X103951904Y-51301666D01*
X103913809Y-51225476D01*
X103875714Y-51187380D01*
X103418571Y-52368333D02*
X103951904Y-52368333D01*
X103113809Y-52177857D02*
X103685238Y-51987380D01*
X103685238Y-52482619D01*
X136150285Y-69644714D02*
X136188380Y-69682809D01*
X136302666Y-69720904D01*
X136378857Y-69720904D01*
X136493142Y-69682809D01*
X136569333Y-69606619D01*
X136607428Y-69530428D01*
X136645523Y-69378047D01*
X136645523Y-69263761D01*
X136607428Y-69111380D01*
X136569333Y-69035190D01*
X136493142Y-68959000D01*
X136378857Y-68920904D01*
X136302666Y-68920904D01*
X136188380Y-68959000D01*
X136150285Y-68997095D01*
X135883619Y-68920904D02*
X135388380Y-68920904D01*
X135655047Y-69225666D01*
X135540761Y-69225666D01*
X135464571Y-69263761D01*
X135426476Y-69301857D01*
X135388380Y-69378047D01*
X135388380Y-69568523D01*
X135426476Y-69644714D01*
X135464571Y-69682809D01*
X135540761Y-69720904D01*
X135769333Y-69720904D01*
X135845523Y-69682809D01*
X135883619Y-69644714D01*
X135121714Y-68920904D02*
X134626476Y-68920904D01*
X134893142Y-69225666D01*
X134778857Y-69225666D01*
X134702666Y-69263761D01*
X134664571Y-69301857D01*
X134626476Y-69378047D01*
X134626476Y-69568523D01*
X134664571Y-69644714D01*
X134702666Y-69682809D01*
X134778857Y-69720904D01*
X135007428Y-69720904D01*
X135083619Y-69682809D01*
X135121714Y-69644714D01*
X136277285Y-55259714D02*
X136315380Y-55297809D01*
X136429666Y-55335904D01*
X136505857Y-55335904D01*
X136620142Y-55297809D01*
X136696333Y-55221619D01*
X136734428Y-55145428D01*
X136772523Y-54993047D01*
X136772523Y-54878761D01*
X136734428Y-54726380D01*
X136696333Y-54650190D01*
X136620142Y-54574000D01*
X136505857Y-54535904D01*
X136429666Y-54535904D01*
X136315380Y-54574000D01*
X136277285Y-54612095D01*
X136010619Y-54535904D02*
X135515380Y-54535904D01*
X135782047Y-54840666D01*
X135667761Y-54840666D01*
X135591571Y-54878761D01*
X135553476Y-54916857D01*
X135515380Y-54993047D01*
X135515380Y-55183523D01*
X135553476Y-55259714D01*
X135591571Y-55297809D01*
X135667761Y-55335904D01*
X135896333Y-55335904D01*
X135972523Y-55297809D01*
X136010619Y-55259714D01*
X135210619Y-54612095D02*
X135172523Y-54574000D01*
X135096333Y-54535904D01*
X134905857Y-54535904D01*
X134829666Y-54574000D01*
X134791571Y-54612095D01*
X134753476Y-54688285D01*
X134753476Y-54764476D01*
X134791571Y-54878761D01*
X135248714Y-55335904D01*
X134753476Y-55335904D01*
X111876714Y-50920714D02*
X111914809Y-50882619D01*
X111952904Y-50768333D01*
X111952904Y-50692142D01*
X111914809Y-50577857D01*
X111838619Y-50501666D01*
X111762428Y-50463571D01*
X111610047Y-50425476D01*
X111495761Y-50425476D01*
X111343380Y-50463571D01*
X111267190Y-50501666D01*
X111191000Y-50577857D01*
X111152904Y-50692142D01*
X111152904Y-50768333D01*
X111191000Y-50882619D01*
X111229095Y-50920714D01*
X111152904Y-51187380D02*
X111152904Y-51682619D01*
X111457666Y-51415952D01*
X111457666Y-51530238D01*
X111495761Y-51606428D01*
X111533857Y-51644523D01*
X111610047Y-51682619D01*
X111800523Y-51682619D01*
X111876714Y-51644523D01*
X111914809Y-51606428D01*
X111952904Y-51530238D01*
X111952904Y-51301666D01*
X111914809Y-51225476D01*
X111876714Y-51187380D01*
X111952904Y-52444523D02*
X111952904Y-51987380D01*
X111952904Y-52215952D02*
X111152904Y-52215952D01*
X111267190Y-52139761D01*
X111343380Y-52063571D01*
X111381476Y-51987380D01*
X129470285Y-140333714D02*
X129508380Y-140371809D01*
X129622666Y-140409904D01*
X129698857Y-140409904D01*
X129813142Y-140371809D01*
X129889333Y-140295619D01*
X129927428Y-140219428D01*
X129965523Y-140067047D01*
X129965523Y-139952761D01*
X129927428Y-139800380D01*
X129889333Y-139724190D01*
X129813142Y-139648000D01*
X129698857Y-139609904D01*
X129622666Y-139609904D01*
X129508380Y-139648000D01*
X129470285Y-139686095D01*
X129203619Y-139609904D02*
X128708380Y-139609904D01*
X128975047Y-139914666D01*
X128860761Y-139914666D01*
X128784571Y-139952761D01*
X128746476Y-139990857D01*
X128708380Y-140067047D01*
X128708380Y-140257523D01*
X128746476Y-140333714D01*
X128784571Y-140371809D01*
X128860761Y-140409904D01*
X129089333Y-140409904D01*
X129165523Y-140371809D01*
X129203619Y-140333714D01*
X128213142Y-139609904D02*
X128136952Y-139609904D01*
X128060761Y-139648000D01*
X128022666Y-139686095D01*
X127984571Y-139762285D01*
X127946476Y-139914666D01*
X127946476Y-140105142D01*
X127984571Y-140257523D01*
X128022666Y-140333714D01*
X128060761Y-140371809D01*
X128136952Y-140409904D01*
X128213142Y-140409904D01*
X128289333Y-140371809D01*
X128327428Y-140333714D01*
X128365523Y-140257523D01*
X128403619Y-140105142D01*
X128403619Y-139914666D01*
X128365523Y-139762285D01*
X128327428Y-139686095D01*
X128289333Y-139648000D01*
X128213142Y-139609904D01*
X125279285Y-140399714D02*
X125317380Y-140437809D01*
X125431666Y-140475904D01*
X125507857Y-140475904D01*
X125622142Y-140437809D01*
X125698333Y-140361619D01*
X125736428Y-140285428D01*
X125774523Y-140133047D01*
X125774523Y-140018761D01*
X125736428Y-139866380D01*
X125698333Y-139790190D01*
X125622142Y-139714000D01*
X125507857Y-139675904D01*
X125431666Y-139675904D01*
X125317380Y-139714000D01*
X125279285Y-139752095D01*
X124974523Y-139752095D02*
X124936428Y-139714000D01*
X124860238Y-139675904D01*
X124669761Y-139675904D01*
X124593571Y-139714000D01*
X124555476Y-139752095D01*
X124517380Y-139828285D01*
X124517380Y-139904476D01*
X124555476Y-140018761D01*
X125012619Y-140475904D01*
X124517380Y-140475904D01*
X124136428Y-140475904D02*
X123984047Y-140475904D01*
X123907857Y-140437809D01*
X123869761Y-140399714D01*
X123793571Y-140285428D01*
X123755476Y-140133047D01*
X123755476Y-139828285D01*
X123793571Y-139752095D01*
X123831666Y-139714000D01*
X123907857Y-139675904D01*
X124060238Y-139675904D01*
X124136428Y-139714000D01*
X124174523Y-139752095D01*
X124212619Y-139828285D01*
X124212619Y-140018761D01*
X124174523Y-140094952D01*
X124136428Y-140133047D01*
X124060238Y-140171142D01*
X123907857Y-140171142D01*
X123831666Y-140133047D01*
X123793571Y-140094952D01*
X123755476Y-140018761D01*
X125279285Y-151067714D02*
X125317380Y-151105809D01*
X125431666Y-151143904D01*
X125507857Y-151143904D01*
X125622142Y-151105809D01*
X125698333Y-151029619D01*
X125736428Y-150953428D01*
X125774523Y-150801047D01*
X125774523Y-150686761D01*
X125736428Y-150534380D01*
X125698333Y-150458190D01*
X125622142Y-150382000D01*
X125507857Y-150343904D01*
X125431666Y-150343904D01*
X125317380Y-150382000D01*
X125279285Y-150420095D01*
X124974523Y-150420095D02*
X124936428Y-150382000D01*
X124860238Y-150343904D01*
X124669761Y-150343904D01*
X124593571Y-150382000D01*
X124555476Y-150420095D01*
X124517380Y-150496285D01*
X124517380Y-150572476D01*
X124555476Y-150686761D01*
X125012619Y-151143904D01*
X124517380Y-151143904D01*
X124060238Y-150686761D02*
X124136428Y-150648666D01*
X124174523Y-150610571D01*
X124212619Y-150534380D01*
X124212619Y-150496285D01*
X124174523Y-150420095D01*
X124136428Y-150382000D01*
X124060238Y-150343904D01*
X123907857Y-150343904D01*
X123831666Y-150382000D01*
X123793571Y-150420095D01*
X123755476Y-150496285D01*
X123755476Y-150534380D01*
X123793571Y-150610571D01*
X123831666Y-150648666D01*
X123907857Y-150686761D01*
X124060238Y-150686761D01*
X124136428Y-150724857D01*
X124174523Y-150762952D01*
X124212619Y-150839142D01*
X124212619Y-150991523D01*
X124174523Y-151067714D01*
X124136428Y-151105809D01*
X124060238Y-151143904D01*
X123907857Y-151143904D01*
X123831666Y-151105809D01*
X123793571Y-151067714D01*
X123755476Y-150991523D01*
X123755476Y-150839142D01*
X123793571Y-150762952D01*
X123831666Y-150724857D01*
X123907857Y-150686761D01*
X129470285Y-151001714D02*
X129508380Y-151039809D01*
X129622666Y-151077904D01*
X129698857Y-151077904D01*
X129813142Y-151039809D01*
X129889333Y-150963619D01*
X129927428Y-150887428D01*
X129965523Y-150735047D01*
X129965523Y-150620761D01*
X129927428Y-150468380D01*
X129889333Y-150392190D01*
X129813142Y-150316000D01*
X129698857Y-150277904D01*
X129622666Y-150277904D01*
X129508380Y-150316000D01*
X129470285Y-150354095D01*
X129165523Y-150354095D02*
X129127428Y-150316000D01*
X129051238Y-150277904D01*
X128860761Y-150277904D01*
X128784571Y-150316000D01*
X128746476Y-150354095D01*
X128708380Y-150430285D01*
X128708380Y-150506476D01*
X128746476Y-150620761D01*
X129203619Y-151077904D01*
X128708380Y-151077904D01*
X128441714Y-150277904D02*
X127908380Y-150277904D01*
X128251238Y-151077904D01*
X129470285Y-134745714D02*
X129508380Y-134783809D01*
X129622666Y-134821904D01*
X129698857Y-134821904D01*
X129813142Y-134783809D01*
X129889333Y-134707619D01*
X129927428Y-134631428D01*
X129965523Y-134479047D01*
X129965523Y-134364761D01*
X129927428Y-134212380D01*
X129889333Y-134136190D01*
X129813142Y-134060000D01*
X129698857Y-134021904D01*
X129622666Y-134021904D01*
X129508380Y-134060000D01*
X129470285Y-134098095D01*
X129165523Y-134098095D02*
X129127428Y-134060000D01*
X129051238Y-134021904D01*
X128860761Y-134021904D01*
X128784571Y-134060000D01*
X128746476Y-134098095D01*
X128708380Y-134174285D01*
X128708380Y-134250476D01*
X128746476Y-134364761D01*
X129203619Y-134821904D01*
X128708380Y-134821904D01*
X128022666Y-134021904D02*
X128175047Y-134021904D01*
X128251238Y-134060000D01*
X128289333Y-134098095D01*
X128365523Y-134212380D01*
X128403619Y-134364761D01*
X128403619Y-134669523D01*
X128365523Y-134745714D01*
X128327428Y-134783809D01*
X128251238Y-134821904D01*
X128098857Y-134821904D01*
X128022666Y-134783809D01*
X127984571Y-134745714D01*
X127946476Y-134669523D01*
X127946476Y-134479047D01*
X127984571Y-134402857D01*
X128022666Y-134364761D01*
X128098857Y-134326666D01*
X128251238Y-134326666D01*
X128327428Y-134364761D01*
X128365523Y-134402857D01*
X128403619Y-134479047D01*
X125279285Y-134778714D02*
X125317380Y-134816809D01*
X125431666Y-134854904D01*
X125507857Y-134854904D01*
X125622142Y-134816809D01*
X125698333Y-134740619D01*
X125736428Y-134664428D01*
X125774523Y-134512047D01*
X125774523Y-134397761D01*
X125736428Y-134245380D01*
X125698333Y-134169190D01*
X125622142Y-134093000D01*
X125507857Y-134054904D01*
X125431666Y-134054904D01*
X125317380Y-134093000D01*
X125279285Y-134131095D01*
X124974523Y-134131095D02*
X124936428Y-134093000D01*
X124860238Y-134054904D01*
X124669761Y-134054904D01*
X124593571Y-134093000D01*
X124555476Y-134131095D01*
X124517380Y-134207285D01*
X124517380Y-134283476D01*
X124555476Y-134397761D01*
X125012619Y-134854904D01*
X124517380Y-134854904D01*
X123793571Y-134054904D02*
X124174523Y-134054904D01*
X124212619Y-134435857D01*
X124174523Y-134397761D01*
X124098333Y-134359666D01*
X123907857Y-134359666D01*
X123831666Y-134397761D01*
X123793571Y-134435857D01*
X123755476Y-134512047D01*
X123755476Y-134702523D01*
X123793571Y-134778714D01*
X123831666Y-134816809D01*
X123907857Y-134854904D01*
X124098333Y-134854904D01*
X124174523Y-134816809D01*
X124212619Y-134778714D01*
X129470285Y-113221714D02*
X129508380Y-113259809D01*
X129622666Y-113297904D01*
X129698857Y-113297904D01*
X129813142Y-113259809D01*
X129889333Y-113183619D01*
X129927428Y-113107428D01*
X129965523Y-112955047D01*
X129965523Y-112840761D01*
X129927428Y-112688380D01*
X129889333Y-112612190D01*
X129813142Y-112536000D01*
X129698857Y-112497904D01*
X129622666Y-112497904D01*
X129508380Y-112536000D01*
X129470285Y-112574095D01*
X129165523Y-112574095D02*
X129127428Y-112536000D01*
X129051238Y-112497904D01*
X128860761Y-112497904D01*
X128784571Y-112536000D01*
X128746476Y-112574095D01*
X128708380Y-112650285D01*
X128708380Y-112726476D01*
X128746476Y-112840761D01*
X129203619Y-113297904D01*
X128708380Y-113297904D01*
X128022666Y-112764571D02*
X128022666Y-113297904D01*
X128213142Y-112459809D02*
X128403619Y-113031238D01*
X127908380Y-113031238D01*
X129670285Y-128683714D02*
X129708380Y-128721809D01*
X129822666Y-128759904D01*
X129898857Y-128759904D01*
X130013142Y-128721809D01*
X130089333Y-128645619D01*
X130127428Y-128569428D01*
X130165523Y-128417047D01*
X130165523Y-128302761D01*
X130127428Y-128150380D01*
X130089333Y-128074190D01*
X130013142Y-127998000D01*
X129898857Y-127959904D01*
X129822666Y-127959904D01*
X129708380Y-127998000D01*
X129670285Y-128036095D01*
X129365523Y-128036095D02*
X129327428Y-127998000D01*
X129251238Y-127959904D01*
X129060761Y-127959904D01*
X128984571Y-127998000D01*
X128946476Y-128036095D01*
X128908380Y-128112285D01*
X128908380Y-128188476D01*
X128946476Y-128302761D01*
X129403619Y-128759904D01*
X128908380Y-128759904D01*
X128641714Y-127959904D02*
X128146476Y-127959904D01*
X128413142Y-128264666D01*
X128298857Y-128264666D01*
X128222666Y-128302761D01*
X128184571Y-128340857D01*
X128146476Y-128417047D01*
X128146476Y-128607523D01*
X128184571Y-128683714D01*
X128222666Y-128721809D01*
X128298857Y-128759904D01*
X128527428Y-128759904D01*
X128603619Y-128721809D01*
X128641714Y-128683714D01*
X117887285Y-109251714D02*
X117925380Y-109289809D01*
X118039666Y-109327904D01*
X118115857Y-109327904D01*
X118230142Y-109289809D01*
X118306333Y-109213619D01*
X118344428Y-109137428D01*
X118382523Y-108985047D01*
X118382523Y-108870761D01*
X118344428Y-108718380D01*
X118306333Y-108642190D01*
X118230142Y-108566000D01*
X118115857Y-108527904D01*
X118039666Y-108527904D01*
X117925380Y-108566000D01*
X117887285Y-108604095D01*
X117582523Y-108604095D02*
X117544428Y-108566000D01*
X117468238Y-108527904D01*
X117277761Y-108527904D01*
X117201571Y-108566000D01*
X117163476Y-108604095D01*
X117125380Y-108680285D01*
X117125380Y-108756476D01*
X117163476Y-108870761D01*
X117620619Y-109327904D01*
X117125380Y-109327904D01*
X116820619Y-108604095D02*
X116782523Y-108566000D01*
X116706333Y-108527904D01*
X116515857Y-108527904D01*
X116439666Y-108566000D01*
X116401571Y-108604095D01*
X116363476Y-108680285D01*
X116363476Y-108756476D01*
X116401571Y-108870761D01*
X116858714Y-109327904D01*
X116363476Y-109327904D01*
X125079285Y-128683714D02*
X125117380Y-128721809D01*
X125231666Y-128759904D01*
X125307857Y-128759904D01*
X125422142Y-128721809D01*
X125498333Y-128645619D01*
X125536428Y-128569428D01*
X125574523Y-128417047D01*
X125574523Y-128302761D01*
X125536428Y-128150380D01*
X125498333Y-128074190D01*
X125422142Y-127998000D01*
X125307857Y-127959904D01*
X125231666Y-127959904D01*
X125117380Y-127998000D01*
X125079285Y-128036095D01*
X124774523Y-128036095D02*
X124736428Y-127998000D01*
X124660238Y-127959904D01*
X124469761Y-127959904D01*
X124393571Y-127998000D01*
X124355476Y-128036095D01*
X124317380Y-128112285D01*
X124317380Y-128188476D01*
X124355476Y-128302761D01*
X124812619Y-128759904D01*
X124317380Y-128759904D01*
X123555476Y-128759904D02*
X124012619Y-128759904D01*
X123784047Y-128759904D02*
X123784047Y-127959904D01*
X123860238Y-128074190D01*
X123936428Y-128150380D01*
X124012619Y-128188476D01*
X129470285Y-125855714D02*
X129508380Y-125893809D01*
X129622666Y-125931904D01*
X129698857Y-125931904D01*
X129813142Y-125893809D01*
X129889333Y-125817619D01*
X129927428Y-125741428D01*
X129965523Y-125589047D01*
X129965523Y-125474761D01*
X129927428Y-125322380D01*
X129889333Y-125246190D01*
X129813142Y-125170000D01*
X129698857Y-125131904D01*
X129622666Y-125131904D01*
X129508380Y-125170000D01*
X129470285Y-125208095D01*
X129165523Y-125208095D02*
X129127428Y-125170000D01*
X129051238Y-125131904D01*
X128860761Y-125131904D01*
X128784571Y-125170000D01*
X128746476Y-125208095D01*
X128708380Y-125284285D01*
X128708380Y-125360476D01*
X128746476Y-125474761D01*
X129203619Y-125931904D01*
X128708380Y-125931904D01*
X128213142Y-125131904D02*
X128136952Y-125131904D01*
X128060761Y-125170000D01*
X128022666Y-125208095D01*
X127984571Y-125284285D01*
X127946476Y-125436666D01*
X127946476Y-125627142D01*
X127984571Y-125779523D01*
X128022666Y-125855714D01*
X128060761Y-125893809D01*
X128136952Y-125931904D01*
X128213142Y-125931904D01*
X128289333Y-125893809D01*
X128327428Y-125855714D01*
X128365523Y-125779523D01*
X128403619Y-125627142D01*
X128403619Y-125436666D01*
X128365523Y-125284285D01*
X128327428Y-125208095D01*
X128289333Y-125170000D01*
X128213142Y-125131904D01*
X125279285Y-125855714D02*
X125317380Y-125893809D01*
X125431666Y-125931904D01*
X125507857Y-125931904D01*
X125622142Y-125893809D01*
X125698333Y-125817619D01*
X125736428Y-125741428D01*
X125774523Y-125589047D01*
X125774523Y-125474761D01*
X125736428Y-125322380D01*
X125698333Y-125246190D01*
X125622142Y-125170000D01*
X125507857Y-125131904D01*
X125431666Y-125131904D01*
X125317380Y-125170000D01*
X125279285Y-125208095D01*
X124517380Y-125931904D02*
X124974523Y-125931904D01*
X124745952Y-125931904D02*
X124745952Y-125131904D01*
X124822142Y-125246190D01*
X124898333Y-125322380D01*
X124974523Y-125360476D01*
X124136428Y-125931904D02*
X123984047Y-125931904D01*
X123907857Y-125893809D01*
X123869761Y-125855714D01*
X123793571Y-125741428D01*
X123755476Y-125589047D01*
X123755476Y-125284285D01*
X123793571Y-125208095D01*
X123831666Y-125170000D01*
X123907857Y-125131904D01*
X124060238Y-125131904D01*
X124136428Y-125170000D01*
X124174523Y-125208095D01*
X124212619Y-125284285D01*
X124212619Y-125474761D01*
X124174523Y-125550952D01*
X124136428Y-125589047D01*
X124060238Y-125627142D01*
X123907857Y-125627142D01*
X123831666Y-125589047D01*
X123793571Y-125550952D01*
X123755476Y-125474761D01*
X125279285Y-113221714D02*
X125317380Y-113259809D01*
X125431666Y-113297904D01*
X125507857Y-113297904D01*
X125622142Y-113259809D01*
X125698333Y-113183619D01*
X125736428Y-113107428D01*
X125774523Y-112955047D01*
X125774523Y-112840761D01*
X125736428Y-112688380D01*
X125698333Y-112612190D01*
X125622142Y-112536000D01*
X125507857Y-112497904D01*
X125431666Y-112497904D01*
X125317380Y-112536000D01*
X125279285Y-112574095D01*
X124517380Y-113297904D02*
X124974523Y-113297904D01*
X124745952Y-113297904D02*
X124745952Y-112497904D01*
X124822142Y-112612190D01*
X124898333Y-112688380D01*
X124974523Y-112726476D01*
X124060238Y-112840761D02*
X124136428Y-112802666D01*
X124174523Y-112764571D01*
X124212619Y-112688380D01*
X124212619Y-112650285D01*
X124174523Y-112574095D01*
X124136428Y-112536000D01*
X124060238Y-112497904D01*
X123907857Y-112497904D01*
X123831666Y-112536000D01*
X123793571Y-112574095D01*
X123755476Y-112650285D01*
X123755476Y-112688380D01*
X123793571Y-112764571D01*
X123831666Y-112802666D01*
X123907857Y-112840761D01*
X124060238Y-112840761D01*
X124136428Y-112878857D01*
X124174523Y-112916952D01*
X124212619Y-112993142D01*
X124212619Y-113145523D01*
X124174523Y-113221714D01*
X124136428Y-113259809D01*
X124060238Y-113297904D01*
X123907857Y-113297904D01*
X123831666Y-113259809D01*
X123793571Y-113221714D01*
X123755476Y-113145523D01*
X123755476Y-112993142D01*
X123793571Y-112916952D01*
X123831666Y-112878857D01*
X123907857Y-112840761D01*
X136937285Y-109251714D02*
X136975380Y-109289809D01*
X137089666Y-109327904D01*
X137165857Y-109327904D01*
X137280142Y-109289809D01*
X137356333Y-109213619D01*
X137394428Y-109137428D01*
X137432523Y-108985047D01*
X137432523Y-108870761D01*
X137394428Y-108718380D01*
X137356333Y-108642190D01*
X137280142Y-108566000D01*
X137165857Y-108527904D01*
X137089666Y-108527904D01*
X136975380Y-108566000D01*
X136937285Y-108604095D01*
X136175380Y-109327904D02*
X136632523Y-109327904D01*
X136403952Y-109327904D02*
X136403952Y-108527904D01*
X136480142Y-108642190D01*
X136556333Y-108718380D01*
X136632523Y-108756476D01*
X135908714Y-108527904D02*
X135375380Y-108527904D01*
X135718238Y-109327904D01*
X121545285Y-68324714D02*
X121583380Y-68362809D01*
X121697666Y-68400904D01*
X121773857Y-68400904D01*
X121888142Y-68362809D01*
X121964333Y-68286619D01*
X122002428Y-68210428D01*
X122040523Y-68058047D01*
X122040523Y-67943761D01*
X122002428Y-67791380D01*
X121964333Y-67715190D01*
X121888142Y-67639000D01*
X121773857Y-67600904D01*
X121697666Y-67600904D01*
X121583380Y-67639000D01*
X121545285Y-67677095D01*
X120783380Y-68400904D02*
X121240523Y-68400904D01*
X121011952Y-68400904D02*
X121011952Y-67600904D01*
X121088142Y-67715190D01*
X121164333Y-67791380D01*
X121240523Y-67829476D01*
X120097666Y-67600904D02*
X120250047Y-67600904D01*
X120326238Y-67639000D01*
X120364333Y-67677095D01*
X120440523Y-67791380D01*
X120478619Y-67943761D01*
X120478619Y-68248523D01*
X120440523Y-68324714D01*
X120402428Y-68362809D01*
X120326238Y-68400904D01*
X120173857Y-68400904D01*
X120097666Y-68362809D01*
X120059571Y-68324714D01*
X120021476Y-68248523D01*
X120021476Y-68058047D01*
X120059571Y-67981857D01*
X120097666Y-67943761D01*
X120173857Y-67905666D01*
X120326238Y-67905666D01*
X120402428Y-67943761D01*
X120440523Y-67981857D01*
X120478619Y-68058047D01*
X125736285Y-65149714D02*
X125774380Y-65187809D01*
X125888666Y-65225904D01*
X125964857Y-65225904D01*
X126079142Y-65187809D01*
X126155333Y-65111619D01*
X126193428Y-65035428D01*
X126231523Y-64883047D01*
X126231523Y-64768761D01*
X126193428Y-64616380D01*
X126155333Y-64540190D01*
X126079142Y-64464000D01*
X125964857Y-64425904D01*
X125888666Y-64425904D01*
X125774380Y-64464000D01*
X125736285Y-64502095D01*
X124974380Y-65225904D02*
X125431523Y-65225904D01*
X125202952Y-65225904D02*
X125202952Y-64425904D01*
X125279142Y-64540190D01*
X125355333Y-64616380D01*
X125431523Y-64654476D01*
X124288666Y-64692571D02*
X124288666Y-65225904D01*
X124479142Y-64387809D02*
X124669619Y-64959238D01*
X124174380Y-64959238D01*
X121545285Y-71118714D02*
X121583380Y-71156809D01*
X121697666Y-71194904D01*
X121773857Y-71194904D01*
X121888142Y-71156809D01*
X121964333Y-71080619D01*
X122002428Y-71004428D01*
X122040523Y-70852047D01*
X122040523Y-70737761D01*
X122002428Y-70585380D01*
X121964333Y-70509190D01*
X121888142Y-70433000D01*
X121773857Y-70394904D01*
X121697666Y-70394904D01*
X121583380Y-70433000D01*
X121545285Y-70471095D01*
X120783380Y-71194904D02*
X121240523Y-71194904D01*
X121011952Y-71194904D02*
X121011952Y-70394904D01*
X121088142Y-70509190D01*
X121164333Y-70585380D01*
X121240523Y-70623476D01*
X120059571Y-70394904D02*
X120440523Y-70394904D01*
X120478619Y-70775857D01*
X120440523Y-70737761D01*
X120364333Y-70699666D01*
X120173857Y-70699666D01*
X120097666Y-70737761D01*
X120059571Y-70775857D01*
X120021476Y-70852047D01*
X120021476Y-71042523D01*
X120059571Y-71118714D01*
X120097666Y-71156809D01*
X120173857Y-71194904D01*
X120364333Y-71194904D01*
X120440523Y-71156809D01*
X120478619Y-71118714D01*
X124466285Y-88009714D02*
X124504380Y-88047809D01*
X124618666Y-88085904D01*
X124694857Y-88085904D01*
X124809142Y-88047809D01*
X124885333Y-87971619D01*
X124923428Y-87895428D01*
X124961523Y-87743047D01*
X124961523Y-87628761D01*
X124923428Y-87476380D01*
X124885333Y-87400190D01*
X124809142Y-87324000D01*
X124694857Y-87285904D01*
X124618666Y-87285904D01*
X124504380Y-87324000D01*
X124466285Y-87362095D01*
X123704380Y-88085904D02*
X124161523Y-88085904D01*
X123932952Y-88085904D02*
X123932952Y-87285904D01*
X124009142Y-87400190D01*
X124085333Y-87476380D01*
X124161523Y-87514476D01*
X123437714Y-87285904D02*
X122942476Y-87285904D01*
X123209142Y-87590666D01*
X123094857Y-87590666D01*
X123018666Y-87628761D01*
X122980571Y-87666857D01*
X122942476Y-87743047D01*
X122942476Y-87933523D01*
X122980571Y-88009714D01*
X123018666Y-88047809D01*
X123094857Y-88085904D01*
X123323428Y-88085904D01*
X123399619Y-88047809D01*
X123437714Y-88009714D01*
X129546285Y-90869714D02*
X129584380Y-90907809D01*
X129698666Y-90945904D01*
X129774857Y-90945904D01*
X129889142Y-90907809D01*
X129965333Y-90831619D01*
X130003428Y-90755428D01*
X130041523Y-90603047D01*
X130041523Y-90488761D01*
X130003428Y-90336380D01*
X129965333Y-90260190D01*
X129889142Y-90184000D01*
X129774857Y-90145904D01*
X129698666Y-90145904D01*
X129584380Y-90184000D01*
X129546285Y-90222095D01*
X128784380Y-90945904D02*
X129241523Y-90945904D01*
X129012952Y-90945904D02*
X129012952Y-90145904D01*
X129089142Y-90260190D01*
X129165333Y-90336380D01*
X129241523Y-90374476D01*
X128479619Y-90222095D02*
X128441523Y-90184000D01*
X128365333Y-90145904D01*
X128174857Y-90145904D01*
X128098666Y-90184000D01*
X128060571Y-90222095D01*
X128022476Y-90298285D01*
X128022476Y-90374476D01*
X128060571Y-90488761D01*
X128517714Y-90945904D01*
X128022476Y-90945904D01*
X136404285Y-77534714D02*
X136442380Y-77572809D01*
X136556666Y-77610904D01*
X136632857Y-77610904D01*
X136747142Y-77572809D01*
X136823333Y-77496619D01*
X136861428Y-77420428D01*
X136899523Y-77268047D01*
X136899523Y-77153761D01*
X136861428Y-77001380D01*
X136823333Y-76925190D01*
X136747142Y-76849000D01*
X136632857Y-76810904D01*
X136556666Y-76810904D01*
X136442380Y-76849000D01*
X136404285Y-76887095D01*
X135642380Y-77610904D02*
X136099523Y-77610904D01*
X135870952Y-77610904D02*
X135870952Y-76810904D01*
X135947142Y-76925190D01*
X136023333Y-77001380D01*
X136099523Y-77039476D01*
X134880476Y-77610904D02*
X135337619Y-77610904D01*
X135109047Y-77610904D02*
X135109047Y-76810904D01*
X135185238Y-76925190D01*
X135261428Y-77001380D01*
X135337619Y-77039476D01*
X129546285Y-88075714D02*
X129584380Y-88113809D01*
X129698666Y-88151904D01*
X129774857Y-88151904D01*
X129889142Y-88113809D01*
X129965333Y-88037619D01*
X130003428Y-87961428D01*
X130041523Y-87809047D01*
X130041523Y-87694761D01*
X130003428Y-87542380D01*
X129965333Y-87466190D01*
X129889142Y-87390000D01*
X129774857Y-87351904D01*
X129698666Y-87351904D01*
X129584380Y-87390000D01*
X129546285Y-87428095D01*
X128784380Y-88151904D02*
X129241523Y-88151904D01*
X129012952Y-88151904D02*
X129012952Y-87351904D01*
X129089142Y-87466190D01*
X129165333Y-87542380D01*
X129241523Y-87580476D01*
X128289142Y-87351904D02*
X128212952Y-87351904D01*
X128136761Y-87390000D01*
X128098666Y-87428095D01*
X128060571Y-87504285D01*
X128022476Y-87656666D01*
X128022476Y-87847142D01*
X128060571Y-87999523D01*
X128098666Y-88075714D01*
X128136761Y-88113809D01*
X128212952Y-88151904D01*
X128289142Y-88151904D01*
X128365333Y-88113809D01*
X128403428Y-88075714D01*
X128441523Y-87999523D01*
X128479619Y-87847142D01*
X128479619Y-87656666D01*
X128441523Y-87504285D01*
X128403428Y-87428095D01*
X128365333Y-87390000D01*
X128289142Y-87351904D01*
X136023333Y-74740714D02*
X136061428Y-74778809D01*
X136175714Y-74816904D01*
X136251904Y-74816904D01*
X136366190Y-74778809D01*
X136442380Y-74702619D01*
X136480476Y-74626428D01*
X136518571Y-74474047D01*
X136518571Y-74359761D01*
X136480476Y-74207380D01*
X136442380Y-74131190D01*
X136366190Y-74055000D01*
X136251904Y-74016904D01*
X136175714Y-74016904D01*
X136061428Y-74055000D01*
X136023333Y-74093095D01*
X135642380Y-74816904D02*
X135490000Y-74816904D01*
X135413809Y-74778809D01*
X135375714Y-74740714D01*
X135299523Y-74626428D01*
X135261428Y-74474047D01*
X135261428Y-74169285D01*
X135299523Y-74093095D01*
X135337619Y-74055000D01*
X135413809Y-74016904D01*
X135566190Y-74016904D01*
X135642380Y-74055000D01*
X135680476Y-74093095D01*
X135718571Y-74169285D01*
X135718571Y-74359761D01*
X135680476Y-74435952D01*
X135642380Y-74474047D01*
X135566190Y-74512142D01*
X135413809Y-74512142D01*
X135337619Y-74474047D01*
X135299523Y-74435952D01*
X135261428Y-74359761D01*
X124085333Y-90803714D02*
X124123428Y-90841809D01*
X124237714Y-90879904D01*
X124313904Y-90879904D01*
X124428190Y-90841809D01*
X124504380Y-90765619D01*
X124542476Y-90689428D01*
X124580571Y-90537047D01*
X124580571Y-90422761D01*
X124542476Y-90270380D01*
X124504380Y-90194190D01*
X124428190Y-90118000D01*
X124313904Y-90079904D01*
X124237714Y-90079904D01*
X124123428Y-90118000D01*
X124085333Y-90156095D01*
X123628190Y-90422761D02*
X123704380Y-90384666D01*
X123742476Y-90346571D01*
X123780571Y-90270380D01*
X123780571Y-90232285D01*
X123742476Y-90156095D01*
X123704380Y-90118000D01*
X123628190Y-90079904D01*
X123475809Y-90079904D01*
X123399619Y-90118000D01*
X123361523Y-90156095D01*
X123323428Y-90232285D01*
X123323428Y-90270380D01*
X123361523Y-90346571D01*
X123399619Y-90384666D01*
X123475809Y-90422761D01*
X123628190Y-90422761D01*
X123704380Y-90460857D01*
X123742476Y-90498952D01*
X123780571Y-90575142D01*
X123780571Y-90727523D01*
X123742476Y-90803714D01*
X123704380Y-90841809D01*
X123628190Y-90879904D01*
X123475809Y-90879904D01*
X123399619Y-90841809D01*
X123361523Y-90803714D01*
X123323428Y-90727523D01*
X123323428Y-90575142D01*
X123361523Y-90498952D01*
X123399619Y-90460857D01*
X123475809Y-90422761D01*
X117989333Y-77214714D02*
X118027428Y-77252809D01*
X118141714Y-77290904D01*
X118217904Y-77290904D01*
X118332190Y-77252809D01*
X118408380Y-77176619D01*
X118446476Y-77100428D01*
X118484571Y-76948047D01*
X118484571Y-76833761D01*
X118446476Y-76681380D01*
X118408380Y-76605190D01*
X118332190Y-76529000D01*
X118217904Y-76490904D01*
X118141714Y-76490904D01*
X118027428Y-76529000D01*
X117989333Y-76567095D01*
X117722666Y-76490904D02*
X117189333Y-76490904D01*
X117532190Y-77290904D01*
X117989333Y-74420714D02*
X118027428Y-74458809D01*
X118141714Y-74496904D01*
X118217904Y-74496904D01*
X118332190Y-74458809D01*
X118408380Y-74382619D01*
X118446476Y-74306428D01*
X118484571Y-74154047D01*
X118484571Y-74039761D01*
X118446476Y-73887380D01*
X118408380Y-73811190D01*
X118332190Y-73735000D01*
X118217904Y-73696904D01*
X118141714Y-73696904D01*
X118027428Y-73735000D01*
X117989333Y-73773095D01*
X117303619Y-73696904D02*
X117456000Y-73696904D01*
X117532190Y-73735000D01*
X117570285Y-73773095D01*
X117646476Y-73887380D01*
X117684571Y-74039761D01*
X117684571Y-74344523D01*
X117646476Y-74420714D01*
X117608380Y-74458809D01*
X117532190Y-74496904D01*
X117379809Y-74496904D01*
X117303619Y-74458809D01*
X117265523Y-74420714D01*
X117227428Y-74344523D01*
X117227428Y-74154047D01*
X117265523Y-74077857D01*
X117303619Y-74039761D01*
X117379809Y-74001666D01*
X117532190Y-74001666D01*
X117608380Y-74039761D01*
X117646476Y-74077857D01*
X117684571Y-74154047D01*
X109226333Y-84232714D02*
X109264428Y-84270809D01*
X109378714Y-84308904D01*
X109454904Y-84308904D01*
X109569190Y-84270809D01*
X109645380Y-84194619D01*
X109683476Y-84118428D01*
X109721571Y-83966047D01*
X109721571Y-83851761D01*
X109683476Y-83699380D01*
X109645380Y-83623190D01*
X109569190Y-83547000D01*
X109454904Y-83508904D01*
X109378714Y-83508904D01*
X109264428Y-83547000D01*
X109226333Y-83585095D01*
X108540619Y-83775571D02*
X108540619Y-84308904D01*
X108731095Y-83470809D02*
X108921571Y-84042238D01*
X108426333Y-84042238D01*
X118116333Y-94933714D02*
X118154428Y-94971809D01*
X118268714Y-95009904D01*
X118344904Y-95009904D01*
X118459190Y-94971809D01*
X118535380Y-94895619D01*
X118573476Y-94819428D01*
X118611571Y-94667047D01*
X118611571Y-94552761D01*
X118573476Y-94400380D01*
X118535380Y-94324190D01*
X118459190Y-94248000D01*
X118344904Y-94209904D01*
X118268714Y-94209904D01*
X118154428Y-94248000D01*
X118116333Y-94286095D01*
X117849666Y-94209904D02*
X117354428Y-94209904D01*
X117621095Y-94514666D01*
X117506809Y-94514666D01*
X117430619Y-94552761D01*
X117392523Y-94590857D01*
X117354428Y-94667047D01*
X117354428Y-94857523D01*
X117392523Y-94933714D01*
X117430619Y-94971809D01*
X117506809Y-95009904D01*
X117735380Y-95009904D01*
X117811571Y-94971809D01*
X117849666Y-94933714D01*
X118167333Y-85215714D02*
X118205428Y-85253809D01*
X118319714Y-85291904D01*
X118395904Y-85291904D01*
X118510190Y-85253809D01*
X118586380Y-85177619D01*
X118624476Y-85101428D01*
X118662571Y-84949047D01*
X118662571Y-84834761D01*
X118624476Y-84682380D01*
X118586380Y-84606190D01*
X118510190Y-84530000D01*
X118395904Y-84491904D01*
X118319714Y-84491904D01*
X118205428Y-84530000D01*
X118167333Y-84568095D01*
X117862571Y-84568095D02*
X117824476Y-84530000D01*
X117748285Y-84491904D01*
X117557809Y-84491904D01*
X117481619Y-84530000D01*
X117443523Y-84568095D01*
X117405428Y-84644285D01*
X117405428Y-84720476D01*
X117443523Y-84834761D01*
X117900666Y-85291904D01*
X117405428Y-85291904D01*
M02*
